<svg width="342" height="56" viewBox="0 0 342 56" fill="none" xmlns="http://www.w3.org/2000/svg">
<rect width="342" height="56" fill="url(#paint0_linear_1384_3)"/>
<path d="M17.7912 20.1758C17.2727 20.1758 16.8182 20.0817 16.4276 19.8935C16.0405 19.7017 15.7511 19.4212 15.5593 19.0518C15.3711 18.6825 15.3161 18.2298 15.3942 17.6935C15.4688 17.2319 15.6161 16.8519 15.8363 16.5536C16.06 16.2518 16.3335 16.0121 16.6566 15.8345C16.9833 15.657 17.3384 15.5238 17.7219 15.435C18.109 15.3462 18.4996 15.2805 18.8938 15.2379C19.3874 15.1811 19.7887 15.1332 20.0977 15.0941C20.4066 15.0515 20.6374 14.9893 20.7901 14.9077C20.9428 14.8224 21.0352 14.6857 21.0671 14.4975V14.4602C21.131 14.0163 21.0582 13.6719 20.8487 13.4268C20.6428 13.1783 20.2912 13.054 19.794 13.054C19.2791 13.054 18.8494 13.1676 18.505 13.3949C18.1605 13.6186 17.9102 13.8743 17.7539 14.1619L16.2305 13.8477C16.4684 13.3505 16.7809 12.9439 17.168 12.6278C17.555 12.3118 17.9865 12.081 18.4624 11.9354C18.9418 11.7862 19.4389 11.7116 19.9538 11.7116C20.2983 11.7116 20.6499 11.7525 21.0085 11.8342C21.3672 11.9158 21.6921 12.0597 21.9833 12.2656C22.2781 12.468 22.4982 12.7557 22.6438 13.1286C22.793 13.4979 22.8249 13.9737 22.7397 14.5561L21.9194 20H20.2841L20.4599 18.8814H20.396C20.261 19.0909 20.0746 19.2951 19.8366 19.494C19.5987 19.6928 19.3093 19.8562 18.9684 19.984C18.6275 20.1119 18.2351 20.1758 17.7912 20.1758ZM18.3665 18.8601C18.7926 18.8601 19.1708 18.7766 19.5011 18.6097C19.8313 18.4393 20.0994 18.2173 20.3054 17.9439C20.5114 17.6669 20.6374 17.3704 20.6836 17.0543L20.8381 16.021C20.7706 16.0778 20.6552 16.1293 20.4918 16.1754C20.3285 16.2216 20.1456 16.2624 19.9432 16.2979C19.7408 16.3299 19.5419 16.3583 19.3466 16.3832C19.1548 16.408 18.995 16.4293 18.8672 16.4471C18.5582 16.4897 18.2724 16.5572 18.0096 16.6495C17.7468 16.7383 17.5284 16.8679 17.3544 17.0384C17.1839 17.2053 17.0792 17.4254 17.0401 17.6989C16.9833 18.0824 17.0792 18.3718 17.3278 18.5671C17.5799 18.7624 17.9261 18.8601 18.3665 18.8601ZM27.4485 20.1651C26.6495 20.1651 25.9908 19.9858 25.4723 19.6271C24.9538 19.2649 24.5881 18.7678 24.375 18.1357C24.1619 17.5 24.1175 16.7702 24.2418 15.9464C24.3626 15.1119 24.6271 14.3768 25.0355 13.7411C25.4439 13.1055 25.9624 12.6083 26.5909 12.2496C27.2195 11.891 27.9226 11.7116 28.7003 11.7116C29.3324 11.7116 29.8775 11.8288 30.3356 12.0632C30.7937 12.294 31.1417 12.619 31.3796 13.038C31.6211 13.457 31.7259 13.9489 31.6939 14.5135H30.0639C30.0391 14.1264 29.897 13.7962 29.6378 13.5227C29.3821 13.2493 29.0075 13.1126 28.5138 13.1126C28.0842 13.1126 27.69 13.2262 27.3313 13.4535C26.9727 13.6808 26.6708 14.0039 26.4258 14.4229C26.1843 14.8384 26.0227 15.3338 25.9411 15.9091C25.8523 16.495 25.8647 17.0011 25.9783 17.4272C26.092 17.8498 26.2926 18.1765 26.5803 18.4073C26.8714 18.6381 27.2354 18.7536 27.6722 18.7536C27.9705 18.7536 28.2475 18.6985 28.5032 18.5884C28.7624 18.4783 28.9897 18.3185 29.185 18.109C29.3839 17.8995 29.5366 17.6474 29.6431 17.3526H31.2731C31.131 17.896 30.8825 18.3807 30.5273 18.8068C30.1758 19.2294 29.739 19.5614 29.217 19.8029C28.695 20.0444 28.1055 20.1651 27.4485 20.1651ZM36.0032 20.1651C35.2042 20.1651 34.5455 19.9858 34.027 19.6271C33.5085 19.2649 33.1428 18.7678 32.9297 18.1357C32.7166 17.5 32.6722 16.7702 32.7965 15.9464C32.9173 15.1119 33.1818 14.3768 33.5902 13.7411C33.9986 13.1055 34.517 12.6083 35.1456 12.2496C35.7741 11.891 36.4773 11.7116 37.255 11.7116C37.8871 11.7116 38.4322 11.8288 38.8903 12.0632C39.3484 12.294 39.6964 12.619 39.9343 13.038C40.1758 13.457 40.2805 13.9489 40.2486 14.5135H38.6186C38.5938 14.1264 38.4517 13.7962 38.1925 13.5227C37.9368 13.2493 37.5621 13.1126 37.0685 13.1126C36.6388 13.1126 36.2447 13.2262 35.886 13.4535C35.5273 13.6808 35.2255 14.0039 34.9805 14.4229C34.739 14.8384 34.5774 15.3338 34.4957 15.9091C34.407 16.495 34.4194 17.0011 34.533 17.4272C34.6467 17.8498 34.8473 18.1765 35.1349 18.4073C35.4261 18.6381 35.7901 18.7536 36.2269 18.7536C36.5252 18.7536 36.8022 18.6985 37.0579 18.5884C37.3171 18.4783 37.5444 18.3185 37.7397 18.109C37.9386 17.8995 38.0913 17.6474 38.1978 17.3526H39.8278C39.6857 17.896 39.4371 18.3807 39.082 18.8068C38.7305 19.2294 38.2937 19.5614 37.7717 19.8029C37.2496 20.0444 36.6602 20.1651 36.0032 20.1651ZM44.6325 20.1651C43.8263 20.1651 43.1552 19.9929 42.619 19.6484C42.0863 19.3004 41.7099 18.8121 41.4897 18.1836C41.2695 17.5515 41.2234 16.8111 41.3512 15.9624C41.4755 15.1207 41.7418 14.3821 42.1502 13.7464C42.5621 13.1072 43.0806 12.6083 43.7056 12.2496C44.3306 11.891 45.0249 11.7116 45.7884 11.7116C46.2642 11.7116 46.7081 11.7898 47.12 11.946C47.5355 12.0987 47.8906 12.3402 48.1854 12.6705C48.4837 13.0007 48.6914 13.4268 48.8086 13.9489C48.9293 14.4673 48.9347 15.0941 48.8246 15.8292L48.7447 16.3991H42.1822L42.358 15.1793H47.2745C47.3384 14.7745 47.3118 14.4141 47.1946 14.098C47.0774 13.782 46.8839 13.5334 46.614 13.3523C46.3441 13.1712 46.0067 13.0806 45.6019 13.0806C45.1864 13.0806 44.8011 13.1889 44.446 13.4055C44.0909 13.6186 43.7962 13.892 43.5618 14.2259C43.3274 14.5597 43.1818 14.9094 43.125 15.2752L42.9492 16.3938C42.8711 16.962 42.896 17.4237 43.0238 17.7788C43.1552 18.1303 43.3771 18.3878 43.6896 18.5511C44.0021 18.7145 44.391 18.7962 44.8562 18.7962C45.158 18.7962 45.4368 18.7553 45.6925 18.6737C45.9482 18.5884 46.1754 18.4624 46.3743 18.2955C46.5767 18.125 46.7436 17.9137 46.875 17.6616L48.4197 17.9119C48.2315 18.3665 47.9563 18.7624 47.5941 19.0998C47.2319 19.4371 46.8004 19.6999 46.2997 19.8881C45.799 20.0728 45.2433 20.1651 44.6325 20.1651ZM57.0863 13.8636L55.5309 14.098C55.4989 13.9134 55.4332 13.7393 55.3338 13.576C55.2344 13.4091 55.0852 13.2759 54.8864 13.1765C54.6911 13.0735 54.4354 13.022 54.1193 13.022C53.6719 13.022 53.2813 13.1232 52.9474 13.3256C52.6172 13.5281 52.4308 13.7855 52.3881 14.098C52.3491 14.3537 52.413 14.5597 52.5799 14.7159C52.7468 14.8722 53.0398 15.0018 53.4588 15.1048L54.7532 15.4031C55.4847 15.5735 56.0121 15.8434 56.3352 16.2127C56.6584 16.582 56.7756 17.0614 56.6868 17.6509C56.6122 18.1445 56.4045 18.5795 56.0636 18.956C55.7262 19.3324 55.2894 19.6289 54.7532 19.8455C54.217 20.0586 53.6204 20.1651 52.9634 20.1651C52.0082 20.1651 51.2642 19.9645 50.7315 19.5632C50.2024 19.1619 49.9272 18.5955 49.9059 17.864L51.5678 17.6456C51.5998 18.0398 51.7436 18.3363 51.9993 18.5352C52.2585 18.734 52.6154 18.8335 53.07 18.8335C53.5884 18.837 54.0199 18.7287 54.3643 18.5085C54.7124 18.2884 54.9059 18.022 54.945 17.7095C54.984 17.4645 54.9254 17.2621 54.7692 17.1023C54.6165 16.9425 54.3484 16.8182 53.9648 16.7294L52.6332 16.4258C51.8839 16.2553 51.3512 15.9766 51.0352 15.5895C50.7227 15.1989 50.6108 14.707 50.6996 14.114C50.7741 13.631 50.973 13.2102 51.2962 12.8516C51.6193 12.4893 52.033 12.2088 52.5373 12.0099C53.0451 11.8111 53.6097 11.7116 54.2312 11.7116C55.1438 11.7116 55.8327 11.907 56.2979 12.2976C56.7631 12.6847 57.0259 13.2067 57.0863 13.8636ZM65.1722 13.8636L63.6168 14.098C63.5849 13.9134 63.5192 13.7393 63.4197 13.576C63.3203 13.4091 63.1712 13.2759 62.9723 13.1765C62.777 13.0735 62.5213 13.022 62.2053 13.022C61.7578 13.022 61.3672 13.1232 61.0334 13.3256C60.7031 13.5281 60.5167 13.7855 60.4741 14.098C60.435 14.3537 60.4989 14.5597 60.6658 14.7159C60.8327 14.8722 61.1257 15.0018 61.5447 15.1048L62.8391 15.4031C63.5707 15.5735 64.098 15.8434 64.4212 16.2127C64.7443 16.582 64.8615 17.0614 64.7727 17.6509C64.6982 18.1445 64.4904 18.5795 64.1495 18.956C63.8121 19.3324 63.3754 19.6289 62.8391 19.8455C62.3029 20.0586 61.7063 20.1651 61.0494 20.1651C60.0941 20.1651 59.3501 19.9645 58.8175 19.5632C58.2884 19.1619 58.0131 18.5955 57.9918 17.864L59.6538 17.6456C59.6857 18.0398 59.8295 18.3363 60.0852 18.5352C60.3445 18.734 60.7013 18.8335 61.1559 18.8335C61.6744 18.837 62.1058 18.7287 62.4503 18.5085C62.7983 18.2884 62.9918 18.022 63.0309 17.7095C63.07 17.4645 63.0114 17.2621 62.8551 17.1023C62.7024 16.9425 62.4343 16.8182 62.0508 16.7294L60.7191 16.4258C59.9698 16.2553 59.4371 15.9766 59.1211 15.5895C58.8086 15.1989 58.6967 14.707 58.7855 14.114C58.8601 13.631 59.0589 13.2102 59.3821 12.8516C59.7053 12.4893 60.119 12.2088 60.6232 12.0099C61.131 11.8111 61.6957 11.7116 62.3171 11.7116C63.2298 11.7116 63.9187 11.907 64.3839 12.2976C64.8491 12.6847 65.1119 13.2067 65.1722 13.8636Z" fill="white" fill-opacity="0.75"/>
<path d="M49.93 28.75C49.69 29.02 49.33 29.47 49.12 29.8C47.92 31.84 45.07 35.71 41.65 38.08L39.64 36.49C42.43 34.9 45.25 31.66 46.21 29.8C44.11 29.8 30.55 29.8 29.11 29.8C28 29.8 26.89 29.86 25.72 29.95V27.25C26.77 27.4 28 27.52 29.11 27.52C30.55 27.52 44.56 27.52 46.36 27.52C46.93 27.52 48.01 27.43 48.43 27.31L49.93 28.75ZM37.93 32.68C37.93 40.81 37.21 46.3 29.56 50.14L27.37 48.34C28.18 48.07 29.23 47.56 30.07 46.99C34.69 44.14 35.35 39.88 35.35 34.87C35.35 34.15 35.35 33.49 35.23 32.68H37.93ZM76.6359 30.25C76.3959 30.67 76.0959 31.36 75.9459 31.84C75.1359 34.87 73.3059 38.92 70.6359 42.19C67.9059 45.52 64.3059 48.25 58.6959 50.35L56.5059 48.37C62.0259 46.75 65.7459 44.05 68.5059 40.84C70.8159 38.11 72.6759 34.21 73.2759 31.48H62.1759L63.1359 29.32C64.3359 29.32 71.7459 29.32 72.6759 29.32C73.4859 29.32 74.1759 29.23 74.6559 29.05L76.6359 30.25ZM66.5859 25.72C66.1059 26.5 65.5659 27.52 65.2659 28.06C63.4959 31.39 60.3759 35.68 55.5459 38.86L53.4459 37.33C58.6359 34.24 61.5759 29.86 62.8959 27.19C63.1959 26.65 63.6459 25.57 63.8259 24.79L66.5859 25.72ZM89.6559 45.16C89.6559 42.4 89.6559 31.78 89.6559 28.6C89.6559 27.7 89.6259 26.71 89.4759 25.84H92.2959C92.1759 26.71 92.0859 27.73 92.0859 28.6C92.0859 31.75 92.0859 41.56 92.0859 44.53C92.0859 46.6 92.8659 47.26 96.4359 47.26C99.9159 47.26 102.826 46.96 105.796 46.36L105.706 48.94C103.036 49.33 100.036 49.57 96.2859 49.57C90.7059 49.57 89.6559 48.1 89.6559 45.16ZM107.086 31.75C106.846 32.08 106.546 32.59 106.336 32.95C104.956 35.44 102.616 39.22 100.186 41.68L98.1159 40.45C100.366 38.38 102.556 35.08 103.456 33.31C102.526 33.49 86.3559 36.73 82.7559 37.51L82.2759 34.99C86.1159 34.54 101.446 31.45 103.726 30.91C104.356 30.76 104.956 30.58 105.316 30.37L107.086 31.75ZM134.476 28.96C134.296 29.2 133.906 29.86 133.756 30.25C132.556 33.22 130.276 37.42 127.786 40.18C124.426 43.93 120.136 47.5 115.396 49.66L113.476 47.65C118.336 45.79 122.746 42.19 125.836 38.77C127.876 36.46 130.066 32.89 130.846 30.4C129.766 30.4 120.166 30.4 119.146 30.4C118.066 30.4 116.446 30.52 116.116 30.55V27.85C116.506 27.91 118.216 28.03 119.146 28.03C120.316 28.03 129.586 28.03 130.726 28.03C131.686 28.03 132.496 27.94 132.976 27.79L134.476 28.96ZM128.176 38.62C131.416 41.32 135.406 45.52 137.446 48.01L135.376 49.84C133.216 46.99 129.706 43.15 126.466 40.3L128.176 38.62Z" fill="white"/>
<defs>
<linearGradient id="paint0_linear_1384_3" x1="0" y1="28" x2="342" y2="28" gradientUnits="userSpaceOnUse">
<stop stop-color="#5ACC72"/>
<stop offset="1" stop-color="#409151"/>
</linearGradient>
</defs>
</svg>
