<svg width="262" height="123" viewBox="0 0 262 123" fill="none" xmlns="http://www.w3.org/2000/svg">
<path d="M66.4137 75.06C65.8287 75.84 64.7887 77.075 64.2687 77.92C61.4087 82.665 55.2337 90.985 48.3437 95.795L42.8187 91.375C48.4087 88.06 53.9987 81.69 55.8837 78.05C51.6587 78.05 24.0337 78.05 20.4587 78.05C17.8587 78.05 15.5837 78.245 12.7887 78.505V70.965C15.1937 71.355 17.8587 71.615 20.4587 71.615C24.0337 71.615 52.9587 71.615 56.5987 71.615C58.1587 71.615 61.1487 71.42 62.1887 71.095L66.4137 75.06ZM40.1537 83.705C40.1537 100.605 39.2437 113.15 22.0837 122.055L15.8437 116.985C17.7937 116.335 20.0687 115.295 22.2137 113.735C31.3787 107.82 32.8087 99.76 32.8087 89.035C32.8087 87.215 32.7437 85.655 32.4837 83.705H40.1537ZM124.406 78.505C123.821 79.545 123.041 81.235 122.586 82.6C120.831 88.71 116.996 97.42 111.146 104.635C105.101 111.98 97.3013 117.96 85.0813 122.64L78.9063 117.05C91.5163 113.28 99.1863 107.495 104.971 100.865C109.716 95.34 113.551 87.215 114.721 81.885H91.7763L94.3113 75.84C97.1063 75.84 111.926 75.84 113.941 75.84C115.826 75.84 117.646 75.58 118.946 75.125L124.406 78.505ZM102.956 68.43C101.656 70.445 100.226 72.98 99.5113 74.345C95.4163 81.82 88.1363 91.115 78.2563 97.745L72.2763 93.325C83.5863 86.5 89.6313 77.595 92.6863 71.875C93.4663 70.51 94.6363 67.845 95.1563 65.895L102.956 68.43ZM150.926 110.485C150.926 104.895 150.926 82.405 150.926 74.995C150.926 72.915 150.796 70.185 150.471 68.235H158.401C158.141 70.185 157.881 72.915 157.881 74.995C157.881 82.34 157.881 101.84 157.881 108.665C157.881 112.955 159.311 114.385 166.721 114.385C173.936 114.385 180.696 113.605 187.131 112.305L186.871 119.585C181.281 120.365 174.131 120.95 166.591 120.95C153.136 120.95 150.926 117.57 150.926 110.485ZM190.316 81.755C189.731 82.535 188.951 83.835 188.431 84.81C185.506 90.205 179.981 98.785 175.041 103.725L169.191 100.28C173.741 96.12 178.226 89.62 180.111 85.98C177.121 86.565 144.621 93 136.626 94.82L135.326 87.8C143.906 86.76 175.756 80.39 181.216 79.155C182.841 78.765 184.206 78.375 185.246 77.79L190.316 81.755ZM249.986 75.255C249.531 75.905 248.491 77.595 248.036 78.7C245.436 85.005 240.496 93.975 234.971 100.215C227.756 108.47 218.201 116.4 207.996 121.145L202.536 115.425C213.066 111.395 222.881 103.595 229.251 96.445C233.606 91.505 237.961 84.42 239.521 79.48C236.986 79.48 218.396 79.48 215.861 79.48C213.326 79.48 209.751 79.74 208.711 79.87V72.265C210.011 72.46 213.846 72.655 215.861 72.655C218.851 72.655 237.181 72.655 239.846 72.655C242.316 72.655 244.461 72.395 245.631 72.005L249.986 75.255ZM235.816 95.795C242.771 101.45 251.676 110.81 256.031 116.14L249.986 121.34C245.241 114.97 237.896 106.91 230.876 100.67L235.816 95.795Z" fill="#2D6639"/>
<path d="M12.1704 41.6392C10.4421 41.6392 8.87373 41.3137 7.46511 40.6626C6.05649 39.9998 4.93788 39.0469 4.10929 37.804C3.28069 36.5492 2.86639 35.0341 2.86639 33.2585C2.86639 31.696 3.17415 30.4295 3.78968 29.4588C4.40521 28.4763 5.22789 27.7069 6.25772 27.1506C7.28755 26.5942 8.42392 26.1799 9.66681 25.9077C10.9215 25.6236 12.1822 25.3987 13.4488 25.233C15.106 25.0199 16.4495 24.8601 17.4793 24.7536C18.521 24.6352 19.2786 24.4399 19.752 24.1676C20.2374 23.8954 20.48 23.4219 20.48 22.7472V22.6051C20.48 20.8532 20.0006 19.492 19.0418 18.5213C18.0948 17.5507 16.6566 17.0653 14.7272 17.0653C12.7267 17.0653 11.1583 17.5033 10.0219 18.3793C8.88556 19.2552 8.08656 20.1903 7.62491 21.1847L3.64764 19.7642C4.35787 18.107 5.30484 16.8168 6.48855 15.8935C7.6841 14.9583 8.98618 14.3073 10.3948 13.9403C11.8153 13.5616 13.212 13.3722 14.5851 13.3722C15.4611 13.3722 16.4672 13.4787 17.6036 13.6918C18.7518 13.893 19.8586 14.3132 20.9239 14.9524C22.0011 15.5916 22.8948 16.5563 23.605 17.8466C24.3153 19.1368 24.6704 20.8651 24.6704 23.0312V41H20.48V37.3068H20.267C19.9829 37.8987 19.5094 38.532 18.8465 39.2067C18.1836 39.8814 17.3018 40.4555 16.2009 40.929C15.1001 41.4025 13.7565 41.6392 12.1704 41.6392ZM12.8096 37.875C14.4668 37.875 15.8635 37.5495 16.9999 36.8984C18.1481 36.2474 19.0122 35.407 19.5922 34.3771C20.1841 33.3473 20.48 32.2642 20.48 31.1278V27.2926C20.3025 27.5057 19.9118 27.701 19.3081 27.8786C18.7163 28.0443 18.0297 28.1922 17.2485 28.3224C16.4791 28.4408 15.7274 28.5473 14.9935 28.642C14.2715 28.7249 13.6855 28.7959 13.2357 28.8551C12.1467 28.9972 11.1287 29.228 10.1817 29.5476C9.2466 29.8554 8.48902 30.3229 7.909 30.9503C7.34082 31.5658 7.05673 32.4062 7.05673 33.4716C7.05673 34.9276 7.59532 36.0284 8.6725 36.7741C9.76151 37.508 11.1405 37.875 12.8096 37.875ZM43.3982 41.5682C40.8414 41.5682 38.6396 40.9645 36.7931 39.7571C34.9465 38.5497 33.526 36.8866 32.5317 34.7678C31.5374 32.6489 31.0402 30.2282 31.0402 27.5057C31.0402 24.7358 31.5492 22.2914 32.5672 20.1726C33.597 18.0419 35.0293 16.3788 36.8641 15.1832C38.7107 13.9759 40.865 13.3722 43.3271 13.3722C45.2448 13.3722 46.973 13.7273 48.5118 14.4375C50.0506 15.1477 51.3113 16.142 52.2938 17.4205C53.2762 18.6989 53.8859 20.1903 54.1226 21.8949H49.9323C49.6127 20.652 48.9024 19.5511 47.8016 18.5923C46.7126 17.6217 45.2448 17.1364 43.3982 17.1364C41.7646 17.1364 40.3324 17.5625 39.1013 18.4148C37.8821 19.2552 36.9292 20.4448 36.2426 21.9837C35.5679 23.5107 35.2306 25.304 35.2306 27.3636C35.2306 29.4706 35.562 31.3054 36.2249 32.8679C36.8996 34.4304 37.8466 35.6437 39.0658 36.5078C40.2968 37.3719 41.741 37.804 43.3982 37.804C44.4872 37.804 45.4756 37.6146 46.3634 37.2358C47.2512 36.857 48.0028 36.3125 48.6183 35.6023C49.2339 34.892 49.6718 34.0398 49.9323 33.0455H54.1226C53.8859 34.6553 53.2999 36.1054 52.3648 37.3956C51.4415 38.674 50.2164 39.692 48.6894 40.4496C47.1742 41.1953 45.4105 41.5682 43.3982 41.5682ZM71.3279 41.5682C68.771 41.5682 66.5693 40.9645 64.7227 39.7571C62.8762 38.5497 61.4557 36.8866 60.4614 34.7678C59.4671 32.6489 58.9699 30.2282 58.9699 27.5057C58.9699 24.7358 59.4789 22.2914 60.4969 20.1726C61.5267 18.0419 62.959 16.3788 64.7938 15.1832C66.6404 13.9759 68.7947 13.3722 71.2568 13.3722C73.1744 13.3722 74.9027 13.7273 76.4415 14.4375C77.9803 15.1477 79.241 16.142 80.2235 17.4205C81.2059 18.6989 81.8155 20.1903 82.0523 21.8949H77.8619C77.5423 20.652 76.8321 19.5511 75.7313 18.5923C74.6423 17.6217 73.1744 17.1364 71.3279 17.1364C69.6943 17.1364 68.262 17.5625 67.031 18.4148C65.8118 19.2552 64.8589 20.4448 64.1723 21.9837C63.4976 23.5107 63.1602 25.304 63.1602 27.3636C63.1602 29.4706 63.4917 31.3054 64.1546 32.8679C64.8293 34.4304 65.7762 35.6437 66.9955 36.5078C68.2265 37.3719 69.6707 37.804 71.3279 37.804C72.4169 37.804 73.4053 37.6146 74.2931 37.2358C75.1808 36.857 75.9325 36.3125 76.548 35.6023C77.1636 34.892 77.6015 34.0398 77.8619 33.0455H82.0523C81.8155 34.6553 81.2296 36.1054 80.2945 37.3956C79.3712 38.674 78.146 39.692 76.6191 40.4496C75.1039 41.1953 73.3402 41.5682 71.3279 41.5682ZM99.6127 41.5682C96.9848 41.5682 94.718 40.9882 92.8122 39.8281C90.9183 38.6562 89.4564 37.0227 88.4266 34.9276C87.4086 32.8205 86.8996 30.3703 86.8996 27.5767C86.8996 24.7831 87.4086 22.321 88.4266 20.1903C89.4564 18.0478 90.8887 16.3788 92.7235 15.1832C94.57 13.9759 96.7244 13.3722 99.1865 13.3722C100.607 13.3722 102.01 13.6089 103.395 14.0824C104.78 14.5559 106.04 15.3253 107.177 16.3906C108.313 17.4441 109.218 18.8409 109.893 20.581C110.568 22.321 110.905 24.4635 110.905 27.0085V28.7841H89.8825V25.1619H106.644C106.644 23.6231 106.336 22.25 105.721 21.0426C105.117 19.8352 104.253 18.8823 103.128 18.1839C102.016 17.4856 100.702 17.1364 99.1865 17.1364C97.5175 17.1364 96.0734 17.5507 94.8541 18.3793C93.6468 19.196 92.7175 20.2614 92.0665 21.5753C91.4155 22.8892 91.0899 24.2978 91.0899 25.8011V28.2159C91.0899 30.2756 91.445 32.0215 92.1553 33.4538C92.8773 34.8743 93.8776 35.9574 95.156 36.7031C96.4344 37.437 97.92 37.804 99.6127 37.804C100.714 37.804 101.708 37.6501 102.596 37.3423C103.495 37.0227 104.271 36.5492 104.922 35.9219C105.573 35.2827 106.076 34.4896 106.431 33.5426L110.479 34.679C110.053 36.0521 109.337 37.2595 108.331 38.3011C107.325 39.331 106.082 40.1359 104.602 40.7159C103.122 41.2841 101.459 41.5682 99.6127 41.5682ZM136.598 19.8352L132.834 20.9006C132.597 20.2732 132.248 19.6636 131.786 19.0717C131.336 18.468 130.721 17.9709 129.939 17.5803C129.158 17.1896 128.158 16.9943 126.939 16.9943C125.27 16.9943 123.879 17.379 122.766 18.1484C121.665 18.906 121.115 19.8707 121.115 21.0426C121.115 22.0843 121.494 22.907 122.251 23.5107C123.009 24.1143 124.192 24.6174 125.802 25.0199L129.851 26.0142C132.289 26.6061 134.106 27.5116 135.302 28.7308C136.497 29.9382 137.095 31.4948 137.095 33.4006C137.095 34.9631 136.645 36.3598 135.745 37.5909C134.858 38.822 133.615 39.7926 132.017 40.5028C130.419 41.2131 128.56 41.5682 126.441 41.5682C123.66 41.5682 121.357 40.9645 119.535 39.7571C117.712 38.5497 116.557 36.786 116.072 34.4659L120.049 33.4716C120.428 34.9394 121.144 36.0402 122.198 36.7741C123.263 37.508 124.654 37.875 126.37 37.875C128.324 37.875 129.874 37.4607 131.022 36.6321C132.182 35.7917 132.763 34.7855 132.763 33.6136C132.763 32.6667 132.431 31.8736 131.768 31.2344C131.105 30.5833 130.087 30.098 128.714 29.7784L124.169 28.7131C121.671 28.1212 119.836 27.2038 118.665 25.9609C117.504 24.7062 116.924 23.1378 116.924 21.2557C116.924 19.7169 117.357 18.3556 118.221 17.1719C119.097 15.9882 120.286 15.0589 121.79 14.3842C123.305 13.7095 125.021 13.3722 126.939 13.3722C129.638 13.3722 131.756 13.964 133.295 15.1477C134.846 16.3314 135.947 17.8939 136.598 19.8352ZM162.721 19.8352L158.957 20.9006C158.72 20.2732 158.371 19.6636 157.909 19.0717C157.459 18.468 156.844 17.9709 156.062 17.5803C155.281 17.1896 154.281 16.9943 153.062 16.9943C151.393 16.9943 150.002 17.379 148.889 18.1484C147.788 18.906 147.238 19.8707 147.238 21.0426C147.238 22.0843 147.617 22.907 148.374 23.5107C149.132 24.1143 150.315 24.6174 151.925 25.0199L155.974 26.0142C158.412 26.6061 160.229 27.5116 161.425 28.7308C162.62 29.9382 163.218 31.4948 163.218 33.4006C163.218 34.9631 162.768 36.3598 161.869 37.5909C160.981 38.822 159.738 39.7926 158.14 40.5028C156.542 41.2131 154.683 41.5682 152.565 41.5682C149.783 41.5682 147.48 40.9645 145.658 39.7571C143.835 38.5497 142.681 36.786 142.195 34.4659L146.172 33.4716C146.551 34.9394 147.267 36.0402 148.321 36.7741C149.386 37.508 150.777 37.875 152.494 37.875C154.447 37.875 155.997 37.4607 157.146 36.6321C158.306 35.7917 158.886 34.7855 158.886 33.6136C158.886 32.6667 158.554 31.8736 157.891 31.2344C157.228 30.5833 156.21 30.098 154.837 29.7784L150.292 28.7131C147.794 28.1212 145.959 27.2038 144.788 25.9609C143.628 24.7062 143.047 23.1378 143.047 21.2557C143.047 19.7169 143.48 18.3556 144.344 17.1719C145.22 15.9882 146.409 15.0589 147.913 14.3842C149.428 13.7095 151.144 13.3722 153.062 13.3722C155.761 13.3722 157.879 13.964 159.418 15.1477C160.969 16.3314 162.07 17.8939 162.721 19.8352Z" fill="#2D6639"/>
</svg>
