<svg width="342" height="56" viewBox="0 0 342 56" fill="none" xmlns="http://www.w3.org/2000/svg">
<rect width="342" height="56" fill="url(#paint0_linear_1380_3)"/>
<path d="M12.5487 19L14.1786 8.09091H15.9205L15.212 12.7997H20.5494L21.2525 8.09091H22.989L21.359 19H19.6225L20.3256 14.2752H14.9936L14.2905 19H12.5487ZM27.0799 19.1651C26.2915 19.1651 25.6328 18.9876 25.1037 18.6325C24.5746 18.2738 24.1982 17.7731 23.9744 17.1303C23.7507 16.4876 23.701 15.7401 23.8253 14.8878C23.9496 14.0497 24.2124 13.3182 24.6136 12.6932C25.0185 12.0646 25.5298 11.5781 26.1477 11.2337C26.7692 10.8857 27.4634 10.7116 28.2305 10.7116C29.0153 10.7116 29.6722 10.891 30.2013 11.2496C30.7305 11.6083 31.1069 12.109 31.3306 12.7518C31.5579 13.3945 31.6094 14.1456 31.4851 15.005C31.3608 15.8395 31.0945 16.5692 30.6861 17.1942C30.2812 17.8157 29.7699 18.3004 29.152 18.6484C28.5376 18.9929 27.8469 19.1651 27.0799 19.1651ZM27.1758 17.7695C27.6694 17.7695 28.0973 17.6399 28.4595 17.3807C28.8253 17.1179 29.1218 16.7681 29.3491 16.3313C29.5799 15.891 29.7344 15.408 29.8125 14.8825C29.8835 14.3746 29.8746 13.9112 29.7859 13.4922C29.6971 13.0696 29.5178 12.7322 29.2479 12.4801C28.978 12.2244 28.6069 12.0966 28.1346 12.0966C27.641 12.0966 27.2095 12.2298 26.8402 12.4961C26.4744 12.7589 26.1779 13.1104 25.9506 13.5508C25.7234 13.9876 25.5724 14.4705 25.4979 14.9996C25.4233 15.5039 25.4304 15.9673 25.5192 16.3899C25.608 16.8089 25.7873 17.1445 26.0572 17.3967C26.3306 17.6452 26.7035 17.7695 27.1758 17.7695ZM32.6223 19L33.8528 10.8182H35.4668L35.2644 12.1658H35.3656C35.6071 11.7113 35.9409 11.3562 36.367 11.1005C36.7931 10.8413 37.2779 10.7116 37.8212 10.7116C38.3645 10.7116 38.8049 10.8413 39.1422 11.1005C39.4796 11.3597 39.6998 11.7148 39.8027 12.1658H39.888C40.1436 11.7219 40.5059 11.3686 40.9746 11.1058C41.4434 10.843 41.9743 10.7116 42.5673 10.7116C43.3059 10.7116 43.8759 10.9478 44.2772 11.4201C44.682 11.8888 44.8152 12.5866 44.6767 13.5135L43.851 19H42.1678L42.9668 13.7053C43.0414 13.1584 42.9508 12.7642 42.6951 12.5227C42.4395 12.2777 42.1074 12.1552 41.699 12.1552C41.1912 12.1552 40.774 12.3097 40.4473 12.6186C40.1241 12.9276 39.927 13.3253 39.856 13.8118L39.073 19H37.4057L38.2154 13.6094C38.2793 13.169 38.1958 12.8175 37.965 12.5547C37.7342 12.2884 37.4004 12.1552 36.9636 12.1552C36.6724 12.1552 36.3901 12.2333 36.1167 12.3896C35.8468 12.5423 35.6159 12.7553 35.4242 13.0288C35.236 13.3022 35.117 13.6165 35.0673 13.9716L34.3109 19H32.6223ZM49.4694 19.1651C48.6633 19.1651 47.9921 18.9929 47.4559 18.6484C46.9232 18.3004 46.5468 17.8121 46.3266 17.1836C46.1064 16.5515 46.0603 15.8111 46.1881 14.9624C46.3124 14.1207 46.5787 13.3821 46.9871 12.7464C47.3991 12.1072 47.9175 11.6083 48.5425 11.2496C49.1675 10.891 49.8618 10.7116 50.6253 10.7116C51.1011 10.7116 51.545 10.7898 51.9569 10.946C52.3724 11.0987 52.7275 11.3402 53.0223 11.6705C53.3206 12.0007 53.5283 12.4268 53.6455 12.9489C53.7662 13.4673 53.7716 14.0941 53.6615 14.8292L53.5816 15.3991H47.0191L47.1949 14.1793H52.1114C52.1753 13.7745 52.1487 13.4141 52.0315 13.098C51.9143 12.782 51.7208 12.5334 51.4509 12.3523C51.181 12.1712 50.8437 12.0806 50.4388 12.0806C50.0233 12.0806 49.6381 12.1889 49.2829 12.4055C48.9278 12.6186 48.6331 12.892 48.3987 13.2259C48.1643 13.5597 48.0187 13.9094 47.9619 14.2752L47.7861 15.3938C47.708 15.962 47.7329 16.4237 47.8607 16.7788C47.9921 17.1303 48.214 17.3878 48.5265 17.5511C48.839 17.7145 49.2279 17.7962 49.6931 17.7962C49.9949 17.7962 50.2737 17.7553 50.5294 17.6737C50.7851 17.5884 51.0123 17.4624 51.2112 17.2955C51.4136 17.125 51.5805 16.9137 51.7119 16.6616L53.2567 16.9119C53.0684 17.3665 52.7932 17.7624 52.431 18.0998C52.0688 18.4371 51.6373 18.6999 51.1366 18.8881C50.6359 19.0728 50.0802 19.1651 49.4694 19.1651Z" fill="white" fill-opacity="0.75"/>
<path d="M28.83 24.48C28.77 24.9 28.65 25.98 28.65 26.64C28.65 28.23 28.65 30.75 28.65 32.19C28.65 34.65 28.65 44.37 28.65 46.5C28.65 48.09 27.9 48.9 26.1 48.9C24.81 48.9 23.04 48.81 21.81 48.69L21.6 46.29C22.92 46.53 24.27 46.65 25.08 46.65C25.89 46.65 26.22 46.29 26.25 45.51C26.25 43.86 26.25 33.63 26.25 32.19C26.25 31.17 26.25 28.2 26.25 26.61C26.25 25.98 26.13 24.93 26.04 24.48H28.83ZM15.36 29.55C16.2 29.64 16.95 29.7 17.91 29.7C19.68 29.7 34.83 29.7 36.6 29.7C37.29 29.7 38.31 29.67 39.03 29.55V32.04C38.25 31.98 37.35 31.98 36.63 31.98C34.83 31.98 19.74 31.98 17.91 31.98C17.01 31.98 16.14 32.01 15.36 32.07V29.55ZM22.26 36.6C20.97 39.18 18.18 42.99 16.47 44.85L14.43 43.44C16.41 41.58 18.99 38.01 20.16 35.58L22.26 36.6ZM34.8 35.61C36.39 37.53 38.79 41.28 39.99 43.44L37.77 44.67C36.57 42.33 34.32 38.58 32.76 36.69L34.8 35.61ZM45.03 35.01C45.96 35.1 47.52 35.19 49.23 35.19C51.42 35.19 63.45 35.19 65.67 35.19C67.17 35.19 68.22 35.07 68.91 35.01V37.95C68.28 37.92 67.02 37.83 65.7 37.83C63.42 37.83 51.45 37.83 49.23 37.83C47.58 37.83 45.99 37.89 45.03 37.95V35.01ZM86.7518 25.65C86.4518 26.37 86.1218 27.15 85.7018 28.44C84.7418 31.5 81.2618 42.27 79.9718 45.3L77.2718 45.39C78.7718 41.94 82.2518 31.08 83.1518 27.9C83.5418 26.52 83.6618 25.83 83.7518 25.02L86.7518 25.65ZM92.4518 35.7C94.5518 38.76 97.8518 44.82 99.0818 47.91L96.5918 49.02C95.3918 45.78 92.3318 39.54 90.1718 36.69L92.4518 35.7ZM76.1018 44.67C80.4218 44.46 91.1618 43.26 95.0318 42.69L95.6918 45.03C91.5218 45.57 80.4818 46.77 76.2518 47.19C75.5018 47.25 74.6018 47.37 73.7618 47.49L73.2818 44.73C74.1818 44.76 75.2318 44.73 76.1018 44.67Z" fill="white"/>
<defs>
<linearGradient id="paint0_linear_1380_3" x1="0" y1="28" x2="342" y2="28" gradientUnits="userSpaceOnUse">
<stop stop-color="#5ACC72"/>
<stop offset="1" stop-color="#409151"/>
</linearGradient>
</defs>
</svg>
