<svg width="218" height="122" viewBox="0 0 218 122" fill="none" xmlns="http://www.w3.org/2000/svg">
<path d="M61.4978 67.52C61.3678 68.43 60.9778 71.16 60.9778 72.655C60.9778 76.36 60.9778 81.82 60.9778 85.265C60.9778 90.53 60.9778 110.81 60.9778 115.815C60.9778 119.455 59.0928 121.47 54.8028 121.47C51.6828 121.47 47.8478 121.34 44.9228 120.95L44.2728 114.32C47.0678 114.84 49.9928 115.1 51.6178 115.1C53.3728 115.1 54.0228 114.385 54.0878 112.695C54.0878 109.705 54.0878 88.32 54.0878 85.265C54.0878 83.055 54.0878 76.36 54.0878 72.655C54.0878 71.095 53.8278 68.56 53.6328 67.52H61.4978ZM30.9478 78.18C32.8328 78.375 34.7828 78.57 36.8628 78.57C40.7628 78.57 72.8728 78.57 77.1628 78.57C78.8528 78.57 81.3228 78.44 83.0128 78.18V85.2C81.1278 85.07 78.8528 85.005 77.2278 85.005C72.9378 85.005 40.9578 85.005 36.8628 85.005C34.9128 85.005 32.7028 85.07 30.9478 85.265V78.18ZM46.7428 94.625C43.8178 100.28 37.7728 108.73 34.1978 112.63L28.4128 108.665C32.7028 104.635 38.0978 97.16 40.6978 91.765L46.7428 94.625ZM74.2378 91.7C77.6828 95.86 82.8178 104.05 85.4178 108.73L79.1778 112.175C76.5128 106.845 71.7678 98.85 68.4528 94.82L74.2378 91.7ZM95.3628 89.88C97.5728 90.075 101.668 90.27 105.178 90.27C111.418 90.27 135.078 90.27 140.408 90.27C143.528 90.27 146.128 90.01 147.753 89.88V98.2C146.323 98.135 143.268 97.94 140.473 97.94C135.078 97.94 111.418 97.94 105.178 97.94C101.538 97.94 97.6378 98.07 95.3628 98.2V89.88ZM187.125 70.315C186.41 72.07 185.565 74.085 184.655 76.945C182.38 83.965 175.295 106.065 172.5 112.695L164.7 112.955C168.145 105.025 175.23 82.665 177.31 75.45C178.155 72.265 178.48 70.51 178.675 68.56L187.125 70.315ZM199.15 91.635C203.765 98.525 210.59 111.395 213.45 118.415L206.3 121.6C203.57 114.125 197.265 100.605 192.585 94.43L199.15 91.635ZM163.14 110.68C172.305 110.29 194.6 107.82 203.31 106.52L205 113.28C195.64 114.45 172.565 116.985 163.53 117.83C161.905 118.025 159.76 118.35 157.81 118.61L156.51 110.81C158.59 110.81 161.125 110.81 163.14 110.68Z" fill="#2D6639"/>
<path d="M5.25888 41V4.63636H9.66229V20.8295H29.0515V4.63636H33.4549V41H29.0515V24.7358H9.66229V41H5.25888ZM52.782 41.5682C50.3198 41.5682 48.1596 40.9822 46.3011 39.8104C44.4545 38.6385 43.0104 36.9991 41.9688 34.892C40.9389 32.785 40.424 30.3229 40.424 27.5057C40.424 24.6648 40.9389 22.1849 41.9688 20.0661C43.0104 17.9472 44.4545 16.3018 46.3011 15.13C48.1596 13.9581 50.3198 13.3722 52.782 13.3722C55.2441 13.3722 57.3984 13.9581 59.245 15.13C61.1035 16.3018 62.5476 17.9472 63.5774 20.0661C64.6191 22.1849 65.1399 24.6648 65.1399 27.5057C65.1399 30.3229 64.6191 32.785 63.5774 34.892C62.5476 36.9991 61.1035 38.6385 59.245 39.8104C57.3984 40.9822 55.2441 41.5682 52.782 41.5682ZM52.782 37.804C54.6522 37.804 56.1911 37.3246 57.3984 36.3658C58.6058 35.407 59.4995 34.1463 60.0795 32.5838C60.6596 31.0213 60.9496 29.3286 60.9496 27.5057C60.9496 25.6828 60.6596 23.9841 60.0795 22.4098C59.4995 20.8355 58.6058 19.563 57.3984 18.5923C56.1911 17.6217 54.6522 17.1364 52.782 17.1364C50.9117 17.1364 49.3729 17.6217 48.1655 18.5923C46.9581 19.563 46.0644 20.8355 45.4844 22.4098C44.9044 23.9841 44.6143 25.6828 44.6143 27.5057C44.6143 29.3286 44.9044 31.0213 45.4844 32.5838C46.0644 34.1463 46.9581 35.407 48.1655 36.3658C49.3729 37.3246 50.9117 37.804 52.782 37.804ZM71.5364 41V13.7273H75.5847V17.9886H75.9398C76.508 16.5327 77.4254 15.4022 78.6919 14.5973C79.9585 13.7805 81.4796 13.3722 83.2551 13.3722C85.0544 13.3722 86.5518 13.7805 87.7473 14.5973C88.9547 15.4022 89.8958 16.5327 90.5705 17.9886H90.8546C91.553 16.58 92.6006 15.4614 93.9973 14.6328C95.3941 13.7924 97.0691 13.3722 99.0222 13.3722C101.461 13.3722 103.455 14.1357 105.006 15.6626C106.557 17.1778 107.332 19.5393 107.332 22.7472V41H103.142V22.7472C103.142 20.7348 102.591 19.2966 101.49 18.4325C100.389 17.5684 99.0932 17.1364 97.6017 17.1364C95.6841 17.1364 94.1986 17.7164 93.1451 18.8764C92.0916 20.0246 91.5648 21.4806 91.5648 23.2443V41H87.3034V22.321C87.3034 20.7704 86.8004 19.5215 85.7942 18.5746C84.7881 17.6158 83.4919 17.1364 81.9057 17.1364C80.8167 17.1364 79.7987 17.4264 78.8517 18.0064C77.9166 18.5864 77.159 19.3913 76.579 20.4212C76.0108 21.4392 75.7267 22.617 75.7267 23.9545V41H71.5364ZM126.428 41.5682C123.8 41.5682 121.533 40.9882 119.628 39.8281C117.734 38.6562 116.272 37.0227 115.242 34.9276C114.224 32.8205 113.715 30.3703 113.715 27.5767C113.715 24.7831 114.224 22.321 115.242 20.1903C116.272 18.0478 117.704 16.3788 119.539 15.1832C121.385 13.9759 123.54 13.3722 126.002 13.3722C127.422 13.3722 128.825 13.6089 130.21 14.0824C131.595 14.5559 132.856 15.3253 133.992 16.3906C135.128 17.4441 136.034 18.8409 136.709 20.581C137.383 22.321 137.721 24.4635 137.721 27.0085V28.7841H116.698V25.1619H133.459C133.459 23.6231 133.152 22.25 132.536 21.0426C131.932 19.8352 131.068 18.8823 129.944 18.1839C128.831 17.4856 127.517 17.1364 126.002 17.1364C124.333 17.1364 122.889 17.5507 121.67 18.3793C120.462 19.196 119.533 20.2614 118.882 21.5753C118.231 22.8892 117.905 24.2978 117.905 25.8011V28.2159C117.905 30.2756 118.26 32.0215 118.971 33.4538C119.693 34.8743 120.693 35.9574 121.971 36.7031C123.25 37.437 124.735 37.804 126.428 37.804C127.529 37.804 128.523 37.6501 129.411 37.3423C130.311 37.0227 131.086 36.5492 131.737 35.9219C132.388 35.2827 132.891 34.4896 133.246 33.5426L137.295 34.679C136.868 36.0521 136.152 37.2595 135.146 38.3011C134.14 39.331 132.897 40.1359 131.417 40.7159C129.938 41.2841 128.275 41.5682 126.428 41.5682Z" fill="#2D6639"/>
</svg>
