<svg width="673" height="121" viewBox="0 0 673 121" fill="none" xmlns="http://www.w3.org/2000/svg">
<path d="M89.7 80.95C93.3 81.35 97.9 81.55 102.95 81.55C107.75 81.55 112.8 81.25 116.4 80.85V84.95C113 85.2 107.55 85.55 102.95 85.55C97.95 85.55 93.65 85.35 89.7 85V80.95ZM91.7 101.1C91.1 103.05 90.7 104.9 90.7 106.75C90.7 110.6 94.6 113.2 102.6 113.2C109.45 113.2 115.9 112.45 119.7 111.25L119.75 115.55C116.15 116.5 109.8 117.25 102.7 117.25C92.55 117.25 86.65 113.95 86.65 107.65C86.65 105.05 87.2 102.7 87.65 100.7L91.7 101.1ZM156.15 81.9C155.5 87.1 154.5 92.95 152.95 98.3C149.9 108.55 145.9 113.85 141.3 113.85C136.8 113.85 132.35 108.75 132.35 100.45C132.35 89.6 142 80.15 154.25 80.15C165.95 80.15 173.4 88.4 173.4 98.55C173.4 109 166.5 116 154.6 117.55L152.3 113.85C153.9 113.7 155.4 113.5 156.6 113.25C163 111.8 169.3 107 169.3 98.35C169.3 90.35 163.75 83.75 154.15 83.75C143.15 83.75 136.3 92.8 136.3 100.15C136.3 106.45 139.15 109.25 141.4 109.25C143.75 109.25 146.45 105.85 149 97.4C150.45 92.65 151.5 87 152 81.8L156.15 81.9ZM213.2 86C213.2 88.05 214.85 89.7 216.85 89.7C218.9 89.7 220.5 88.05 220.5 86C220.5 84 218.9 82.35 216.85 82.35C214.85 82.35 213.2 84 213.2 86ZM210.8 86C210.8 82.65 213.5 79.95 216.85 79.95C220.2 79.95 222.95 82.65 222.95 86C222.95 89.35 220.2 92.1 216.85 92.1C213.5 92.1 210.8 89.35 210.8 86ZM180.65 102.85C181.9 101.75 182.85 100.85 184.15 99.55C186.55 97.15 190.9 91.6 194.05 87.85C196.7 84.7 199.05 84.15 202.45 87.4C205.5 90.25 209.8 94.75 212.7 97.85C216.1 101.45 221.1 106.85 224.95 111L221.5 114.65C217.95 110.35 213.55 105.2 210.3 101.55C207.4 98.3 202.8 93.35 200.7 91.25C198.75 89.4 197.8 89.55 196.1 91.65C193.7 94.55 189.5 100.05 187.25 102.8C186.2 104.1 185.15 105.65 184.35 106.65L180.65 102.85ZM233.05 94.35C234.6 94.5 237.2 94.65 240.05 94.65C243.7 94.65 263.75 94.65 267.45 94.65C269.95 94.65 271.7 94.45 272.85 94.35V99.25C271.8 99.2 269.7 99.05 267.5 99.05C263.7 99.05 243.75 99.05 240.05 99.05C237.3 99.05 234.65 99.15 233.05 99.25V94.35ZM312.823 78.7C314.073 80.55 316.323 84.1 317.473 86.5L314.623 87.8C313.373 85.15 311.673 82.15 310.023 79.9L312.823 78.7ZM319.323 76.3C320.673 78.05 322.923 81.65 324.123 83.95L321.273 85.25C319.973 82.65 318.223 79.75 316.573 77.55L319.323 76.3ZM291.423 77.95C294.373 79.6 300.123 83.45 302.323 85.05L299.923 88.45C297.573 86.65 292.123 83 289.173 81.35L291.423 77.95ZM283.923 113.7C289.423 112.75 295.623 110.8 300.723 107.9C309.023 103.15 315.573 96.65 319.623 89.6L322.073 93.7C317.723 100.4 310.823 106.9 302.823 111.55C297.773 114.5 290.873 116.85 286.273 117.8L283.923 113.7ZM283.923 89.2C286.873 90.8 292.723 94.4 294.873 95.95L292.573 99.45C290.123 97.7 284.723 94.2 281.673 92.65L283.923 89.2ZM346.923 86.45C349.773 86.75 352.473 86.9 355.423 86.9C361.423 86.9 367.573 86.45 372.623 85.4V89.25C367.323 90.15 361.223 90.55 355.373 90.55C352.473 90.55 349.873 90.45 346.973 90.25L346.923 86.45ZM364.423 77.5C364.273 78.5 364.173 79.55 364.123 80.5C364.023 82.35 363.973 85.9 363.973 88.85C363.973 96.55 364.723 104.35 364.723 109.5C364.723 113.6 362.823 117.6 356.073 117.6C349.373 117.6 345.723 114.9 345.723 110.4C345.723 106.2 349.423 102.9 356.023 102.9C364.423 102.9 370.273 107.15 374.473 110.95L372.323 114.25C367.073 109.35 362.023 105.95 355.673 105.95C351.923 105.95 349.323 107.6 349.323 110C349.323 112.6 351.773 113.95 355.423 113.95C359.623 113.95 360.823 111.85 360.823 108.5C360.823 104.9 360.173 95.55 360.173 88.95C360.173 85.5 360.123 82.35 360.123 80.6C360.123 79.7 360.073 78.4 359.923 77.5H364.423ZM339.773 77.85C339.473 78.65 339.073 80.3 338.873 81.2C337.873 85.85 336.373 95.75 336.373 101.35C336.373 103.8 336.523 105.9 336.873 108.35C337.673 106.05 338.923 103 339.773 100.95L341.823 102.55C340.573 106.05 338.723 111.15 338.223 113.6C338.073 114.3 337.973 115.3 338.023 115.85C338.073 116.35 338.123 117.1 338.173 117.6L334.623 117.9C333.673 114.3 332.723 108.8 332.723 102.05C332.723 94.7 334.423 85.15 335.023 81.05C335.223 79.85 335.323 78.55 335.373 77.45L339.773 77.85ZM382.723 76.85L384.623 74.3C387.373 75.2 390.923 76.85 392.723 78.1L390.723 81C388.973 79.75 385.473 77.95 382.723 76.85ZM378.973 85.2L380.823 82.55C383.573 83.4 387.173 84.85 389.023 85.95L387.173 88.9C385.323 87.75 381.773 86.15 378.973 85.2ZM380.423 101.1C383.073 98.7 387.023 94.6 390.273 90.85L392.273 93.35C389.423 96.85 386.123 100.75 383.023 104L380.423 101.1ZM399.873 102.65H403.723V120.05H399.873V102.65ZM379.623 106.8H424.573V110.2H379.623V106.8ZM399.423 73.8L403.023 74.85C400.423 80.4 396.273 85.75 392.173 89.25C391.573 88.55 390.123 87.25 389.223 86.65C393.323 83.55 397.173 78.75 399.423 73.8ZM395.573 82.7L399.223 79.6V100.35H395.573V82.7ZM397.823 79.5H422.323V82.6H395.973L397.823 79.5ZM395.573 99.25H423.673V102.35H395.573V99.25ZM397.073 86.25H420.823V89.05H397.073V86.25ZM397.073 92.65H420.973V95.5H397.073V92.65ZM407.323 80.7H410.923V100.45H407.323V80.7ZM409.973 74.05L414.023 74.8C412.573 77.3 410.973 79.95 409.673 81.7L406.573 80.9C407.823 79 409.223 76.05 409.973 74.05ZM450.523 74.45H454.073V86.15H450.523V74.45ZM463.423 74.45H467.023V86.15H463.423V74.45ZM460.073 95.95H463.173V119.75H460.073V95.95ZM442.423 78.7H474.873V82H442.423V78.7ZM451.673 102.1H471.573V104.8H451.673V102.1ZM451.673 109.1H471.573V111.75H451.673V109.1ZM444.923 87.9H475.073V91.2H444.923V87.9ZM443.273 87.9H446.773V98.7C446.773 104.95 446.073 113.95 442.123 120C441.573 119.35 440.123 118.15 439.323 117.7C442.923 112.1 443.273 104.3 443.273 98.65V87.9ZM449.773 94.9H472.073V97.75H453.023V120H449.773V94.9ZM470.523 94.9H473.823V116.35C473.823 118.05 473.523 118.95 472.323 119.5C471.123 120 469.223 120.05 466.273 120.05C466.123 119.2 465.773 117.95 465.323 117.1C467.473 117.15 469.223 117.15 469.773 117.1C470.373 117.05 470.523 116.9 470.523 116.35V94.9ZM438.623 74.3L442.123 75.25C439.273 83.9 434.823 92.7 429.873 98.55C429.523 97.65 428.523 95.65 427.873 94.7C432.273 89.7 436.223 82 438.623 74.3ZM434.623 86.55L438.073 83.1L438.173 83.2V120H434.623V86.55ZM481.823 82.95H522.123V106.5H518.223V86.65H485.573V106.75H481.823V82.95ZM483.823 99.95H520.473V103.6H483.823V99.95ZM499.923 74H503.823V119.95H499.923V74ZM530.923 83.1C532.823 83.05 534.423 82.95 535.423 82.85C538.623 82.5 548.073 81.6 557.273 80.8C562.773 80.35 567.423 80.05 570.773 79.95L570.823 83.95C567.923 83.9 563.573 84 561.023 84.7C553.873 87 549.523 94.65 549.523 100.55C549.523 110.3 558.673 113.45 566.773 113.75L565.323 117.85C556.073 117.5 545.573 112.6 545.573 101.4C545.573 93.65 550.323 87.25 554.873 84.55C549.523 85.1 536.773 86.35 531.373 87.5L530.923 83.1ZM563.573 90.05C564.723 91.7 566.623 94.8 567.723 97.05L565.123 98.2C563.973 95.8 562.573 93.25 561.073 91.15L563.573 90.05ZM569.023 87.95C570.273 89.6 572.223 92.65 573.373 94.85L570.823 96.1C569.623 93.7 568.123 91.2 566.573 89.1L569.023 87.95ZM608.373 76.4C608.273 77 608.123 78.95 608.123 79.55C607.973 82.8 608.073 92.45 608.123 96.45L604.323 94.5C604.323 92.3 604.273 82.35 604.123 79.6C604.023 78.25 603.873 76.85 603.773 76.4H608.373ZM581.773 83.4C588.573 83.3 601.073 82.85 608.773 82.85C614.873 82.85 621.073 82.85 623.423 82.9L623.373 86.6C620.573 86.45 616.073 86.35 608.723 86.35C600.123 86.35 589.423 86.7 581.873 87.25L581.773 83.4ZM608.023 97.9C608.023 104.6 604.923 107.95 600.373 107.95C596.173 107.95 592.123 105 592.123 99.55C592.123 94.6 596.223 90.9 600.973 90.9C606.773 90.9 609.723 95.2 609.723 100.95C609.723 107.75 606.423 115.25 594.823 118.7L591.473 115.45C600.573 113.3 605.873 108.85 605.873 100.6C605.873 96.1 603.673 94.2 600.973 94.2C598.323 94.2 595.873 96.25 595.873 99.5C595.873 102.65 598.223 104.45 600.973 104.45C604.073 104.45 606.073 101.85 605.273 96.5L608.023 97.9ZM631.743 103.85C635.943 103.85 639.343 107.25 639.343 111.45C639.343 115.65 635.943 119.05 631.743 119.05C627.543 119.05 624.093 115.65 624.093 111.45C624.093 107.25 627.543 103.85 631.743 103.85ZM631.743 116.5C634.543 116.5 636.793 114.25 636.793 111.45C636.793 108.65 634.543 106.4 631.743 106.4C628.943 106.4 626.643 108.65 626.643 111.45C626.643 114.25 628.943 116.5 631.743 116.5Z" fill="#2D6639"/>
<path d="M33.8347 16H29.4313C29.1709 14.7334 28.7151 13.6207 28.0641 12.6619C27.4249 11.7031 26.6436 10.8982 25.7203 10.2472C24.8089 9.58428 23.7968 9.08712 22.6841 8.75568C21.5714 8.42424 20.4114 8.25852 19.204 8.25852C17.0023 8.25852 15.0078 8.81487 13.2203 9.92756C11.4448 11.0402 10.0302 12.6797 8.97674 14.8459C7.93507 17.0121 7.41424 19.6695 7.41424 22.8182C7.41424 25.9669 7.93507 28.6243 8.97674 30.7905C10.0302 32.9567 11.4448 34.5961 13.2203 35.7088C15.0078 36.8215 17.0023 37.3778 19.204 37.3778C20.4114 37.3778 21.5714 37.2121 22.6841 36.8807C23.7968 36.5492 24.8089 36.058 25.7203 35.407C26.6436 34.7441 27.4249 33.9332 28.0641 32.9744C28.7151 32.0038 29.1709 30.8911 29.4313 29.6364H33.8347C33.5033 31.4948 32.8996 33.1579 32.0236 34.6257C31.1477 36.0935 30.0587 37.3423 28.7566 38.3722C27.4545 39.3902 25.9926 40.1655 24.3709 40.6982C22.7611 41.2308 21.0388 41.4972 19.204 41.4972C16.1027 41.4972 13.3446 40.7396 10.9299 39.2244C8.51509 37.7093 6.61523 35.5549 5.23029 32.7614C3.84535 29.9678 3.15288 26.6534 3.15288 22.8182C3.15288 18.983 3.84535 15.6686 5.23029 12.875C6.61523 10.0814 8.51509 7.92708 10.9299 6.41193C13.3446 4.89678 16.1027 4.1392 19.204 4.1392C21.0388 4.1392 22.7611 4.40554 24.3709 4.93821C25.9926 5.47088 27.4545 6.25213 28.7566 7.28196C30.0587 8.29995 31.1477 9.54285 32.0236 11.0107C32.8996 12.4666 33.5033 14.1297 33.8347 16ZM51.4616 41.5682C48.9995 41.5682 46.8393 40.9822 44.9808 39.8104C43.1342 38.6385 41.6901 36.9991 40.6484 34.892C39.6186 32.785 39.1037 30.3229 39.1037 27.5057C39.1037 24.6648 39.6186 22.1849 40.6484 20.0661C41.6901 17.9472 43.1342 16.3018 44.9808 15.13C46.8393 13.9581 48.9995 13.3722 51.4616 13.3722C53.9238 13.3722 56.0781 13.9581 57.9247 15.13C59.7831 16.3018 61.2273 17.9472 62.2571 20.0661C63.2988 22.1849 63.8196 24.6648 63.8196 27.5057C63.8196 30.3229 63.2988 32.785 62.2571 34.892C61.2273 36.9991 59.7831 38.6385 57.9247 39.8104C56.0781 40.9822 53.9238 41.5682 51.4616 41.5682ZM51.4616 37.804C53.3319 37.804 54.8707 37.3246 56.0781 36.3658C57.2855 35.407 58.1792 34.1463 58.7592 32.5838C59.3393 31.0213 59.6293 29.3286 59.6293 27.5057C59.6293 25.6828 59.3393 23.9841 58.7592 22.4098C58.1792 20.8355 57.2855 19.563 56.0781 18.5923C54.8707 17.6217 53.3319 17.1364 51.4616 17.1364C49.5914 17.1364 48.0526 17.6217 46.8452 18.5923C45.6378 19.563 44.7441 20.8355 44.1641 22.4098C43.584 23.9841 43.294 25.6828 43.294 27.5057C43.294 29.3286 43.584 31.0213 44.1641 32.5838C44.7441 34.1463 45.6378 35.407 46.8452 36.3658C48.0526 37.3246 49.5914 37.804 51.4616 37.804ZM70.2161 41V13.7273H74.2644V17.9886H74.6195C75.1877 16.5327 76.1051 15.4022 77.3716 14.5973C78.6382 13.7805 80.1593 13.3722 81.9348 13.3722C83.7341 13.3722 85.2315 13.7805 86.427 14.5973C87.6344 15.4022 88.5755 16.5327 89.2502 17.9886H89.5343C90.2327 16.58 91.2802 15.4614 92.677 14.6328C94.0738 13.7924 95.7488 13.3722 97.7019 13.3722C100.14 13.3722 102.135 14.1357 103.686 15.6626C105.236 17.1778 106.012 19.5393 106.012 22.7472V41H101.821V22.7472C101.821 20.7348 101.271 19.2966 100.17 18.4325C99.0691 17.5684 97.7729 17.1364 96.2814 17.1364C94.3638 17.1364 92.8783 17.7164 91.8248 18.8764C90.7712 20.0246 90.2445 21.4806 90.2445 23.2443V41H85.9831V22.321C85.9831 20.7704 85.4801 19.5215 84.4739 18.5746C83.4677 17.6158 82.1716 17.1364 80.5854 17.1364C79.4964 17.1364 78.4784 17.4264 77.5314 18.0064C76.5963 18.5864 75.8387 19.3913 75.2587 20.4212C74.6905 21.4392 74.4064 22.617 74.4064 23.9545V41H70.2161ZM113.673 41V13.7273H117.863V41H113.673ZM115.804 9.18182C114.987 9.18182 114.283 8.90365 113.691 8.3473C113.111 7.79096 112.821 7.12216 112.821 6.34091C112.821 5.55966 113.111 4.89086 113.691 4.33452C114.283 3.77817 114.987 3.5 115.804 3.5C116.621 3.5 117.319 3.77817 117.899 4.33452C118.491 4.89086 118.787 5.55966 118.787 6.34091C118.787 7.12216 118.491 7.79096 117.899 8.3473C117.319 8.90365 116.621 9.18182 115.804 9.18182ZM129.729 24.5938V41H125.538V13.7273H129.587V17.9886H129.942C130.581 16.6037 131.552 15.491 132.854 14.6506C134.156 13.7983 135.837 13.3722 137.896 13.3722C139.743 13.3722 141.359 13.7509 142.744 14.5085C144.129 15.2543 145.206 16.3906 145.975 17.9176C146.745 19.4328 147.129 21.3504 147.129 23.6705V41H142.939V23.9545C142.939 21.812 142.383 20.143 141.27 18.9474C140.157 17.7401 138.63 17.1364 136.689 17.1364C135.351 17.1364 134.156 17.4264 133.102 18.0064C132.061 18.5864 131.238 19.4328 130.634 20.5455C130.031 21.6581 129.729 23.0076 129.729 24.5938ZM165.795 51.7955C163.771 51.7955 162.031 51.535 160.575 51.0142C159.119 50.5052 157.905 49.8305 156.935 48.9901C155.976 48.1615 155.213 47.2737 154.644 46.3267L157.982 43.983C158.361 44.4801 158.841 45.0483 159.421 45.6875C160.001 46.3385 160.794 46.9008 161.8 47.3743C162.818 47.8596 164.15 48.1023 165.795 48.1023C167.997 48.1023 169.814 47.5696 171.246 46.5043C172.678 45.4389 173.394 43.7699 173.394 41.4972V35.9574H173.039C172.731 36.4545 172.294 37.0701 171.725 37.804C171.169 38.526 170.364 39.1712 169.311 39.7393C168.269 40.2957 166.86 40.5739 165.085 40.5739C162.883 40.5739 160.906 40.053 159.154 39.0114C157.414 37.9697 156.035 36.4545 155.017 34.4659C154.011 32.4773 153.508 30.0625 153.508 27.2216C153.508 24.428 153.999 21.9955 154.982 19.924C155.964 17.8407 157.331 16.2308 159.083 15.0945C160.835 13.9463 162.859 13.3722 165.156 13.3722C166.931 13.3722 168.34 13.6681 169.382 14.2599C170.435 14.84 171.24 15.5028 171.796 16.2486C172.365 16.9825 172.802 17.5862 173.11 18.0597H173.536V13.7273H177.585V41.7812C177.585 44.125 177.052 46.0308 175.987 47.4986C174.933 48.9782 173.513 50.0613 171.725 50.7479C169.95 51.4463 167.973 51.7955 165.795 51.7955ZM165.653 36.8097C167.334 36.8097 168.754 36.425 169.914 35.6555C171.074 34.8861 171.956 33.7794 172.56 32.3352C173.164 30.8911 173.465 29.1629 173.465 27.1506C173.465 25.1856 173.169 23.4515 172.578 21.9482C171.986 20.4448 171.11 19.267 169.95 18.4148C168.79 17.5625 167.357 17.1364 165.653 17.1364C163.877 17.1364 162.398 17.5862 161.214 18.4858C160.042 19.3854 159.16 20.5928 158.568 22.108C157.988 23.6231 157.698 25.304 157.698 27.1506C157.698 29.0445 157.994 30.7195 158.586 32.1754C159.19 33.6196 160.078 34.7559 161.249 35.5845C162.433 36.4013 163.901 36.8097 165.653 36.8097ZM218.636 19.8352L214.872 20.9006C214.635 20.2732 214.286 19.6636 213.824 19.0717C213.374 18.468 212.759 17.9709 211.977 17.5803C211.196 17.1896 210.196 16.9943 208.977 16.9943C207.308 16.9943 205.917 17.379 204.804 18.1484C203.703 18.906 203.153 19.8707 203.153 21.0426C203.153 22.0843 203.532 22.907 204.289 23.5107C205.047 24.1143 206.231 24.6174 207.84 25.0199L211.889 26.0142C214.327 26.6061 216.144 27.5116 217.34 28.7308C218.535 29.9382 219.133 31.4948 219.133 33.4006C219.133 34.9631 218.683 36.3598 217.784 37.5909C216.896 38.822 215.653 39.7926 214.055 40.5028C212.457 41.2131 210.598 41.5682 208.48 41.5682C205.698 41.5682 203.396 40.9645 201.573 39.7571C199.75 38.5497 198.596 36.786 198.11 34.4659L202.088 33.4716C202.466 34.9394 203.182 36.0402 204.236 36.7741C205.301 37.508 206.692 37.875 208.409 37.875C210.362 37.875 211.912 37.4607 213.061 36.6321C214.221 35.7917 214.801 34.7855 214.801 33.6136C214.801 32.6667 214.469 31.8736 213.806 31.2344C213.143 30.5833 212.125 30.098 210.752 29.7784L206.207 28.7131C203.709 28.1212 201.874 27.2038 200.703 25.9609C199.543 24.7062 198.963 23.1378 198.963 21.2557C198.963 19.7169 199.395 18.3556 200.259 17.1719C201.135 15.9882 202.324 15.0589 203.828 14.3842C205.343 13.7095 207.059 13.3722 208.977 13.3722C211.676 13.3722 213.794 13.964 215.333 15.1477C216.884 16.3314 217.985 17.8939 218.636 19.8352ZM236.52 41.5682C234.058 41.5682 231.898 40.9822 230.039 39.8104C228.193 38.6385 226.749 36.9991 225.707 34.892C224.677 32.785 224.162 30.3229 224.162 27.5057C224.162 24.6648 224.677 22.1849 225.707 20.0661C226.749 17.9472 228.193 16.3018 230.039 15.13C231.898 13.9581 234.058 13.3722 236.52 13.3722C238.982 13.3722 241.137 13.9581 242.983 15.13C244.842 16.3018 246.286 17.9472 247.316 20.0661C248.357 22.1849 248.878 24.6648 248.878 27.5057C248.878 30.3229 248.357 32.785 247.316 34.892C246.286 36.9991 244.842 38.6385 242.983 39.8104C241.137 40.9822 238.982 41.5682 236.52 41.5682ZM236.52 37.804C238.391 37.804 239.929 37.3246 241.137 36.3658C242.344 35.407 243.238 34.1463 243.818 32.5838C244.398 31.0213 244.688 29.3286 244.688 27.5057C244.688 25.6828 244.398 23.9841 243.818 22.4098C243.238 20.8355 242.344 19.563 241.137 18.5923C239.929 17.6217 238.391 17.1364 236.52 17.1364C234.65 17.1364 233.111 17.6217 231.904 18.5923C230.696 19.563 229.803 20.8355 229.223 22.4098C228.643 23.9841 228.353 25.6828 228.353 27.5057C228.353 29.3286 228.643 31.0213 229.223 32.5838C229.803 34.1463 230.696 35.407 231.904 36.3658C233.111 37.3246 234.65 37.804 236.52 37.804ZM266.354 41.5682C263.892 41.5682 261.732 40.9822 259.873 39.8104C258.027 38.6385 256.583 36.9991 255.541 34.892C254.511 32.785 253.996 30.3229 253.996 27.5057C253.996 24.6648 254.511 22.1849 255.541 20.0661C256.583 17.9472 258.027 16.3018 259.873 15.13C261.732 13.9581 263.892 13.3722 266.354 13.3722C268.816 13.3722 270.971 13.9581 272.817 15.13C274.676 16.3018 276.12 17.9472 277.15 20.0661C278.191 22.1849 278.712 24.6648 278.712 27.5057C278.712 30.3229 278.191 32.785 277.15 34.892C276.12 36.9991 274.676 38.6385 272.817 39.8104C270.971 40.9822 268.816 41.5682 266.354 41.5682ZM266.354 37.804C268.224 37.804 269.763 37.3246 270.971 36.3658C272.178 35.407 273.072 34.1463 273.652 32.5838C274.232 31.0213 274.522 29.3286 274.522 27.5057C274.522 25.6828 274.232 23.9841 273.652 22.4098C273.072 20.8355 272.178 19.563 270.971 18.5923C269.763 17.6217 268.224 17.1364 266.354 17.1364C264.484 17.1364 262.945 17.6217 261.738 18.5923C260.53 19.563 259.637 20.8355 259.057 22.4098C258.477 23.9841 258.187 25.6828 258.187 27.5057C258.187 29.3286 258.477 31.0213 259.057 32.5838C259.637 34.1463 260.53 35.407 261.738 36.3658C262.945 37.3246 264.484 37.804 266.354 37.804ZM289.299 24.5938V41H285.109V13.7273H289.157V17.9886H289.512C290.151 16.6037 291.122 15.491 292.424 14.6506C293.726 13.7983 295.407 13.3722 297.467 13.3722C299.313 13.3722 300.929 13.7509 302.314 14.5085C303.699 15.2543 304.776 16.3906 305.545 17.9176C306.315 19.4328 306.7 21.3504 306.7 23.6705V41H302.509V23.9545C302.509 21.812 301.953 20.143 300.84 18.9474C299.728 17.7401 298.201 17.1364 296.259 17.1364C294.922 17.1364 293.726 17.4264 292.673 18.0064C291.631 18.5864 290.808 19.4328 290.205 20.5455C289.601 21.6581 289.299 23.0076 289.299 24.5938ZM317.411 41.2841C316.535 41.2841 315.783 40.9704 315.156 40.343C314.528 39.7157 314.215 38.964 314.215 38.0881C314.215 37.2121 314.528 36.4605 315.156 35.8331C315.783 35.2057 316.535 34.892 317.411 34.892C318.287 34.892 319.038 35.2057 319.666 35.8331C320.293 36.4605 320.607 37.2121 320.607 38.0881C320.607 38.6681 320.459 39.2008 320.163 39.6861C319.879 40.1714 319.494 40.562 319.009 40.858C318.535 41.142 318.003 41.2841 317.411 41.2841ZM331.18 41.2841C330.304 41.2841 329.553 40.9704 328.925 40.343C328.298 39.7157 327.984 38.964 327.984 38.0881C327.984 37.2121 328.298 36.4605 328.925 35.8331C329.553 35.2057 330.304 34.892 331.18 34.892C332.056 34.892 332.808 35.2057 333.435 35.8331C334.063 36.4605 334.376 37.2121 334.376 38.0881C334.376 38.6681 334.228 39.2008 333.932 39.6861C333.648 40.1714 333.264 40.562 332.778 40.858C332.305 41.142 331.772 41.2841 331.18 41.2841ZM344.95 41.2841C344.074 41.2841 343.322 40.9704 342.695 40.343C342.067 39.7157 341.754 38.964 341.754 38.0881C341.754 37.2121 342.067 36.4605 342.695 35.8331C343.322 35.2057 344.074 34.892 344.95 34.892C345.826 34.892 346.577 35.2057 347.205 35.8331C347.832 36.4605 348.146 37.2121 348.146 38.0881C348.146 38.6681 347.998 39.2008 347.702 39.6861C347.418 40.1714 347.033 40.562 346.548 40.858C346.074 41.142 345.542 41.2841 344.95 41.2841Z" fill="#2D6639"/>
</svg>
