<svg width="230" height="123" viewBox="0 0 230 123" fill="none" xmlns="http://www.w3.org/2000/svg">
<path d="M48.455 70.055C50.47 70.315 52.745 70.445 54.89 70.445C58.855 70.445 77.445 70.445 81.15 70.445C83.165 70.445 85.635 70.315 87.65 70.055V76.945C85.57 76.815 83.165 76.75 81.15 76.75C77.445 76.75 58.855 76.75 54.955 76.75C52.745 76.75 50.34 76.815 48.455 76.945V70.055ZM40.85 86.5C42.67 86.695 44.75 86.89 46.765 86.89C50.665 86.89 85.635 86.89 89.34 86.89C90.705 86.89 93.175 86.76 94.865 86.5V93.455C93.305 93.39 91.03 93.325 89.34 93.325C85.635 93.325 50.665 93.325 46.765 93.325C44.815 93.325 42.605 93.39 40.85 93.52V86.5ZM72.765 90.14C72.765 98.46 71.53 105.09 68.67 110.55C66.395 114.97 61.39 119.845 55.735 122.705L49.495 118.155C54.305 116.205 58.985 112.5 61.52 108.535C64.77 103.465 65.485 97.225 65.485 90.14H72.765ZM106.24 89.88C108.45 90.075 112.545 90.27 116.055 90.27C122.295 90.27 145.955 90.27 151.285 90.27C154.405 90.27 157.005 90.01 158.63 89.88V98.2C157.2 98.135 154.145 97.94 151.35 97.94C145.955 97.94 122.295 97.94 116.055 97.94C112.415 97.94 108.515 98.07 106.24 98.2V89.88ZM226.1 77.92C225.385 78.83 224.67 79.61 224.215 80.325C219.21 88.515 209.915 100.085 199.125 107.95L193.86 103.075C203.35 96.51 211.085 86.89 214.53 80.78C208.81 80.78 182.68 80.78 178.325 80.78C175.725 80.78 172.54 81.04 171.24 81.17V73.695C172.995 73.955 176.05 74.215 178.325 74.215C182.03 74.215 208.94 74.215 215.635 74.215C217.845 74.215 219.665 74.02 220.835 73.63L226.1 77.92ZM193.665 108.925C189.765 105.09 182.745 98.915 179.105 96.315L184.63 91.83C187.88 94.235 194.835 99.955 199.71 104.57C203.87 108.665 208.94 114.06 211.93 117.7L205.69 122.64C203.155 119.13 197.825 113.215 193.665 108.925Z" fill="#2D6639"/>
<path d="M2.77415 8.54261V4.63636H30.0469V8.54261H18.6122V41H14.2088V8.54261H2.77415ZM40.465 24.5938V41H36.2747V4.63636H40.465V17.9886H40.8201C41.4593 16.58 42.4181 15.4614 43.6966 14.6328C44.9868 13.7924 46.7032 13.3722 48.8457 13.3722C50.7041 13.3722 52.3317 13.745 53.7285 14.4908C55.1253 15.2247 56.2084 16.3551 56.9778 17.8821C57.7591 19.3973 58.1497 21.3267 58.1497 23.6705V41H53.9593V23.9545C53.9593 21.7884 53.3971 20.1134 52.2725 18.9297C51.1599 17.7341 49.6151 17.1364 47.6383 17.1364C46.2652 17.1364 45.0342 17.4264 43.9451 18.0064C42.868 18.5864 42.0157 19.4328 41.3883 20.5455C40.7728 21.6581 40.465 23.0076 40.465 24.5938ZM77.2504 41.5682C74.6225 41.5682 72.3557 40.9882 70.4499 39.8281C68.556 38.6562 67.0941 37.0227 66.0643 34.9276C65.0463 32.8205 64.5373 30.3703 64.5373 27.5767C64.5373 24.7831 65.0463 22.321 66.0643 20.1903C67.0941 18.0478 68.5264 16.3788 70.3612 15.1832C72.2077 13.9759 74.3621 13.3722 76.8242 13.3722C78.2447 13.3722 79.6474 13.6089 81.0323 14.0824C82.4173 14.5559 83.6779 15.3253 84.8143 16.3906C85.9506 17.4441 86.8562 18.8409 87.5309 20.581C88.2056 22.321 88.543 24.4635 88.543 27.0085V28.7841H67.5202V25.1619H84.2816C84.2816 23.6231 83.9738 22.25 83.3583 21.0426C82.7546 19.8352 81.8905 18.8823 80.766 18.1839C79.6533 17.4856 78.3394 17.1364 76.8242 17.1364C75.1552 17.1364 73.7111 17.5507 72.4918 18.3793C71.2844 19.196 70.3552 20.2614 69.7042 21.5753C69.0531 22.8892 68.7276 24.2978 68.7276 25.8011V28.2159C68.7276 30.2756 69.0827 32.0215 69.793 33.4538C70.515 34.8743 71.5153 35.9574 72.7937 36.7031C74.0721 37.437 75.5576 37.804 77.2504 37.804C78.3512 37.804 79.3455 37.6501 80.2333 37.3423C81.1329 37.0227 81.9083 36.5492 82.5593 35.9219C83.2103 35.2827 83.7134 34.4896 84.0685 33.5426L88.1168 34.679C87.6907 36.0521 86.9746 37.2595 85.9684 38.3011C84.9622 39.331 83.7193 40.1359 82.2397 40.7159C80.7601 41.2841 79.0969 41.5682 77.2504 41.5682ZM94.9173 41V13.7273H98.9656V17.9886H99.3207C99.8888 16.5327 100.806 15.4022 102.073 14.5973C103.339 13.7805 104.86 13.3722 106.636 13.3722C108.435 13.3722 109.933 13.7805 111.128 14.5973C112.336 15.4022 113.277 16.5327 113.951 17.9886H114.235C114.934 16.58 115.981 15.4614 117.378 14.6328C118.775 13.7924 120.45 13.3722 122.403 13.3722C124.842 13.3722 126.836 14.1357 128.387 15.6626C129.937 17.1778 130.713 19.5393 130.713 22.7472V41H126.522V22.7472C126.522 20.7348 125.972 19.2966 124.871 18.4325C123.77 17.5684 122.474 17.1364 120.983 17.1364C119.065 17.1364 117.579 17.7164 116.526 18.8764C115.472 20.0246 114.946 21.4806 114.946 23.2443V41H110.684V22.321C110.684 20.7704 110.181 19.5215 109.175 18.5746C108.169 17.6158 106.873 17.1364 105.287 17.1364C104.198 17.1364 103.18 17.4264 102.233 18.0064C101.297 18.5864 100.54 19.3913 99.9599 20.4212C99.3917 21.4392 99.1076 22.617 99.1076 23.9545V41H94.9173ZM149.809 41.5682C147.181 41.5682 144.914 40.9882 143.009 39.8281C141.115 38.6562 139.653 37.0227 138.623 34.9276C137.605 32.8205 137.096 30.3703 137.096 27.5767C137.096 24.7831 137.605 22.321 138.623 20.1903C139.653 18.0478 141.085 16.3788 142.92 15.1832C144.766 13.9759 146.921 13.3722 149.383 13.3722C150.803 13.3722 152.206 13.6089 153.591 14.0824C154.976 14.5559 156.237 15.3253 157.373 16.3906C158.509 17.4441 159.415 18.8409 160.089 20.581C160.764 22.321 161.102 24.4635 161.102 27.0085V28.7841H140.079V25.1619H156.84C156.84 23.6231 156.532 22.25 155.917 21.0426C155.313 19.8352 154.449 18.8823 153.325 18.1839C152.212 17.4856 150.898 17.1364 149.383 17.1364C147.714 17.1364 146.27 17.5507 145.05 18.3793C143.843 19.196 142.914 20.2614 142.263 21.5753C141.612 22.8892 141.286 24.2978 141.286 25.8011V28.2159C141.286 30.2756 141.641 32.0215 142.352 33.4538C143.074 34.8743 144.074 35.9574 145.352 36.7031C146.631 37.437 148.116 37.804 149.809 37.804C150.91 37.804 151.904 37.6501 152.792 37.3423C153.692 37.0227 154.467 36.5492 155.118 35.9219C155.769 35.2827 156.272 34.4896 156.627 33.5426L160.675 34.679C160.249 36.0521 159.533 37.2595 158.527 38.3011C157.521 39.331 156.278 40.1359 154.798 40.7159C153.319 41.2841 151.656 41.5682 149.809 41.5682Z" fill="#2D6639"/>
</svg>
