<svg width="342" height="56" viewBox="0 0 342 56" fill="none" xmlns="http://www.w3.org/2000/svg">
<rect width="342" height="56" fill="url(#paint0_linear_1383_2)"/>
<path d="M16.4382 10.5717L16.6619 9.09091H25.174L24.9503 10.5717H21.5572L20.1509 20H18.4197L19.8313 10.5717H16.4382ZM27.6443 15.158L26.9252 20H25.2366L26.8666 9.09091H28.5285L27.9213 13.1658H28.0225C28.2746 12.7148 28.6191 12.3597 29.0558 12.1005C29.4926 11.8413 30.0306 11.7116 30.6698 11.7116C31.2274 11.7116 31.6997 11.8288 32.0867 12.0632C32.4738 12.294 32.749 12.6385 32.9124 13.0966C33.0793 13.5547 33.113 14.1211 33.0136 14.7958L32.2306 20H30.542L31.2931 15.0142C31.3783 14.4283 31.2931 13.9737 31.0374 13.6506C30.7817 13.3239 30.3875 13.1605 29.8548 13.1605C29.4891 13.1605 29.1499 13.2386 28.8374 13.3949C28.5249 13.5511 28.2639 13.7784 28.0544 14.0767C27.8485 14.375 27.7117 14.7354 27.6443 15.158ZM37.8502 20.1651C37.0441 20.1651 36.373 19.9929 35.8367 19.6484C35.3041 19.3004 34.9276 18.8121 34.7075 18.1836C34.4873 17.5515 34.4411 16.8111 34.569 15.9624C34.6933 15.1207 34.9596 14.3821 35.368 13.7464C35.7799 13.1072 36.2984 12.6083 36.9234 12.2496C37.5484 11.891 38.2426 11.7116 39.0061 11.7116C39.482 11.7116 39.9259 11.7898 40.3378 11.946C40.7533 12.0987 41.1084 12.3402 41.4031 12.6705C41.7014 13.0007 41.9092 13.4268 42.0264 13.9489C42.1471 14.4673 42.1524 15.0941 42.0423 15.8292L41.9624 16.3991H35.3999L35.5757 15.1793H40.4923C40.5562 14.7745 40.5296 14.4141 40.4124 14.098C40.2952 13.782 40.1017 13.5334 39.8318 13.3523C39.5619 13.1712 39.2245 13.0806 38.8197 13.0806C38.4042 13.0806 38.0189 13.1889 37.6638 13.4055C37.3087 13.6186 37.0139 13.892 36.7796 14.2259C36.5452 14.5597 36.3996 14.9094 36.3428 15.2752L36.167 16.3938C36.0889 16.962 36.1137 17.4237 36.2416 17.7788C36.373 18.1303 36.5949 18.3878 36.9074 18.5511C37.2199 18.7145 37.6088 18.7962 38.074 18.7962C38.3758 18.7962 38.6546 18.7553 38.9102 18.6737C39.1659 18.5884 39.3932 18.4624 39.5921 18.2955C39.7945 18.125 39.9614 17.9137 40.0928 17.6616L41.6375 17.9119C41.4493 18.3665 41.1741 18.7624 40.8119 19.0998C40.4497 19.4371 40.0182 19.6999 39.5175 19.8881C39.0168 20.0728 38.461 20.1651 37.8502 20.1651ZM43.1663 20L44.3968 11.8182H46.0107L45.8083 13.1658H45.9095C46.151 12.7113 46.4848 12.3562 46.911 12.1005C47.3371 11.8413 47.8218 11.7116 48.3651 11.7116C48.9085 11.7116 49.3488 11.8413 49.6862 12.1005C50.0235 12.3597 50.2437 12.7148 50.3467 13.1658H50.4319C50.6876 12.7219 51.0498 12.3686 51.5186 12.1058C51.9873 11.843 52.5182 11.7116 53.1112 11.7116C53.8499 11.7116 54.4198 11.9478 54.8211 12.4201C55.2259 12.8888 55.3591 13.5866 55.2206 14.5135L54.395 20H52.7117L53.5107 14.7053C53.5853 14.1584 53.4948 13.7642 53.2391 13.5227C52.9834 13.2777 52.6514 13.1552 52.243 13.1552C51.7352 13.1552 51.3179 13.3097 50.9912 13.6186C50.6681 13.9276 50.471 14.3253 50.3999 14.8118L49.6169 20H47.9497L48.7593 14.6094C48.8232 14.169 48.7398 13.8175 48.509 13.5547C48.2781 13.2884 47.9443 13.1552 47.5075 13.1552C47.2164 13.1552 46.934 13.2333 46.6606 13.3896C46.3907 13.5423 46.1599 13.7553 45.9681 14.0288C45.7799 14.3022 45.661 14.6165 45.6112 14.9716L44.8548 20H43.1663ZM60.0133 20.1651C59.2072 20.1651 58.536 19.9929 57.9998 19.6484C57.4672 19.3004 57.0907 18.8121 56.8706 18.1836C56.6504 17.5515 56.6042 16.8111 56.7321 15.9624C56.8564 15.1207 57.1227 14.3821 57.5311 13.7464C57.943 13.1072 58.4615 12.6083 59.0865 12.2496C59.7115 11.891 60.4057 11.7116 61.1692 11.7116C61.6451 11.7116 62.089 11.7898 62.5009 11.946C62.9164 12.0987 63.2715 12.3402 63.5662 12.6705C63.8645 13.0007 64.0723 13.4268 64.1895 13.9489C64.3102 14.4673 64.3155 15.0941 64.2054 15.8292L64.1255 16.3991H57.563L57.7388 15.1793H62.6554C62.7193 14.7745 62.6926 14.4141 62.5755 14.098C62.4583 13.782 62.2647 13.5334 61.9949 13.3523C61.725 13.1712 61.3876 13.0806 60.9828 13.0806C60.5673 13.0806 60.182 13.1889 59.8269 13.4055C59.4718 13.6186 59.177 13.892 58.9426 14.2259C58.7083 14.5597 58.5627 14.9094 58.5059 15.2752L58.3301 16.3938C58.252 16.962 58.2768 17.4237 58.4047 17.7788C58.536 18.1303 58.758 18.3878 59.0705 18.5511C59.383 18.7145 59.7718 18.7962 60.237 18.7962C60.5389 18.7962 60.8176 18.7553 61.0733 18.6737C61.329 18.5884 61.5563 18.4624 61.7551 18.2955C61.9576 18.125 62.1245 17.9137 62.2559 17.6616L63.8006 17.9119C63.6124 18.3665 63.3372 18.7624 62.975 19.0998C62.6127 19.4371 62.1813 19.6999 61.6806 19.8881C61.1799 20.0728 60.6241 20.1651 60.0133 20.1651Z" fill="white" fill-opacity="0.75"/>
<path d="M28.42 26.83C29.29 26.92 30.16 26.98 31.15 26.98C32.89 26.98 41.62 26.98 43.3 26.98C44.14 26.98 45.22 26.92 46.09 26.83V29.32C45.19 29.26 44.14 29.2 43.3 29.2C41.62 29.2 32.89 29.2 31.18 29.2C30.19 29.2 29.2 29.26 28.42 29.32V26.83ZM24.85 34.36C25.66 34.45 26.53 34.48 27.46 34.48C29.2 34.48 45.49 34.48 47.08 34.48C47.71 34.48 48.7 34.45 49.45 34.36V36.82C48.76 36.79 47.83 36.76 47.08 36.76C45.49 36.76 29.2 36.76 27.46 36.76C26.56 36.76 25.66 36.79 24.85 36.85V34.36ZM38.98 35.56C38.98 39.34 38.5 42.46 37.15 44.98C36.07 46.99 33.79 49.12 31.27 50.44L29.05 48.82C31.36 47.83 33.52 46.12 34.69 44.2C36.19 41.83 36.43 38.89 36.46 35.59L38.98 35.56ZM55.03 36.01C55.96 36.1 57.52 36.19 59.23 36.19C61.42 36.19 73.45 36.19 75.67 36.19C77.17 36.19 78.22 36.07 78.91 36.01V38.95C78.28 38.92 77.02 38.83 75.7 38.83C73.42 38.83 61.45 38.83 59.23 38.83C57.58 38.83 55.99 38.89 55.03 38.95V36.01ZM109.84 29.98C109.54 30.31 109.27 30.64 109.09 30.91C106.84 34.6 102.7 39.88 97.39 43.72L95.53 42.04C100.33 38.71 104.2 33.85 105.79 31C103.09 31 89.86 31 88.15 31C86.95 31 85.66 31.09 85.09 31.15V28.48C85.9 28.6 87.1 28.69 88.15 28.69C89.68 28.69 103.03 28.69 106.03 28.69C106.84 28.69 107.53 28.63 107.95 28.48L109.84 29.98ZM95.71 44.23C93.91 42.43 90.46 39.46 88.87 38.32L90.79 36.76C92.17 37.75 95.65 40.6 97.81 42.7C99.7 44.59 102.04 47.05 103.33 48.61L101.14 50.35C100.03 48.82 97.63 46.18 95.71 44.23Z" fill="white"/>
<defs>
<linearGradient id="paint0_linear_1383_2" x1="0" y1="28" x2="342" y2="28" gradientUnits="userSpaceOnUse">
<stop stop-color="#5ACC72"/>
<stop offset="1" stop-color="#409151"/>
</linearGradient>
</defs>
</svg>
