<svg width="313" height="36" viewBox="0 0 313 36" fill="none" xmlns="http://www.w3.org/2000/svg">
<path d="M13.08 25.24H13.04C9.88 25.2 8 25.16 6.28 25.16C5 25.16 3.76 25.16 2.12 25.24C1.28 25.28 0.32 24.64 0.32 23.32C0.32 22.4 0.88 21.44 1.96 21.44H2.04C3.6 21.48 5.44 21.48 7.36 21.48C9.32 21.48 11.28 21.48 13.04 21.44H13.08C14.28 21.44 14.84 22.4 14.84 23.32C14.84 24.28 14.24 25.24 13.08 25.24ZM28.3006 34.28L28.3806 23.4C26.5806 26.16 24.3406 28.8 21.5006 31.08C21.1006 31.4 20.6606 31.52 20.2606 31.52C19.3806 31.52 18.6206 30.84 18.6206 30.08C18.6206 29.64 18.8606 29.2 19.3806 28.8C22.9006 26.24 25.6606 23.4 27.7406 20L21.4206 20.16H21.3806C20.4606 20.16 19.9806 19.48 19.9806 18.8C19.9806 18.08 20.5006 17.32 21.4206 17.32L28.3806 17.4L28.3006 14.56C28.2606 13.76 28.9006 13.04 29.8606 13.04C30.6606 13.04 31.4206 13.52 31.4206 14.48V14.56L31.3006 17.4L37.7006 17.32C38.6206 17.32 39.1006 18.04 39.1006 18.76C39.1006 19.48 38.6606 20.16 37.7406 20.16H37.7006L31.3006 20L31.3406 23.36C31.5806 22.92 32.0606 22.64 32.6206 22.64C33.7406 22.64 36.9806 24.64 38.0606 25.64C38.4606 26.04 38.6606 26.48 38.6606 26.88C38.6606 27.76 37.9006 28.6 37.0606 28.6C36.7006 28.6 36.3406 28.44 35.9806 28.08C34.7406 26.76 33.0206 25.64 31.7806 25.04C31.5806 24.96 31.4606 24.84 31.3406 24.72L31.4206 34.32C31.4206 35.24 30.6606 35.72 29.8606 35.72C29.1006 35.72 28.3006 35.24 28.3006 34.28ZM54.9006 24C49.5806 32.08 40.3006 35.2 38.4206 35.2C37.2206 35.2 36.5406 34.36 36.5406 33.52C36.5406 32.92 36.9406 32.28 37.8206 32.08C44.0206 30.52 48.5006 27.16 52.0206 21.96C52.4606 21.32 52.9806 21.08 53.4606 21.08C54.3806 21.08 55.2206 21.92 55.2206 22.96C55.2206 23.28 55.1406 23.64 54.9006 24ZM54.1406 12.24C54.1406 14.64 44.2206 23.24 40.9806 23.24C39.9406 23.24 39.2606 22.44 39.2606 21.6C39.2606 21.08 39.5806 20.52 40.2606 20.24C45.1006 18.16 48.2206 15.16 51.0206 11.24C51.4206 10.68 51.9406 10.44 52.4206 10.44C53.3006 10.44 54.1406 11.28 54.1406 12.24ZM53.1806 3.6C49.1006 8.96 42.7406 12.32 41.3006 12.32C40.2606 12.32 39.6206 11.52 39.6206 10.72C39.6206 10.16 39.9006 9.64 40.5806 9.32C45.4206 7.08 48.0206 4.56 50.4606 1.52C50.8606 1 51.3806 0.759998 51.8206 0.759998C52.7406 0.759998 53.5406 1.64 53.5406 2.56C53.5406 2.92 53.4206 3.28 53.1806 3.6ZM36.6606 4.44C31.3006 6.44 21.9006 6.8 21.6606 6.8C20.6606 6.8 20.2206 6.08 20.2206 5.36C20.2206 4.6 20.7006 3.84 21.5806 3.84C26.5806 3.76 31.7806 2.92 35.8206 1.48C36.0206 1.4 36.1806 1.4 36.3406 1.4C37.2206 1.4 37.8206 2.16 37.8206 2.96C37.8206 3.52 37.5006 4.12 36.6606 4.44ZM35.1006 14.16C34.7406 14.6 34.3006 14.76 33.8606 14.76C33.1006 14.76 32.3806 14.24 32.3806 13.6C32.3806 13.36 32.5006 13.12 32.7006 12.84C34.1006 11.12 35.1006 8.96 35.8606 7.08C36.0606 6.6 36.5006 6.4 36.9806 6.4C37.8206 6.4 38.7806 7 38.7806 7.84C38.7806 8.36 37.0606 11.8 35.1006 14.16ZM26.1006 12.04C26.1006 12.92 25.2606 13.64 24.4606 13.64C24.0206 13.64 23.6206 13.4 23.3806 12.84C22.8206 11.44 22.3006 11 21.7006 10.28C21.4606 10.04 21.3806 9.76 21.3806 9.52C21.3806 8.84 22.1806 8.24 22.9806 8.24C24.3806 8.24 26.1006 11.2 26.1006 12.04ZM31.7006 11.04C31.7006 11.96 30.8206 12.56 30.0606 12.56C29.5006 12.56 29.0206 12.28 28.8606 11.6C28.5406 10.16 28.1006 9.52 27.6606 8.72C27.5806 8.56 27.5006 8.4 27.5006 8.24C27.5006 7.56 28.3006 7.12 29.0206 7.12C30.6206 7.12 31.7006 10.2 31.7006 11.04ZM92.9006 5.96H82.0206C82.0206 7.08 81.9806 8.88 81.9806 10.72C83.9406 10.72 85.8606 10.72 87.4606 10.76C90.1006 10.8 92.3406 12.16 92.4206 15.16C92.5006 17.56 92.5406 20.08 92.5406 22.56C92.5406 24.72 92.5006 26.84 92.4206 28.8C92.3406 31.64 90.5406 33.56 87.2606 33.68C84.2606 33.8 80.7406 33.84 77.2606 33.84C73.7806 33.84 70.3806 33.8 67.5406 33.68C63.9406 33.56 62.1806 31.84 62.1006 28.88C62.0606 26.72 62.0206 24.68 62.0206 22.68C62.0206 20.2 62.0606 17.76 62.1006 15.12C62.1406 12.56 64.0206 10.8 67.1806 10.76C68.5006 10.76 69.9806 10.72 71.5806 10.72C71.6206 9.92 71.6206 9.12 71.6206 8.32C71.6206 7.48 71.6206 6.68 71.5806 5.96H61.5006C60.4606 5.96 59.9406 5.2 59.9406 4.44C59.9406 3.68 60.4606 2.92 61.5006 2.92H92.9006C93.9006 2.92 94.4206 3.68 94.4206 4.44C94.4206 5.2 93.9006 5.96 92.9006 5.96ZM78.7806 13.4H74.6606C74.5006 18.36 73.3806 23.28 68.2206 25.92C67.7806 26.12 67.4206 26.24 67.0606 26.24C66.0606 26.24 65.4606 25.48 65.4606 24.72C65.4606 24.16 65.7406 23.64 66.4206 23.36C70.7806 21.44 71.5006 17 71.6606 13.44C70.5006 13.44 69.3806 13.48 68.4206 13.48C65.8606 13.52 65.3406 14.4 65.3006 16.36C65.2606 18.2 65.2206 20.36 65.2206 22.56C65.2206 24.36 65.2606 26.16 65.3006 27.8C65.3806 29.84 66.1006 30.56 68.7806 30.64C70.9806 30.72 73.9406 30.76 77.0606 30.76C80.1406 30.76 83.3806 30.72 85.9806 30.64C88.4206 30.56 89.1406 29.48 89.1806 27.72C89.2606 25.88 89.2606 24 89.2606 22.04C89.2606 20.12 89.2606 18.16 89.1806 16.28C89.0606 13.4 88.3406 13.4 81.7806 13.4C81.7406 16.32 81.7406 20.24 81.7406 20.64C81.7406 21.2 81.9006 22.04 83.3006 22.04C84.8606 22.04 85.2206 21.48 85.3406 19.92C85.3806 19.08 86.0206 18.72 86.7006 18.72C87.5006 18.72 88.3406 19.2 88.3406 20.08V20.16C88.0606 23.92 86.3006 24.84 83.2206 24.84C82.1406 24.84 78.7406 24.76 78.7406 21C78.7406 20.56 78.7806 16.44 78.7806 13.4ZM74.8206 10.72H78.7406C78.7406 8.88 78.7806 7.08 78.7806 5.96H74.8206V10.72ZM122.821 17.32H112.581C111.741 17.32 111.301 16.76 111.261 16.12C106.181 21.72 101.541 23.04 100.981 23.04C100.101 23.04 99.4206 22.28 99.4206 21.52C99.4206 21 99.7806 20.48 100.581 20.2C103.101 19.36 105.341 17.84 107.301 16.08C106.381 15.52 105.501 15.16 104.701 14.92C104.101 14.72 103.821 14.28 103.821 13.8C103.821 13.08 104.421 12.28 105.301 12.28C105.781 12.28 107.741 13.04 109.261 14.08C109.861 13.4 110.421 12.72 110.941 12C109.981 11.4 109.061 11.08 108.221 10.8C107.621 10.6 107.341 10.16 107.341 9.68C107.341 8.96 107.941 8.16 108.821 8.16C109.821 8.16 111.741 9.28 112.421 9.72C112.541 9.48 113.781 7.28 113.781 6.76C113.781 6.32 113.341 6.16 112.861 6.16H110.901C110.141 6.16 109.301 6.16 108.541 6.2C108.381 6.44 103.461 13.36 101.221 13.36C100.341 13.36 99.6606 12.72 99.6606 11.96C99.6606 11.52 99.9406 11 100.541 10.56C103.501 8.4 106.061 5.24 107.821 1.56C108.141 0.879999 108.661 0.639999 109.181 0.639999C109.941 0.639999 110.741 1.28 110.741 2.16C110.741 2.44 110.701 2.64 110.021 3.8C111.501 3.76 113.101 3.72 114.061 3.72H114.141C116.301 3.72 117.181 4.84 117.181 6.16C117.181 8.2 113.661 13.2 112.461 14.72H122.821C123.701 14.72 124.101 15.36 124.101 16C124.101 16.68 123.701 17.32 122.821 17.32ZM127.301 5.76L122.981 5.8C122.061 5.8 121.581 5.16 121.581 4.48C121.581 3.12 122.781 3.12 124.141 3.12C125.821 3.12 128.061 3.16 128.861 3.16C131.141 3.16 132.141 4.28 132.141 5.56C132.141 6.2 131.901 6.92 131.421 7.52C130.661 8.56 128.061 11.56 126.461 13.16C128.381 15 130.701 16.64 133.461 17.96C134.181 18.32 134.461 18.88 134.461 19.4C134.461 20.28 133.701 21.16 132.621 21.16C132.301 21.16 131.941 21.08 131.541 20.88C122.821 16.28 117.021 5.28 117.021 3.88C117.021 3 117.781 2.44 118.541 2.44C119.021 2.44 119.541 2.68 119.781 3.28C120.941 6.04 122.461 8.72 124.501 11.12C125.541 9.96 128.221 6.92 128.221 6.28C128.221 5.92 127.781 5.76 127.301 5.76ZM128.741 23.16L119.021 23.12V26.84L119.061 30.12V30.2C119.061 32.52 117.461 35.04 113.261 35.04C110.741 35.04 109.381 34.48 109.381 33.08C109.381 32.32 109.901 31.6 110.781 31.6C110.901 31.6 111.021 31.6 111.181 31.64C111.901 31.8 112.581 31.92 113.181 31.92C114.741 31.92 115.861 31.28 115.861 29.48V23.12L107.061 23.16C106.141 23.16 105.701 22.48 105.701 21.76C105.701 21.08 106.141 20.4 107.061 20.4H128.741C129.621 20.4 130.061 21.08 130.061 21.76C130.061 22.48 129.621 23.16 128.741 23.16ZM111.701 26.6C111.701 28.44 104.741 33.32 102.941 33.32C101.941 33.32 101.221 32.52 101.221 31.72C101.221 31.16 101.581 30.6 102.341 30.32C104.861 29.4 107.261 27.76 108.981 25.52C109.301 25.12 109.661 24.96 110.061 24.96C110.861 24.96 111.701 25.72 111.701 26.6ZM130.261 33.12C129.821 33.12 129.381 32.96 129.021 32.48C127.461 30.56 124.861 29.04 122.501 27.88C121.941 27.6 121.661 27.12 121.661 26.64C121.661 25.92 122.301 25.16 123.181 25.16C124.101 25.16 128.981 27.56 131.381 29.96C131.821 30.4 131.981 30.88 131.981 31.32C131.981 32.28 131.141 33.12 130.261 33.12ZM168.541 13.04C168.381 13.04 168.221 13.04 168.061 13C166.621 12.68 165.061 12.48 163.461 12.48C161.861 12.48 160.181 12.68 158.461 13.12C158.341 13.16 158.181 13.16 158.061 13.16C157.181 13.16 156.541 12.36 156.541 11.52C156.541 10.88 156.941 10.2 157.941 9.96C159.901 9.48 162.061 9.24 164.061 9.24C168.421 9.24 170.141 9.88 170.141 11.44C170.141 12.28 169.541 13.04 168.541 13.04ZM170.061 31.36C168.541 31.76 166.741 31.96 164.901 31.96C158.981 31.96 155.901 29.56 155.901 28.04C155.901 27.12 156.661 26.32 157.581 26.32C157.981 26.32 158.421 26.48 158.821 26.84C160.021 27.96 161.981 28.36 164.021 28.36C165.861 28.36 167.821 28.04 169.341 27.72C169.541 27.68 169.741 27.64 169.941 27.64C171.061 27.64 171.621 28.48 171.621 29.36C171.621 30.2 171.101 31.08 170.061 31.36ZM147.581 33.84C145.181 33.84 144.381 27.28 144.381 23.76C144.381 22.16 144.501 20.56 144.661 19C145.141 14.4 146.141 10.08 146.501 7.64C146.661 6.52 147.421 6.08 148.181 6.08C148.981 6.08 149.821 6.64 149.821 7.56C149.821 7.64 149.821 7.76 149.781 7.88C149.301 10.32 148.261 14.76 147.781 18.68C147.621 20.04 147.501 21.36 147.501 22.56C147.501 22.96 147.541 25.56 148.021 25.56C148.101 25.56 148.221 25.4 148.341 25.16C148.421 24.96 149.221 23.48 149.381 23.2C149.701 22.68 150.141 22.48 150.541 22.48C151.261 22.48 151.941 23.16 151.941 23.92C151.941 24.12 151.901 24.36 151.781 24.56C149.461 28.72 149.221 30.44 149.221 31.8C149.221 33.48 148.101 33.84 147.581 33.84ZM208.221 26.84C202.381 31.72 194.261 32.48 194.101 32.48C192.781 32.48 192.101 31.64 192.101 30.76C192.101 29.88 192.741 29 193.981 28.84C204.781 27.32 209.181 22.12 209.181 18.28C209.181 15.16 206.221 12.6 201.421 12.6C197.661 12.6 193.621 14.36 191.061 15.6C189.261 16.48 187.381 17.48 185.381 18.4C184.981 18.6 184.581 18.68 184.221 18.68C183.061 18.68 182.341 17.76 182.341 16.8C182.341 16.08 182.741 15.36 183.701 14.96C185.461 14.24 187.501 13.32 189.661 12.44C195.741 9.96 199.141 9.52 201.501 9.52C209.461 9.52 212.821 14.64 212.821 18.48C212.821 21.4 211.141 24.4 208.221 26.84ZM251.101 23.12C250.381 23.12 249.661 22.64 249.461 21.64C248.861 18.4 247.061 15.28 244.821 13.72C244.381 13.4 244.181 13 244.181 12.6C244.181 11.84 244.861 11.08 245.781 11.08C248.061 11.08 253.061 17.48 253.061 21.04C253.061 22.36 252.061 23.12 251.101 23.12ZM231.061 30.24C227.781 30.24 223.701 25.6 223.101 15.88C222.981 13.96 222.901 13.16 222.901 12.12C222.901 11.44 222.901 9.64 224.741 9.64C226.181 9.64 226.421 10.76 226.421 12.48C226.421 12.96 226.381 13.32 226.381 13.84C226.381 24.68 230.621 26.44 231.181 26.44C231.701 26.44 232.541 26.08 233.941 22.92C234.261 22.2 234.821 21.92 235.341 21.92C236.261 21.92 237.181 22.68 237.181 23.6C237.181 24.4 234.741 30.24 231.061 30.24ZM287.09 31.68C287.09 32.64 286.25 33.6 284.49 33.6H284.41C275.73 33.6 271.01 27.76 271.01 21.32C271.01 17.04 273.09 13.68 274.33 12.2C274.61 11.88 274.77 11.68 274.77 11.56C274.77 11.52 274.73 11.48 274.65 11.48C274.57 11.48 274.21 11.52 268.29 13.64C267.29 14 264.57 14.96 263.65 14.96C262.37 14.96 261.61 14 261.61 13.04C261.61 12.24 262.13 11.44 263.29 11.2C273.25 8.92 275.37 8.36 277.45 7.76C279.57 7.16 285.69 5.4 288.69 5.4C290.17 5.4 290.81 6.4 290.81 7.36C290.81 8.8 289.25 9.16 287.57 9.16H286.77C284.77 9.16 282.53 9.8 281.05 10.32C277.93 11.44 274.21 15.96 274.21 20.8C274.21 25.44 277.37 29.76 283.81 29.76H284.49C286.21 29.76 287.09 30.72 287.09 31.68ZM311.01 25.24H310.97C307.81 25.2 305.93 25.16 304.21 25.16C302.93 25.16 301.69 25.16 300.05 25.24C299.21 25.28 298.25 24.64 298.25 23.32C298.25 22.4 298.81 21.44 299.89 21.44H299.97C301.53 21.48 303.37 21.48 305.29 21.48C307.25 21.48 309.21 21.48 310.97 21.44H311.01C312.21 21.44 312.77 22.4 312.77 23.32C312.77 24.28 312.17 25.24 311.01 25.24Z" fill="#042F10"/>
</svg>
