<svg width="194" height="36" viewBox="0 0 194 36" fill="none" xmlns="http://www.w3.org/2000/svg">
<path d="M13.08 25.24H13.04C9.88 25.2 8 25.16 6.28 25.16C5 25.16 3.76 25.16 2.12 25.24C1.28 25.28 0.32 24.64 0.32 23.32C0.32 22.4 0.88 21.44 1.96 21.44H2.04C3.6 21.48 5.44 21.48 7.36 21.48C9.32 21.48 11.28 21.48 13.04 21.44H13.08C14.28 21.44 14.84 22.4 14.84 23.32C14.84 24.28 14.24 25.24 13.08 25.24ZM25.2606 34.16L25.3806 18.52C24.1806 20.76 22.7806 22.92 21.4206 24.56C21.0206 25.04 20.5006 25.28 20.0606 25.28C19.1806 25.28 18.4206 24.56 18.4206 23.72C18.4206 23.36 18.5806 22.92 18.9406 22.56C20.9406 20.52 23.7406 16.48 25.3806 12.72V11.68L21.3406 11.76H21.3006C20.3406 11.76 19.8606 11.04 19.8606 10.28C19.8606 9.52 20.3806 8.76 21.3406 8.76H25.3406L25.2606 1.72V1.68C25.2606 0.719998 26.1006 0.199998 26.9406 0.199998C27.7406 0.199998 28.5406 0.679999 28.5406 1.68V1.72C28.5406 1.72 28.5006 5.12 28.4606 8.76H31.2206C32.2206 8.76 32.7006 9.52 32.7006 10.28C32.7006 11 32.2206 11.76 31.2606 11.76H31.2206L28.4206 11.68C28.4206 13.4 28.3806 14.96 28.3806 16V16.04H28.5806C29.4206 16.04 33.0206 18.48 33.0206 19.88C33.0206 20.68 32.3006 21.4 31.5406 21.4C31.1806 21.4 30.8206 21.24 30.5406 20.84C29.9406 20.04 29.1006 19.08 28.3806 18.4C28.4206 24.08 28.5406 34.16 28.5406 34.16C28.5406 35.12 27.7006 35.6 26.9006 35.6C26.0606 35.6 25.2606 35.12 25.2606 34.16ZM40.1006 19.12L40.0606 19.24C40.5406 21.32 41.3406 23.28 42.5006 25.04C43.8206 23.12 44.7406 20.88 45.3006 18.56C45.5006 17.8 46.1006 17.44 46.7406 17.44C47.5406 17.44 48.3806 18 48.3806 18.88C48.3806 18.96 47.6606 23.04 44.4206 27.36C46.7006 29.6 49.8206 31.2 53.8206 31.76C54.7406 31.88 55.1806 32.56 55.1806 33.24C55.1806 34.12 54.5006 35.08 53.4206 35.08C52.7806 35.08 46.9406 34.04 42.6206 29.48C38.3806 33.72 32.7006 35.32 31.3806 35.32C30.3406 35.32 29.7006 34.48 29.7006 33.68C29.7006 33.04 30.0606 32.44 30.9406 32.28C35.1406 31.52 38.4206 29.68 40.7806 27.2C39.6206 25.52 38.7406 23.72 38.1806 21.84C36.5806 24.16 35.9406 24.76 35.1806 24.76C34.3806 24.76 33.5806 24.04 33.5806 23.24C33.5806 22.84 33.8206 22.36 34.3806 22C35.9006 21 37.1006 19.4 37.7406 18.2C37.9406 17.76 38.3806 17.6 38.8606 17.6C39.5006 17.6 40.1806 18 40.1806 18.68C40.1806 18.84 40.1406 18.96 40.1006 19.12ZM52.6206 9.2H33.7006C32.6606 9.2 32.1406 8.48 32.1406 7.76C32.1406 7.04 32.6606 6.32 33.7006 6.32L41.0206 6.36L40.9806 2.36C40.9806 1.36 41.8206 0.879999 42.7006 0.879999C43.5406 0.879999 44.4206 1.36 44.4206 2.36L44.3806 6.36L52.6206 6.32C53.7006 6.32 54.2206 7.04 54.2206 7.76C54.2206 8.48 53.7006 9.2 52.6206 9.2ZM51.2206 17.96C50.7806 17.96 50.3006 17.76 49.9406 17.28C48.5806 15.56 46.7006 14.04 44.7806 12.92C44.3006 12.64 44.1006 12.24 44.1006 11.88C44.1006 11.16 44.7806 10.44 45.6606 10.44C46.9806 10.44 52.8606 14.4 52.8606 16.28C52.8606 17.2 52.0606 17.96 51.2206 17.96ZM40.9806 11.92C40.9806 13.24 35.8206 18.56 33.9406 18.56C33.0606 18.56 32.4206 17.84 32.4206 17.08C32.4206 16.6 32.7006 16.08 33.3006 15.76C35.4206 14.64 37.1006 13.04 38.3006 10.96C38.5806 10.52 38.9406 10.32 39.3406 10.32C40.1406 10.32 40.9806 11.04 40.9806 11.92ZM92.8606 20.6H78.5406C79.1406 22.4 79.9806 24 81.0206 25.4C83.3006 24.52 85.4606 23.32 87.5406 21.88C87.8206 21.68 88.1406 21.6 88.4206 21.6C89.3406 21.6 90.1406 22.44 90.1406 23.32C90.1406 23.84 89.8606 24.36 89.1406 24.76C87.3006 25.8 85.1006 26.76 82.9806 27.52C85.5806 29.84 88.9806 31.32 93.1006 31.92C94.0206 32.04 94.4606 32.8 94.4606 33.56C94.4606 34.44 93.8206 35.4 92.6206 35.4C92.3806 35.4 79.7406 34.4 75.3006 20.6H70.6206V30.4C72.5806 29.8 74.3806 29.2 75.8206 28.6C76.0606 28.48 76.3406 28.44 76.5806 28.44C77.4606 28.44 78.1406 29.12 78.1406 29.88C78.1406 30.44 77.8206 31 76.9406 31.36C71.2206 33.84 63.4606 35.56 62.5406 35.56C61.3806 35.56 60.7406 34.72 60.7406 33.92C60.7406 33.2 61.2606 32.44 62.3006 32.28C63.9806 32.04 65.6606 31.72 67.2606 31.32V20.6H61.4606C60.4606 20.6 60.0206 19.92 60.0206 19.24C60.0206 18.52 60.5006 17.8 61.4606 17.8H67.2606C67.2206 16.76 67.2206 15.64 67.2206 14.48C67.2206 11.88 67.2606 9.16 67.3006 6.92C67.3406 3.68 68.9006 2.04 72.3806 2C74.3806 2 76.5806 1.96 78.7806 1.96C81.9006 1.96 85.1006 2 87.9406 2.04C89.0206 2.04 89.5006 2.76 89.5006 3.44C89.5006 4.16 88.9806 4.92 87.9406 4.92H87.9006C85.5006 4.88 82.8206 4.84 80.2206 4.84C77.6206 4.84 75.0606 4.88 72.8606 4.92C71.2606 4.96 70.6606 5.84 70.6206 7.12V7.4H86.7006C87.5806 7.4 88.0206 8.04 88.0206 8.68C88.0206 9.32 87.5806 9.96 86.7006 9.96H70.5806C70.5806 10.8 70.5406 11.68 70.5406 12.56H86.7006C87.5806 12.56 88.0206 13.2 88.0206 13.8C88.0206 14.44 87.5806 15.08 86.7006 15.08H70.5406C70.5406 16 70.5406 16.96 70.5806 17.8H92.8606C93.7806 17.8 94.2606 18.48 94.2606 19.2C94.2606 19.88 93.7806 20.6 92.8606 20.6ZM133.021 24.48H132.981L124.461 24.36C126.341 28.04 130.021 30.56 133.541 31.84C134.381 32.16 134.741 32.8 134.741 33.44C134.741 34.28 134.101 35.08 133.061 35.08C131.021 35.08 125.141 31.08 122.701 26.48C119.541 33.92 112.141 35.4 111.621 35.4C110.701 35.4 110.101 34.6 110.101 33.84C110.101 33.2 110.501 32.6 111.381 32.36C116.741 31.04 119.261 27.84 120.301 24.36L112.181 24.48H112.141C111.221 24.48 110.781 23.8 110.781 23.12C110.781 22.44 111.261 21.76 112.181 21.76H120.821C120.861 21.48 120.861 21.24 120.861 20.96C120.861 20.84 120.901 20.48 120.901 17.28H117.341C115.061 20.88 114.061 20.96 113.661 20.96C112.821 20.96 112.101 20.36 112.101 19.64C112.101 19.36 112.181 19.08 112.461 18.8C114.381 16.8 115.421 15.12 116.461 12.56C116.661 12.04 117.141 11.8 117.661 11.8C118.461 11.8 119.381 12.4 119.381 13.2C119.381 13.52 119.261 13.68 118.821 14.6H130.221C131.101 14.6 131.541 15.28 131.541 15.96C131.541 16.6 131.101 17.28 130.221 17.28H124.141C124.141 19.92 124.101 20.76 123.941 21.76H132.941C133.861 21.76 134.301 22.48 134.301 23.16C134.301 23.84 133.901 24.48 133.021 24.48ZM105.101 30.48V21.32C103.421 22.08 101.661 22.8 101.061 22.8C100.101 22.8 99.5006 22 99.5006 21.2C99.5006 20.6 99.8606 20 100.581 19.76C102.181 19.2 103.661 18.64 105.101 18.04V11.48H101.461C100.461 11.48 99.9806 10.72 99.9806 9.96C99.9806 9.24 100.461 8.48 101.461 8.48H105.101L105.061 1.96C105.061 0.879999 105.901 0.319999 106.701 0.319999C107.501 0.319999 108.261 0.839999 108.261 1.92V8.48H110.301C111.301 8.48 111.821 9.24 111.821 9.96C111.821 10.72 111.301 11.48 110.301 11.48H108.261V16.64C109.061 16.24 109.781 15.84 110.541 15.4C110.741 15.28 110.941 15.24 111.141 15.24C111.861 15.24 112.461 15.92 112.461 16.68C112.461 17.48 112.461 17.72 108.221 19.84V25.44C108.221 26.08 108.301 29.48 108.341 30.88V31.04C108.341 33.44 106.861 35.24 103.541 35.24C100.941 35.24 100.101 34.72 100.101 33.36C100.101 32.56 100.581 31.76 101.421 31.76C101.501 31.76 101.621 31.8 101.701 31.8C102.221 31.88 102.741 31.96 103.261 31.96C104.261 31.96 105.101 31.64 105.101 30.48ZM129.021 9.56C121.461 11.2 113.981 11.56 113.501 11.56C112.741 11.56 112.341 10.84 112.341 10.12C112.341 9.4 112.741 8.68 113.461 8.68C114.341 8.68 115.221 8.64 116.101 8.6C117.061 7.04 118.581 4 119.221 2C119.421 1.32 120.021 1.04 120.621 1.04C121.461 1.04 122.421 1.64 122.421 2.48C122.421 3.24 120.661 6.56 119.381 8.44C122.101 8.24 124.701 7.88 127.181 7.48C126.781 7.04 126.341 6.64 125.941 6.28C125.581 5.96 125.421 5.6 125.421 5.28C125.421 4.6 126.101 4.04 126.901 4.04C128.461 4.04 132.061 8.12 132.701 9.12C132.941 9.48 133.061 9.88 133.061 10.24C133.061 11.2 132.261 11.96 131.461 11.96C131.021 11.96 130.581 11.72 130.221 11.2C129.861 10.68 129.461 10.12 129.021 9.56ZM145.141 30.48V22C142.301 23 141.581 23.12 141.301 23.12C140.221 23.12 139.621 22.28 139.621 21.48C139.621 20.84 139.981 20.2 140.821 19.96C142.341 19.56 143.781 19.16 145.141 18.72V11.72H141.381C140.381 11.72 139.901 10.96 139.901 10.24C139.901 9.48 140.381 8.76 141.381 8.76H145.141L145.101 1.96C145.101 0.879999 145.941 0.319999 146.741 0.319999C147.541 0.319999 148.301 0.839999 148.301 1.92V8.76H151.301C152.301 8.76 152.821 9.48 152.821 10.24C152.821 10.96 152.301 11.72 151.301 11.72H148.301V17.64C149.381 17.24 150.381 16.8 151.381 16.32C151.581 16.24 151.781 16.16 151.941 16.16C152.701 16.16 153.341 16.88 153.341 17.64C153.341 18.16 153.061 18.68 152.381 19C151.141 19.6 149.781 20.2 148.301 20.8V25.44C148.301 26.08 148.381 29.48 148.421 30.88V31.04C148.421 33.44 146.981 35.24 143.661 35.24C141.501 35.24 140.221 34.88 140.221 33.36C140.221 32.56 140.701 31.76 141.541 31.76C141.621 31.76 141.741 31.8 141.821 31.8C142.341 31.88 142.861 31.96 143.341 31.96C144.341 31.96 145.141 31.64 145.141 30.48ZM165.941 26.84C168.421 24.48 169.741 21.84 169.741 21.72C169.741 21.44 169.501 21.2 169.101 21.2C167.821 21.2 164.221 21.24 161.541 21.24C158.341 25.16 153.701 28.72 152.301 28.72C151.381 28.72 150.741 27.96 150.741 27.16C150.741 26.68 151.021 26.16 151.621 25.84C155.221 24 158.821 20.8 161.141 16.68C161.501 16.08 162.021 15.8 162.581 15.8C163.381 15.8 164.141 16.4 164.141 17.16C164.141 17.4 164.101 17.64 163.941 17.88L163.341 18.76C165.781 18.72 168.981 18.68 170.501 18.68C172.301 18.72 173.221 19.76 173.221 21.12C173.221 21.64 173.061 22.2 172.781 22.76C167.781 32.28 158.061 35.36 152.141 35.36C151.101 35.36 150.581 34.6 150.581 33.84C150.581 33.08 151.061 32.36 152.021 32.32C156.621 32.12 160.581 30.84 163.781 28.6C162.581 27.8 161.301 27.16 159.861 26.68C159.261 26.48 159.061 26.12 159.061 25.72C159.061 25 159.821 24.16 160.741 24.16C161.301 24.16 163.621 24.88 165.661 26.56C165.781 26.64 165.861 26.76 165.941 26.84ZM173.701 14.4C173.701 15.32 172.861 16 171.981 16C171.421 16 170.861 15.72 170.501 15C169.781 13.56 168.661 11.92 167.461 10.44C166.941 9.8 166.701 9.28 166.701 8.72C166.701 8.24 166.941 7.72 167.341 7.16C168.301 5.84 169.421 4.04 170.021 2.52C170.301 1.8 170.861 1.52 171.421 1.52C172.341 1.52 173.261 2.2 173.261 3.04C173.261 3.84 171.141 6.6 170.261 7.72C169.981 8.08 169.821 8.4 169.821 8.68C169.821 9 169.981 9.28 170.301 9.6C170.621 9.92 173.701 13 173.701 14.4ZM160.461 14.36C160.461 15.32 159.581 16 158.701 16C158.141 16 157.581 15.72 157.261 15C156.621 13.52 155.661 11.88 154.541 10.4C154.101 9.8 153.901 9.28 153.901 8.72C153.901 8.2 154.101 7.68 154.501 7.16C155.501 5.84 156.701 4.04 157.301 2.52C157.581 1.8 158.141 1.52 158.741 1.52C159.621 1.52 160.541 2.2 160.541 3.04C160.541 3.92 157.821 7.24 157.421 7.72C157.101 8.08 156.981 8.36 156.981 8.64C156.981 8.96 157.141 9.24 157.461 9.6C158.221 10.52 160.461 13.2 160.461 14.36ZM167.021 14.4C167.021 15.32 166.221 15.92 165.381 15.92C164.821 15.92 164.221 15.64 163.901 14.88C163.261 13.44 162.261 11.88 161.181 10.4C160.701 9.76 160.461 9.24 160.461 8.72C160.461 8.2 160.701 7.72 161.101 7.16C162.021 5.84 163.101 4.12 163.661 2.6C163.941 1.84 164.541 1.52 165.101 1.52C165.981 1.52 166.821 2.16 166.821 2.96C166.821 3.88 164.021 7.52 163.861 7.72C163.581 8.08 163.421 8.36 163.421 8.68C163.421 8.96 163.581 9.24 163.901 9.6C164.341 10.08 167.021 13.16 167.021 14.4ZM192.221 25.24H192.181C189.021 25.2 187.141 25.16 185.421 25.16C184.141 25.16 182.901 25.16 181.261 25.24C180.421 25.28 179.461 24.64 179.461 23.32C179.461 22.4 180.021 21.44 181.101 21.44H181.181C182.741 21.48 184.581 21.48 186.501 21.48C188.461 21.48 190.421 21.48 192.181 21.44H192.221C193.421 21.44 193.981 22.4 193.981 23.32C193.981 24.28 193.381 25.24 192.221 25.24Z" fill="#042F10"/>
</svg>
