<svg width="342" height="56" viewBox="0 0 342 56" fill="none" xmlns="http://www.w3.org/2000/svg">
<rect width="342" height="56" fill="url(#paint0_linear_1388_4)"/>
<path d="M22.6758 12.0472C22.6793 11.5252 22.5071 11.1257 22.1591 10.8487C21.8146 10.5717 21.3352 10.4332 20.7209 10.4332C20.2841 10.4332 19.8952 10.5007 19.5543 10.6357C19.217 10.7706 18.9435 10.9553 18.734 11.1896C18.5281 11.424 18.4038 11.6921 18.3612 11.994C18.3221 12.2461 18.3487 12.4627 18.4411 12.6438C18.5334 12.8249 18.6665 12.9776 18.8406 13.1019C19.0181 13.2227 19.2152 13.3256 19.4318 13.4109C19.6484 13.4925 19.8597 13.56 20.0657 13.6133L21.0831 13.8849C21.4311 13.9702 21.7791 14.0891 22.1271 14.2418C22.4751 14.391 22.7859 14.5863 23.0593 14.8278C23.3327 15.0692 23.5369 15.3658 23.6719 15.7173C23.8104 16.0689 23.8423 16.4879 23.7678 16.9744C23.6719 17.5959 23.4286 18.1481 23.038 18.631C22.6509 19.1104 22.1342 19.4886 21.4879 19.7656C20.8452 20.0391 20.0923 20.1758 19.2294 20.1758C18.4091 20.1758 17.7148 20.0462 17.1467 19.7869C16.5785 19.5277 16.1594 19.1566 15.8896 18.6737C15.6232 18.1871 15.5238 17.6048 15.5913 16.9265H17.3224C17.2905 17.3207 17.3651 17.6474 17.5462 17.9066C17.7308 18.1623 17.9883 18.354 18.3185 18.4819C18.6488 18.6062 19.0234 18.6683 19.4425 18.6683C19.9006 18.6683 20.3161 18.5973 20.6889 18.4553C21.0653 18.3097 21.3725 18.109 21.6104 17.8533C21.8519 17.5977 21.9975 17.2994 22.0472 16.9585C22.0969 16.646 22.0472 16.3885 21.8981 16.1861C21.7525 15.9837 21.5341 15.8168 21.2429 15.6854C20.9553 15.554 20.6232 15.4368 20.2468 15.3338L19.0217 14.9876C18.18 14.7532 17.5373 14.4052 17.0934 13.9435C16.6531 13.4783 16.4879 12.8622 16.598 12.0952C16.6939 11.4631 16.9478 10.9109 17.3597 10.4386C17.7752 9.96626 18.2955 9.59872 18.9205 9.33594C19.549 9.07315 20.2344 8.94176 20.9766 8.94176C21.7223 8.94176 22.3597 9.07493 22.8888 9.34126C23.418 9.60405 23.8104 9.96982 24.0661 10.4386C24.3253 10.9038 24.4212 11.44 24.3537 12.0472H22.6758ZM27.4592 20.1758C26.9407 20.1758 26.4862 20.0817 26.0955 19.8935C25.7085 19.7017 25.419 19.4212 25.2273 19.0518C25.0391 18.6825 24.984 18.2298 25.0621 17.6935C25.1367 17.2319 25.2841 16.8519 25.5043 16.5536C25.728 16.2518 26.0014 16.0121 26.3246 15.8345C26.6513 15.657 27.0064 15.5238 27.3899 15.435C27.777 15.3462 28.1676 15.2805 28.5618 15.2379C29.0554 15.1811 29.4567 15.1332 29.7656 15.0941C30.0746 15.0515 30.3054 14.9893 30.4581 14.9077C30.6108 14.8224 30.7031 14.6857 30.7351 14.4975V14.4602C30.799 14.0163 30.7262 13.6719 30.5167 13.4268C30.3107 13.1783 29.9592 13.054 29.462 13.054C28.9471 13.054 28.5174 13.1676 28.1729 13.3949C27.8285 13.6186 27.5781 13.8743 27.4219 14.1619L25.8984 13.8477C26.1364 13.3505 26.4489 12.9439 26.8359 12.6278C27.223 12.3118 27.6545 12.081 28.1303 11.9354C28.6097 11.7862 29.1069 11.7116 29.6218 11.7116C29.9663 11.7116 30.3178 11.7525 30.6765 11.8342C31.0352 11.9158 31.3601 12.0597 31.6513 12.2656C31.946 12.468 32.1662 12.7557 32.3118 13.1286C32.4609 13.4979 32.4929 13.9737 32.4077 14.5561L31.5874 20H29.9521L30.1278 18.8814H30.0639C29.929 19.0909 29.7425 19.2951 29.5046 19.494C29.2667 19.6928 28.9773 19.8562 28.6364 19.984C28.2955 20.1119 27.9031 20.1758 27.4592 20.1758ZM28.0344 18.8601C28.4606 18.8601 28.8388 18.7766 29.169 18.6097C29.4993 18.4393 29.7674 18.2173 29.9734 17.9439C30.1793 17.6669 30.3054 17.3704 30.3516 17.0543L30.506 16.021C30.4386 16.0778 30.3232 16.1293 30.1598 16.1754C29.9964 16.2216 29.8136 16.2624 29.6112 16.2979C29.4087 16.3299 29.2099 16.3583 29.0146 16.3832C28.8228 16.408 28.663 16.4293 28.5352 16.4471C28.2262 16.4897 27.9403 16.5572 27.6776 16.6495C27.4148 16.7383 27.1964 16.8679 27.0224 17.0384C26.8519 17.2053 26.7472 17.4254 26.7081 17.6989C26.6513 18.0824 26.7472 18.3718 26.9957 18.5671C27.2479 18.7624 27.5941 18.8601 28.0344 18.8601ZM33.6541 20L34.8846 11.8182H36.5678L35.3427 20H33.6541ZM36.0138 10.5717C35.7298 10.5717 35.4901 10.4759 35.2947 10.2841C35.103 10.0923 35.0142 9.86151 35.0284 9.59162C35.0426 9.32173 35.1563 9.09268 35.3693 8.90447C35.5824 8.71271 35.831 8.61683 36.1151 8.61683C36.3991 8.61683 36.6371 8.71271 36.8288 8.90447C37.0206 9.09268 37.1112 9.32173 37.1005 9.59162C37.0863 9.86151 36.9727 10.0923 36.7596 10.2841C36.5465 10.4759 36.2979 10.5717 36.0138 10.5717ZM44.5765 13.8636L43.0211 14.098C42.9892 13.9134 42.9235 13.7393 42.824 13.576C42.7246 13.4091 42.5755 13.2759 42.3766 13.1765C42.1813 13.0735 41.9256 13.022 41.6096 13.022C41.1621 13.022 40.7715 13.1232 40.4377 13.3256C40.1074 13.5281 39.921 13.7855 39.8784 14.098C39.8393 14.3537 39.9032 14.5597 40.0701 14.7159C40.237 14.8722 40.53 15.0018 40.949 15.1048L42.2434 15.4031C42.975 15.5735 43.5023 15.8434 43.8255 16.2127C44.1486 16.582 44.2658 17.0614 44.177 17.6509C44.1025 18.1445 43.8947 18.5795 43.5538 18.956C43.2164 19.3324 42.7797 19.6289 42.2434 19.8455C41.7072 20.0586 41.1106 20.1651 40.4537 20.1651C39.4984 20.1651 38.7544 19.9645 38.2218 19.5632C37.6926 19.1619 37.4174 18.5955 37.3961 17.864L39.0581 17.6456C39.09 18.0398 39.2338 18.3363 39.4895 18.5352C39.7488 18.734 40.1056 18.8335 40.5602 18.8335C41.0787 18.837 41.5101 18.7287 41.8546 18.5085C42.2026 18.2884 42.3961 18.022 42.4352 17.7095C42.4743 17.4645 42.4157 17.2621 42.2594 17.1023C42.1067 16.9425 41.8386 16.8182 41.4551 16.7294L40.1234 16.4258C39.3741 16.2553 38.8414 15.9766 38.5254 15.5895C38.2129 15.1989 38.101 14.707 38.1898 14.114C38.2644 13.631 38.4632 13.2102 38.7864 12.8516C39.1096 12.4893 39.5233 12.2088 40.0275 12.0099C40.5353 11.8111 41.1 11.7116 41.7214 11.7116C42.6341 11.7116 43.323 11.907 43.7882 12.2976C44.2534 12.6847 44.5162 13.2067 44.5765 13.8636ZM47.8791 20.1758C47.3606 20.1758 46.9061 20.0817 46.5154 19.8935C46.1284 19.7017 45.839 19.4212 45.6472 19.0518C45.459 18.6825 45.4039 18.2298 45.4821 17.6935C45.5566 17.2319 45.704 16.8519 45.9242 16.5536C46.1479 16.2518 46.4213 16.0121 46.7445 15.8345C47.0712 15.657 47.4263 15.5238 47.8098 15.435C48.1969 15.3462 48.5875 15.2805 48.9817 15.2379C49.4753 15.1811 49.8766 15.1332 50.1855 15.0941C50.4945 15.0515 50.7253 14.9893 50.878 14.9077C51.0307 14.8224 51.123 14.6857 51.155 14.4975V14.4602C51.2189 14.0163 51.1461 13.6719 50.9366 13.4268C50.7306 13.1783 50.3791 13.054 49.8819 13.054C49.367 13.054 48.9373 13.1676 48.5929 13.3949C48.2484 13.6186 47.998 13.8743 47.8418 14.1619L46.3184 13.8477C46.5563 13.3505 46.8688 12.9439 47.2559 12.6278C47.6429 12.3118 48.0744 12.081 48.5502 11.9354C49.0297 11.7862 49.5268 11.7116 50.0417 11.7116C50.3862 11.7116 50.7377 11.7525 51.0964 11.8342C51.4551 11.9158 51.78 12.0597 52.0712 12.2656C52.3659 12.468 52.5861 12.7557 52.7317 13.1286C52.8809 13.4979 52.9128 13.9737 52.8276 14.5561L52.0073 20H50.372L50.5478 18.8814H50.4838C50.3489 19.0909 50.1625 19.2951 49.9245 19.494C49.6866 19.6928 49.3972 19.8562 49.0563 19.984C48.7154 20.1119 48.323 20.1758 47.8791 20.1758ZM48.4544 18.8601C48.8805 18.8601 49.2587 18.7766 49.589 18.6097C49.9192 18.4393 50.1873 18.2173 50.3933 17.9439C50.5993 17.6669 50.7253 17.3704 50.7715 17.0543L50.926 16.021C50.8585 16.0778 50.7431 16.1293 50.5797 16.1754C50.4164 16.2216 50.2335 16.2624 50.0311 16.2979C49.8287 16.3299 49.6298 16.3583 49.4345 16.3832C49.2427 16.408 49.0829 16.4293 48.9551 16.4471C48.6461 16.4897 48.3603 16.5572 48.0975 16.6495C47.8347 16.7383 47.6163 16.8679 47.4423 17.0384C47.2718 17.2053 47.1671 17.4254 47.128 17.6989C47.0712 18.0824 47.1671 18.3718 47.4157 18.5671C47.6678 18.7624 48.014 18.8601 48.4544 18.8601ZM54.074 20L55.3045 11.8182H56.9877L55.7626 20H54.074ZM56.4338 10.5717C56.1497 10.5717 55.91 10.4759 55.7147 10.2841C55.5229 10.0923 55.4341 9.86151 55.4483 9.59162C55.4625 9.32173 55.5762 9.09268 55.7892 8.90447C56.0023 8.71271 56.2509 8.61683 56.535 8.61683C56.8191 8.61683 57.057 8.71271 57.2488 8.90447C57.4405 9.09268 57.5311 9.32173 57.5204 9.59162C57.5062 9.86151 57.3926 10.0923 57.1795 10.2841C56.9664 10.4759 56.7179 10.5717 56.4338 10.5717ZM64.9964 13.8636L63.4411 14.098C63.4091 13.9134 63.3434 13.7393 63.244 13.576C63.1445 13.4091 62.9954 13.2759 62.7965 13.1765C62.6012 13.0735 62.3455 13.022 62.0295 13.022C61.582 13.022 61.1914 13.1232 60.8576 13.3256C60.5273 13.5281 60.3409 13.7855 60.2983 14.098C60.2592 14.3537 60.3232 14.5597 60.4901 14.7159C60.657 14.8722 60.9499 15.0018 61.369 15.1048L62.6634 15.4031C63.3949 15.5735 63.9222 15.8434 64.2454 16.2127C64.5685 16.582 64.6857 17.0614 64.5969 17.6509C64.5224 18.1445 64.3146 18.5795 63.9737 18.956C63.6364 19.3324 63.1996 19.6289 62.6634 19.8455C62.1271 20.0586 61.5305 20.1651 60.8736 20.1651C59.9183 20.1651 59.1744 19.9645 58.6417 19.5632C58.1126 19.1619 57.8374 18.5955 57.8161 17.864L59.478 17.6456C59.5099 18.0398 59.6538 18.3363 59.9094 18.5352C60.1687 18.734 60.5256 18.8335 60.9801 18.8335C61.4986 18.837 61.93 18.7287 62.2745 18.5085C62.6225 18.2884 62.8161 18.022 62.8551 17.7095C62.8942 17.4645 62.8356 17.2621 62.6793 17.1023C62.5266 16.9425 62.2585 16.8182 61.875 16.7294L60.5433 16.4258C59.794 16.2553 59.2614 15.9766 58.9453 15.5895C58.6328 15.1989 58.521 14.707 58.6097 14.114C58.6843 13.631 58.8832 13.2102 59.2063 12.8516C59.5295 12.4893 59.9432 12.2088 60.4474 12.0099C60.9553 11.8111 61.5199 11.7116 62.1413 11.7116C63.054 11.7116 63.7429 11.907 64.2081 12.2976C64.6733 12.6847 64.9361 13.2067 64.9964 13.8636ZM68.299 20.1758C67.7805 20.1758 67.326 20.0817 66.9354 19.8935C66.5483 19.7017 66.2589 19.4212 66.0671 19.0518C65.8789 18.6825 65.8239 18.2298 65.902 17.6935C65.9766 17.2319 66.1239 16.8519 66.3441 16.5536C66.5678 16.2518 66.8413 16.0121 67.1644 15.8345C67.4911 15.657 67.8462 15.5238 68.2298 15.435C68.6168 15.3462 69.0075 15.2805 69.4016 15.2379C69.8952 15.1811 70.2965 15.1332 70.6055 15.0941C70.9144 15.0515 71.1452 14.9893 71.2979 14.9077C71.4506 14.8224 71.543 14.6857 71.5749 14.4975V14.4602C71.6388 14.0163 71.5661 13.6719 71.3565 13.4268C71.1506 13.1783 70.799 13.054 70.3018 13.054C69.7869 13.054 69.3572 13.1676 69.0128 13.3949C68.6683 13.6186 68.418 13.8743 68.2617 14.1619L66.7383 13.8477C66.9762 13.3505 67.2887 12.9439 67.6758 12.6278C68.0629 12.3118 68.4943 12.081 68.9702 11.9354C69.4496 11.7862 69.9467 11.7116 70.4616 11.7116C70.8061 11.7116 71.1577 11.7525 71.5163 11.8342C71.875 11.9158 72.1999 12.0597 72.4911 12.2656C72.7859 12.468 73.006 12.7557 73.1516 13.1286C73.3008 13.4979 73.3327 13.9737 73.2475 14.5561L72.4272 20H70.7919L70.9677 18.8814H70.9038C70.7688 19.0909 70.5824 19.2951 70.3445 19.494C70.1065 19.6928 69.8171 19.8562 69.4762 19.984C69.1353 20.1119 68.7429 20.1758 68.299 20.1758ZM68.8743 18.8601C69.3004 18.8601 69.6786 18.7766 70.0089 18.6097C70.3391 18.4393 70.6072 18.2173 70.8132 17.9439C71.0192 17.6669 71.1452 17.3704 71.1914 17.0543L71.3459 16.021C71.2784 16.0778 71.163 16.1293 70.9996 16.1754C70.8363 16.2216 70.6534 16.2624 70.451 16.2979C70.2486 16.3299 70.0497 16.3583 69.8544 16.3832C69.6626 16.408 69.5028 16.4293 69.375 16.4471C69.0661 16.4897 68.7802 16.5572 68.5174 16.6495C68.2546 16.7383 68.0362 16.8679 67.8622 17.0384C67.6918 17.2053 67.587 17.4254 67.5479 17.6989C67.4911 18.0824 67.587 18.3718 67.8356 18.5671C68.0877 18.7624 68.4339 18.8601 68.8743 18.8601ZM74.494 20L75.7244 11.8182H77.4077L76.1825 20H74.494ZM76.8537 10.5717C76.5696 10.5717 76.3299 10.4759 76.1346 10.2841C75.9428 10.0923 75.854 9.86151 75.8683 9.59162C75.8825 9.32173 75.9961 9.09268 76.2092 8.90447C76.4222 8.71271 76.6708 8.61683 76.9549 8.61683C77.239 8.61683 77.4769 8.71271 77.6687 8.90447C77.8604 9.09268 77.951 9.32173 77.9403 9.59162C77.9261 9.86151 77.8125 10.0923 77.5994 10.2841C77.3864 10.4759 77.1378 10.5717 76.8537 10.5717Z" fill="white" fill-opacity="0.75"/>
<path d="M23.68 37.57H39.07V39.64H23.68V37.57ZM30.7 34.42H32.89V51.37H30.7V34.42ZM30.64 38.44L32.38 39.49C30.61 43.06 27.22 47.05 24.19 49.27C23.89 48.64 23.29 47.8 22.81 47.29C25.75 45.46 29.02 41.77 30.64 38.44ZM37.72 24.16L39.13 26.05C35.2 27.16 29.11 27.88 24.1 28.21C24.04 27.7 23.74 26.86 23.47 26.35C28.42 25.93 34.36 25.21 37.72 24.16ZM24.34 30.22L26.05 29.47C27.22 30.91 28.33 32.86 28.78 34.21L26.98 35.05C26.56 33.73 25.45 31.69 24.34 30.22ZM29.68 29.17L31.45 28.63C32.35 30.07 33.22 32.02 33.52 33.31L31.63 33.97C31.36 32.65 30.55 30.67 29.68 29.17ZM36.88 28.51L39.07 29.17C38.11 31.15 36.85 33.52 35.89 35.02L34.18 34.42C35.11 32.83 36.28 30.28 36.88 28.51ZM47.35 24.34L49.57 25.24C47.5 27.91 44.29 30.49 41.44 32.14C41.02 31.63 40.36 30.91 39.76 30.46C42.43 29.08 45.64 26.65 47.35 24.34ZM48.19 32.59L50.35 33.49C48.13 36.28 44.68 38.98 41.59 40.69C41.2 40.18 40.54 39.43 39.94 39.01C42.82 37.54 46.3 35.02 48.19 32.59ZM48.88 41.05L51.1 41.92C48.61 45.97 44.44 49.36 39.85 51.4C39.49 50.83 38.86 50.02 38.26 49.51C42.61 47.8 46.75 44.65 48.88 41.05ZM31.75 40.78L33.16 39.49C35.32 41.11 37.66 43.42 38.74 44.98L37.21 46.45C36.1 44.86 33.82 42.43 31.75 40.78ZM56.53 47.32H77.77V49.42H56.53V47.32ZM55.06 32.29H79.06V51.19H76.78V34.39H57.25V51.28H55.06V32.29ZM68.86 33.25H71.05V39.61C71.05 40.27 71.17 40.36 71.92 40.36C72.25 40.36 73.9 40.36 74.32 40.36C74.98 40.36 75.13 40.09 75.19 38.08C75.61 38.41 76.51 38.74 77.11 38.89C76.87 41.68 76.27 42.37 74.59 42.37C74.11 42.37 72.07 42.37 71.62 42.37C69.4 42.37 68.86 41.77 68.86 39.61V33.25ZM53.77 25.78H80.14V27.97H53.77V25.78ZM62.26 27.25H64.45V33.49H62.26V27.25ZM68.89 27.25H71.14V33.49H68.89V27.25ZM62.35 32.89H64.45V35.83C64.45 38.65 63.46 41.98 59.08 44.17C58.78 43.72 57.94 42.97 57.49 42.67C61.6 40.69 62.35 38.05 62.35 35.77V32.89ZM89.62 23.83L91.81 24.22C90.19 27.25 87.73 30.52 84.13 33.07C83.8 32.59 83.11 31.9 82.63 31.6C85.99 29.38 88.39 26.32 89.62 23.83ZM89.23 25.78H95.44V27.43H88.27L89.23 25.78ZM94.9 25.78H95.32L95.68 25.69L97.06 26.26C94.99 33.46 89.8 38.02 84.16 40.24C83.92 39.7 83.38 38.86 82.93 38.44C88.18 36.67 93.13 32.26 94.9 26.17V25.78ZM87.49 28.96L88.54 27.88C90.25 28.72 92.38 30.01 93.49 30.88L92.41 32.08C91.33 31.24 89.2 29.86 87.49 28.96ZM101.89 45.01L103.75 43.9C105.97 45.55 108.67 48.01 109.99 49.69L108.07 50.95C106.84 49.3 104.14 46.75 101.89 45.01ZM84.88 31.78L86.11 30.73C87.76 31.75 89.83 33.22 90.91 34.18L89.59 35.35C88.57 34.36 86.53 32.83 84.88 31.78ZM100.87 25.75H108.28V27.67H100.87V25.75ZM91.57 35.08H103.21V37.12H91.57V35.08ZM85.63 40.42H108.76V42.49H85.63V40.42ZM107.71 25.75H108.22L108.64 25.63L110.11 26.59C108.67 29.47 106.27 32.56 103.96 34.51C103.63 34.06 102.97 33.4 102.55 33.1C104.62 31.39 106.72 28.45 107.71 26.23V25.75ZM99.1 24.19C100.96 30.85 104.98 35.77 111.31 37.84C110.83 38.26 110.2 39.13 109.87 39.73C103.27 37.27 99.22 32.05 97.12 24.64L99.1 24.19ZM95.92 41.38H98.17V49C98.17 50.23 97.93 50.83 96.91 51.13C95.95 51.46 94.39 51.46 92.05 51.46C91.93 50.86 91.57 50.02 91.27 49.42C93.13 49.48 94.78 49.48 95.29 49.45C95.8 49.45 95.92 49.33 95.92 48.94V41.38ZM89.29 43.84L91.51 44.5C90.04 46.93 87.67 49.27 85.45 50.74C85.03 50.32 84.13 49.6 83.59 49.27C85.81 47.95 88.03 45.97 89.29 43.84Z" fill="white"/>
<defs>
<linearGradient id="paint0_linear_1388_4" x1="0" y1="28" x2="342" y2="28" gradientUnits="userSpaceOnUse">
<stop stop-color="#5ACC72"/>
<stop offset="1" stop-color="#409151"/>
</linearGradient>
</defs>
</svg>
