<svg width="247" height="125" viewBox="0 0 247 125" fill="none" xmlns="http://www.w3.org/2000/svg">
<path d="M55.51 93.91H88.79V99.695H55.51V93.91ZM69.875 87.605H76.05V124.395H69.875V87.605ZM69.81 96.315L74.685 99.24C70.915 106.845 63.7 115.49 57.2 120.3C56.42 118.61 54.73 116.14 53.43 114.71C59.54 110.875 66.43 103.205 69.81 96.315ZM85.605 64.79L89.505 70.12C80.405 72.525 67.21 74.085 56.29 74.8C56.095 73.305 55.25 70.965 54.6 69.535C65.39 68.625 78 67 85.605 64.79ZM56.16 78.96L60.905 76.88C63.375 79.935 65.78 84.03 66.755 86.89L61.75 89.36C60.905 86.435 58.5 82.08 56.16 78.96ZM67.795 76.62L72.735 75.125C74.685 78.115 76.505 82.21 77.22 84.94L71.89 86.76C71.37 83.965 69.615 79.74 67.795 76.62ZM83.265 74.995L89.505 76.62C87.36 81.04 84.76 85.98 82.745 89.165L77.935 87.605C79.755 84.16 82.095 78.83 83.265 74.995ZM106.015 65.18L112.385 67.78C107.77 73.76 100.945 79.415 94.64 83.12C93.535 81.625 91.585 79.61 89.895 78.375C95.615 75.385 102.44 70.25 106.015 65.18ZM107.64 83.055L113.815 85.655C108.94 91.83 101.66 97.615 95.03 101.385C93.925 99.955 92.04 97.875 90.35 96.64C96.395 93.585 103.74 88.255 107.64 83.055ZM109.07 101.19L115.44 103.725C109.915 112.76 101.075 119.975 91.26 124.525C90.22 122.835 88.4 120.56 86.645 119.065C95.745 115.49 104.52 108.925 109.07 101.19ZM73.06 102.425L77.025 98.785C81.64 102.165 86.385 106.975 88.66 110.355L84.37 114.58C82.16 111.135 77.415 105.935 73.06 102.425ZM127.27 114.515H172.315V120.43H127.27V114.515ZM123.175 82.34H176.02V124.135H169.585V88.255H129.35V124.265H123.175V82.34ZM152.815 84.875H158.925V97.615C158.925 99.175 159.12 99.305 160.615 99.305C161.2 99.305 164.06 99.305 164.84 99.305C166.075 99.305 166.335 98.785 166.53 95.21C167.7 96.055 170.235 97.03 171.86 97.42C171.21 103.4 169.585 104.96 165.555 104.96C164.385 104.96 160.745 104.96 159.64 104.96C153.985 104.96 152.815 103.27 152.815 97.615V84.875ZM120.51 67.975H178.295V74.15H120.51V67.975ZM138.515 72.525H144.82V85.72H138.515V72.525ZM152.815 72.525H159.25V85.72H152.815V72.525ZM138.84 83.77H144.82V90.14C144.82 96.445 142.74 103.855 133.51 108.535C132.665 107.365 130.26 105.22 128.96 104.44C137.475 100.28 138.84 94.755 138.84 90.01V83.77ZM197.795 64.14L203.84 65.245C200.33 72.135 195.065 79.155 187.07 84.745C186.225 83.38 184.34 81.43 183.04 80.585C190.255 75.905 195.195 69.535 197.795 64.14ZM197.535 68.235H210.6V72.655H194.87L197.535 68.235ZM209.105 68.235H210.21L211.25 67.975L215.085 69.6C210.665 85.46 199.81 95.21 187.005 100.085C186.29 98.59 184.795 96.315 183.625 95.08C195.26 91.31 205.53 82.08 209.105 69.275V68.235ZM193.765 75.97L196.625 73.045C199.94 74.735 204.23 77.335 206.44 79.09L203.515 82.34C201.37 80.585 197.145 77.79 193.765 75.97ZM224.64 110.94L229.84 107.885C234.455 111.395 240.305 116.595 243.1 120.235L237.51 123.81C234.975 120.235 229.32 114.775 224.64 110.94ZM188.175 82.015L191.62 79.22C194.74 81.3 198.835 84.225 200.915 86.175L197.34 89.295C195.39 87.28 191.425 84.16 188.175 82.015ZM223.21 68.17H238.29V73.435H223.21V68.17ZM202.605 87.93H227.565V93.65H202.605V87.93ZM189.865 99.825H239.72V105.61H189.865V99.825ZM236.73 68.17H238.16L239.395 67.78L243.555 70.575C240.305 76.75 235.17 83.575 230.23 87.8C229.32 86.63 227.5 84.745 226.33 83.9C230.49 80.195 234.845 73.89 236.73 69.405V68.17ZM219.765 64.855C223.6 79.025 231.92 89.425 245.765 93.845C244.465 95.08 242.645 97.485 241.8 99.175C227.11 93.78 218.79 82.405 214.305 66.025L219.765 64.855ZM211.38 102.685H217.815V118.155C217.815 121.275 217.165 122.9 214.695 123.745C212.29 124.59 208.78 124.655 203.84 124.59C203.515 122.9 202.605 120.56 201.76 118.935C205.335 119.065 209.04 119.065 210.08 119C211.12 119 211.38 118.74 211.38 117.96V102.685ZM196.755 107.755L203.06 109.64C200.005 115.035 194.805 120.17 190.06 123.42C188.89 122.25 186.355 120.235 184.86 119.26C189.605 116.465 194.22 112.24 196.755 107.755Z" fill="#2D6639"/>
<path d="M23.4102 19.8352L19.646 20.9006C19.4093 20.2732 19.0601 19.6636 18.5985 19.0717C18.1486 18.468 17.5331 17.9709 16.7519 17.5803C15.9706 17.1896 14.9704 16.9943 13.7512 16.9943C12.0821 16.9943 10.6913 17.379 9.57857 18.1484C8.47772 18.906 7.92729 19.8707 7.92729 21.0426C7.92729 22.0843 8.30608 22.907 9.06365 23.5107C9.82123 24.1143 11.0049 24.6174 12.6148 25.0199L16.6631 26.0142C19.1015 26.6061 20.9185 27.5116 22.1141 28.7308C23.3096 29.9382 23.9074 31.4948 23.9074 33.4006C23.9074 34.9631 23.4576 36.3598 22.558 37.5909C21.6702 38.822 20.4273 39.7926 18.8293 40.5028C17.2313 41.2131 15.3728 41.5682 13.254 41.5682C10.4723 41.5682 8.16995 40.9645 6.34704 39.7571C4.52412 38.5497 3.37 36.786 2.88468 34.4659L6.86195 33.4716C7.24074 34.9394 7.95688 36.0402 9.01039 36.7741C10.0757 37.508 11.4666 37.875 13.183 37.875C15.1361 37.875 16.6868 37.4607 17.835 36.6321C18.995 35.7917 19.575 34.7855 19.575 33.6136C19.575 32.6667 19.2436 31.8736 18.5807 31.2344C17.9178 30.5833 16.8998 30.098 15.5267 29.7784L10.9813 28.7131C8.48364 28.1212 6.64888 27.2038 5.47701 25.9609C4.31697 24.7062 3.73695 23.1378 3.73695 21.2557C3.73695 19.7169 4.169 18.3556 5.03311 17.1719C5.90906 15.9882 7.09869 15.0589 8.60201 14.3842C10.1172 13.7095 11.8335 13.3722 13.7512 13.3722C16.45 13.3722 18.5689 13.964 20.1077 15.1477C21.6584 16.3314 22.7592 17.8939 23.4102 19.8352ZM38.2407 41.6392C36.5125 41.6392 34.944 41.3137 33.5354 40.6626C32.1268 39.9998 31.0082 39.0469 30.1796 37.804C29.351 36.5492 28.9367 35.0341 28.9367 33.2585C28.9367 31.696 29.2445 30.4295 29.86 29.4588C30.4755 28.4763 31.2982 27.7069 32.328 27.1506C33.3579 26.5942 34.4942 26.1799 35.7371 25.9077C36.9919 25.6236 38.2525 25.3987 39.5191 25.233C41.1763 25.0199 42.5198 24.8601 43.5496 24.7536C44.5913 24.6352 45.3489 24.4399 45.8224 24.1676C46.3077 23.8954 46.5503 23.4219 46.5503 22.7472V22.6051C46.5503 20.8532 46.0709 19.492 45.1121 18.5213C44.1652 17.5507 42.7269 17.0653 40.7975 17.0653C38.797 17.0653 37.2286 17.5033 36.0922 18.3793C34.9559 19.2552 34.1569 20.1903 33.6952 21.1847L29.718 19.7642C30.4282 18.107 31.3751 16.8168 32.5589 15.8935C33.7544 14.9583 35.0565 14.3073 36.4651 13.9403C37.8856 13.5616 39.2823 13.3722 40.6555 13.3722C41.5314 13.3722 42.5376 13.4787 43.6739 13.6918C44.8221 13.893 45.9289 14.3132 46.9942 14.9524C48.0714 15.5916 48.9651 16.5563 49.6753 17.8466C50.3856 19.1368 50.7407 20.8651 50.7407 23.0312V41H46.5503V37.3068H46.3373C46.0532 37.8987 45.5797 38.532 44.9168 39.2067C44.2539 39.8814 43.3721 40.4555 42.2712 40.929C41.1704 41.4025 39.8269 41.6392 38.2407 41.6392ZM38.8799 37.875C40.5371 37.875 41.9339 37.5495 43.0702 36.8984C44.2184 36.2474 45.0825 35.407 45.6626 34.3771C46.2544 33.3473 46.5503 32.2642 46.5503 31.1278V27.2926C46.3728 27.5057 45.9822 27.701 45.3785 27.8786C44.7866 28.0443 44.1001 28.1922 43.3188 28.3224C42.5494 28.4408 41.7977 28.5473 41.0638 28.642C40.3418 28.7249 39.7558 28.7959 39.306 28.8551C38.217 28.9972 37.199 29.228 36.252 29.5476C35.3169 29.8554 34.5593 30.3229 33.9793 30.9503C33.4111 31.5658 33.127 32.4062 33.127 33.4716C33.127 34.9276 33.6656 36.0284 34.7428 36.7741C35.8318 37.508 37.2108 37.875 38.8799 37.875ZM58.3889 41V13.7273H62.5793V41H58.3889ZM60.5196 9.18182C59.7029 9.18182 58.9986 8.90365 58.4067 8.3473C57.8267 7.79096 57.5367 7.12216 57.5367 6.34091C57.5367 5.55966 57.8267 4.89086 58.4067 4.33452C58.9986 3.77817 59.7029 3.5 60.5196 3.5C61.3364 3.5 62.0348 3.77817 62.6148 4.33452C63.2066 4.89086 63.5026 5.55966 63.5026 6.34091C63.5026 7.12216 63.2066 7.79096 62.6148 8.3473C62.0348 8.90365 61.3364 9.18182 60.5196 9.18182ZM89.5724 19.8352L85.8081 20.9006C85.5714 20.2732 85.2222 19.6636 84.7606 19.0717C84.3108 18.468 83.6952 17.9709 82.914 17.5803C82.1327 17.1896 81.1325 16.9943 79.9133 16.9943C78.2442 16.9943 76.8534 17.379 75.7407 18.1484C74.6398 18.906 74.0894 19.8707 74.0894 21.0426C74.0894 22.0843 74.4682 22.907 75.2258 23.5107C75.9833 24.1143 77.1671 24.6174 78.7769 25.0199L82.8252 26.0142C85.2636 26.6061 87.0806 27.5116 88.2762 28.7308C89.4717 29.9382 90.0695 31.4948 90.0695 33.4006C90.0695 34.9631 89.6197 36.3598 88.7201 37.5909C87.8323 38.822 86.5894 39.7926 84.9914 40.5028C83.3934 41.2131 81.5349 41.5682 79.4161 41.5682C76.6344 41.5682 74.3321 40.9645 72.5091 39.7571C70.6862 38.5497 69.5321 36.786 69.0468 34.4659L73.0241 33.4716C73.4028 34.9394 74.119 36.0402 75.1725 36.7741C76.2378 37.508 77.6287 37.875 79.3451 37.875C81.2982 37.875 82.8489 37.4607 83.9971 36.6321C85.1571 35.7917 85.7371 34.7855 85.7371 33.6136C85.7371 32.6667 85.4057 31.8736 84.7428 31.2344C84.0799 30.5833 83.0619 30.098 81.6888 29.7784L77.1434 28.7131C74.6457 28.1212 72.811 27.2038 71.6391 25.9609C70.4791 24.7062 69.8991 23.1378 69.8991 21.2557C69.8991 19.7169 70.3311 18.3556 71.1952 17.1719C72.0712 15.9882 73.2608 15.0589 74.7641 14.3842C76.2793 13.7095 77.9957 13.3722 79.9133 13.3722C82.6121 13.3722 84.731 13.964 86.2698 15.1477C87.8205 16.3314 88.9213 17.8939 89.5724 19.8352ZM104.403 41.6392C102.675 41.6392 101.106 41.3137 99.6975 40.6626C98.2889 39.9998 97.1703 39.0469 96.3417 37.804C95.5131 36.5492 95.0988 35.0341 95.0988 33.2585C95.0988 31.696 95.4066 30.4295 96.0221 29.4588C96.6376 28.4763 97.4603 27.7069 98.4901 27.1506C99.52 26.5942 100.656 26.1799 101.899 25.9077C103.154 25.6236 104.415 25.3987 105.681 25.233C107.338 25.0199 108.682 24.8601 109.712 24.7536C110.753 24.6352 111.511 24.4399 111.984 24.1676C112.47 23.8954 112.712 23.4219 112.712 22.7472V22.6051C112.712 20.8532 112.233 19.492 111.274 18.5213C110.327 17.5507 108.889 17.0653 106.96 17.0653C104.959 17.0653 103.391 17.5033 102.254 18.3793C101.118 19.2552 100.319 20.1903 99.8573 21.1847L95.8801 19.7642C96.5903 18.107 97.5373 16.8168 98.721 15.8935C99.9165 14.9583 101.219 14.3073 102.627 13.9403C104.048 13.5616 105.444 13.3722 106.818 13.3722C107.694 13.3722 108.7 13.4787 109.836 13.6918C110.984 13.893 112.091 14.3132 113.156 14.9524C114.234 15.5916 115.127 16.5563 115.837 17.8466C116.548 19.1368 116.903 20.8651 116.903 23.0312V41H112.712V37.3068H112.499C112.215 37.8987 111.742 38.532 111.079 39.2067C110.416 39.8814 109.534 40.4555 108.433 40.929C107.332 41.4025 105.989 41.6392 104.403 41.6392ZM105.042 37.875C106.699 37.875 108.096 37.5495 109.232 36.8984C110.381 36.2474 111.245 35.407 111.825 34.3771C112.417 33.3473 112.712 32.2642 112.712 31.1278V27.2926C112.535 27.5057 112.144 27.701 111.541 27.8786C110.949 28.0443 110.262 28.1922 109.481 28.3224C108.711 28.4408 107.96 28.5473 107.226 28.642C106.504 28.7249 105.918 28.7959 105.468 28.8551C104.379 28.9972 103.361 29.228 102.414 29.5476C101.479 29.8554 100.721 30.3229 100.141 30.9503C99.5732 31.5658 99.2892 32.4062 99.2892 33.4716C99.2892 34.9276 99.8277 36.0284 100.905 36.7741C101.994 37.508 103.373 37.875 105.042 37.875ZM124.551 41V13.7273H128.741V41H124.551ZM126.682 9.18182C125.865 9.18182 125.161 8.90365 124.569 8.3473C123.989 7.79096 123.699 7.12216 123.699 6.34091C123.699 5.55966 123.989 4.89086 124.569 4.33452C125.161 3.77817 125.865 3.5 126.682 3.5C127.498 3.5 128.197 3.77817 128.777 4.33452C129.369 4.89086 129.665 5.55966 129.665 6.34091C129.665 7.12216 129.369 7.79096 128.777 8.3473C128.197 8.90365 127.498 9.18182 126.682 9.18182ZM155.734 19.8352L151.97 20.9006C151.734 20.2732 151.384 19.6636 150.923 19.0717C150.473 18.468 149.857 17.9709 149.076 17.5803C148.295 17.1896 147.295 16.9943 146.075 16.9943C144.406 16.9943 143.015 17.379 141.903 18.1484C140.802 18.906 140.252 19.8707 140.252 21.0426C140.252 22.0843 140.63 22.907 141.388 23.5107C142.145 24.1143 143.329 24.6174 144.939 25.0199L148.987 26.0142C151.426 26.6061 153.243 27.5116 154.438 28.7308C155.634 29.9382 156.232 31.4948 156.232 33.4006C156.232 34.9631 155.782 36.3598 154.882 37.5909C153.994 38.822 152.752 39.7926 151.153 40.5028C149.555 41.2131 147.697 41.5682 145.578 41.5682C142.796 41.5682 140.494 40.9645 138.671 39.7571C136.848 38.5497 135.694 36.786 135.209 34.4659L139.186 33.4716C139.565 34.9394 140.281 36.0402 141.335 36.7741C142.4 37.508 143.791 37.875 145.507 37.875C147.46 37.875 149.011 37.4607 150.159 36.6321C151.319 35.7917 151.899 34.7855 151.899 33.6136C151.899 32.6667 151.568 31.8736 150.905 31.2344C150.242 30.5833 149.224 30.098 147.851 29.7784L143.305 28.7131C140.808 28.1212 138.973 27.2038 137.801 25.9609C136.641 24.7062 136.061 23.1378 136.061 21.2557C136.061 19.7169 136.493 18.3556 137.357 17.1719C138.233 15.9882 139.423 15.0589 140.926 14.3842C142.441 13.7095 144.158 13.3722 146.075 13.3722C148.774 13.3722 150.893 13.964 152.432 15.1477C153.983 16.3314 155.083 17.8939 155.734 19.8352ZM170.565 41.6392C168.837 41.6392 167.268 41.3137 165.86 40.6626C164.451 39.9998 163.332 39.0469 162.504 37.804C161.675 36.5492 161.261 35.0341 161.261 33.2585C161.261 31.696 161.569 30.4295 162.184 29.4588C162.8 28.4763 163.622 27.7069 164.652 27.1506C165.682 26.5942 166.818 26.1799 168.061 25.9077C169.316 25.6236 170.577 25.3987 171.843 25.233C173.501 25.0199 174.844 24.8601 175.874 24.7536C176.916 24.6352 177.673 24.4399 178.147 24.1676C178.632 23.8954 178.875 23.4219 178.875 22.7472V22.6051C178.875 20.8532 178.395 19.492 177.436 18.5213C176.489 17.5507 175.051 17.0653 173.122 17.0653C171.121 17.0653 169.553 17.5033 168.416 18.3793C167.28 19.2552 166.481 20.1903 166.019 21.1847L162.042 19.7642C162.752 18.107 163.699 16.8168 164.883 15.8935C166.079 14.9583 167.381 14.3073 168.789 13.9403C170.21 13.5616 171.607 13.3722 172.98 13.3722C173.856 13.3722 174.862 13.4787 175.998 13.6918C177.146 13.893 178.253 14.3132 179.318 14.9524C180.396 15.5916 181.289 16.5563 182 17.8466C182.71 19.1368 183.065 20.8651 183.065 23.0312V41H178.875V37.3068H178.661C178.377 37.8987 177.904 38.532 177.241 39.2067C176.578 39.8814 175.696 40.4555 174.595 40.929C173.495 41.4025 172.151 41.6392 170.565 41.6392ZM171.204 37.875C172.861 37.875 174.258 37.5495 175.394 36.8984C176.543 36.2474 177.407 35.407 177.987 34.3771C178.579 33.3473 178.875 32.2642 178.875 31.1278V27.2926C178.697 27.5057 178.306 27.701 177.703 27.8786C177.111 28.0443 176.424 28.1922 175.643 28.3224C174.874 28.4408 174.122 28.5473 173.388 28.642C172.666 28.7249 172.08 28.7959 171.63 28.8551C170.541 28.9972 169.523 29.228 168.576 29.5476C167.641 29.8554 166.884 30.3229 166.304 30.9503C165.735 31.5658 165.451 32.4062 165.451 33.4716C165.451 34.9276 165.99 36.0284 167.067 36.7741C168.156 37.508 169.535 37.875 171.204 37.875ZM190.713 41V13.7273H194.903V41H190.713ZM192.844 9.18182C192.027 9.18182 191.323 8.90365 190.731 8.3473C190.151 7.79096 189.861 7.12216 189.861 6.34091C189.861 5.55966 190.151 4.89086 190.731 4.33452C191.323 3.77817 192.027 3.5 192.844 3.5C193.661 3.5 194.359 3.77817 194.939 4.33452C195.531 4.89086 195.827 5.55966 195.827 6.34091C195.827 7.12216 195.531 7.79096 194.939 8.3473C194.359 8.90365 193.661 9.18182 192.844 9.18182Z" fill="#2D6639"/>
</svg>
