<svg width="314" height="37" viewBox="0 0 314 37" fill="none" xmlns="http://www.w3.org/2000/svg">
<path d="M13.08 25.24H13.04C9.88 25.2 8 25.16 6.28 25.16C5 25.16 3.76 25.16 2.12 25.24C1.28 25.28 0.32 24.64 0.32 23.32C0.32 22.4 0.88 21.44 1.96 21.44H2.04C3.6 21.48 5.44 21.48 7.36 21.48C9.32 21.48 11.28 21.48 13.04 21.44H13.08C14.28 21.44 14.84 22.4 14.84 23.32C14.84 24.28 14.24 25.24 13.08 25.24ZM51.5006 25.64H51.4606L39.5006 25.48C41.5406 28.52 46.1806 31.44 52.1406 31.84C53.2206 31.92 53.7406 32.64 53.7406 33.4C53.7406 34.28 53.0606 35.24 51.8606 35.24C51.5406 35.24 42.1006 34.52 37.1406 26.96C33.3006 34.28 23.0606 35.48 22.3806 35.48C21.3006 35.48 20.7006 34.64 20.7006 33.84C20.7006 33.16 21.1406 32.48 22.0206 32.36C28.9006 31.36 32.6606 28.92 34.3406 25.52L22.9006 25.64H22.8606C21.9006 25.64 21.4606 24.96 21.4606 24.28C21.4606 23.56 21.9806 22.8 22.9006 22.8L35.2206 22.84C35.4206 21.92 35.5006 20.92 35.5006 19.92V19.8L27.4606 19.84C26.5406 19.84 26.0606 19.2 26.0606 18.56C26.0606 17.84 26.5806 17.16 27.4606 17.16L35.5406 17.2C35.5406 16.24 35.5806 15.28 35.5806 14.32L26.9006 14.36C25.9406 14.36 25.4606 13.72 25.4606 13.04C25.4606 12.36 25.9806 11.64 26.9006 11.64L35.5806 11.68C35.5806 11.04 35.5406 10.4 35.5006 9.76V9.68C35.5006 8.76 36.3006 8.32 37.1406 8.32C37.9806 8.32 38.8206 8.8 38.8606 9.68C38.9006 10.32 38.9006 11 38.9006 11.68L47.3806 11.64C48.3006 11.64 48.7806 12.32 48.7806 13C48.7806 13.68 48.3006 14.36 47.3806 14.36L38.9006 14.32C38.9006 15.28 38.8606 16.28 38.8206 17.2L46.8206 17.16C47.7006 17.16 48.1406 17.84 48.1406 18.52C48.1406 19.16 47.7006 19.84 46.8206 19.84L38.7406 19.8V20.08C38.7406 21.04 38.6606 21.96 38.5006 22.84L51.4606 22.8C52.3806 22.8 52.8606 23.52 52.8606 24.24C52.8606 24.96 52.4206 25.64 51.5006 25.64ZM49.3006 12.12V10.6C49.3006 8.76 49.3006 7.6 46.6606 7.56C43.5006 7.52 39.7006 7.48 36.0206 7.48C32.9806 7.48 30.0606 7.52 27.6606 7.56C25.5006 7.6 24.9806 8.2 24.9006 9.84V12.2C24.9006 13.16 24.0606 13.68 23.1806 13.68C22.3806 13.68 21.5806 13.2 21.5806 12.16C21.5806 11.64 21.5406 11.08 21.5406 10.48C21.5406 9.88 21.5806 9.24 21.5806 8.6C21.6606 6.64 23.1006 4.88 26.1006 4.84C29.1006 4.8 32.2606 4.76 35.4606 4.76V1.64C35.4606 0.559998 36.3406 0.0399976 37.2206 0.0399976C38.1006 0.0399976 38.9806 0.559998 38.9806 1.64V4.76C42.1406 4.76 45.3006 4.8 48.3406 4.84C50.9006 4.88 52.6606 6.6 52.7406 8.8C52.7806 9.4 52.7806 10.08 52.7806 10.72C52.7806 12.32 52.7006 13.52 50.9406 13.52C50.1006 13.52 49.3006 13.08 49.3006 12.12ZM87.3006 24.72L87.3806 29.84V29.92C87.3806 32.28 85.9806 35 80.9006 35C78.1806 35 76.7006 34.72 76.7006 33.04C76.7006 32.24 77.1806 31.44 78.0606 31.44C78.1806 31.44 78.2606 31.48 78.3406 31.48C79.3406 31.64 80.3006 31.76 81.1006 31.76C82.8606 31.76 84.0606 31.2 84.0606 29.32C84.0606 25.44 84.1006 20.16 84.1006 15.4H75.1406C74.1006 15.4 73.5806 14.68 73.5806 13.96C73.5806 13.2 74.1406 12.44 75.1406 12.44H92.3806C93.4206 12.44 93.9406 13.2 93.9406 13.92C93.9406 14.68 93.4206 15.4 92.3806 15.4H87.3006V24.72ZM65.6606 34.04V34L66.0206 19.16C62.5806 21.84 61.9406 22.12 61.4206 22.12C60.4606 22.12 59.7406 21.24 59.7406 20.4C59.7406 19.84 60.0206 19.32 60.6606 18.96C64.2606 16.96 67.5406 14.12 70.3406 10.2C70.6606 9.72 71.1006 9.52 71.5406 9.52C72.4206 9.52 73.3006 10.36 73.3006 11.28C73.3006 11.64 73.2206 11.96 72.9406 12.28C71.6606 13.84 70.4606 15.16 69.1806 16.4L68.9806 33.96C68.9406 34.96 68.1006 35.48 67.2606 35.48C66.4606 35.48 65.6606 35 65.6606 34.04ZM89.8606 6.4H76.6206C75.5806 6.4 75.0606 5.68 75.0606 4.96C75.0606 4.2 75.6206 3.4 76.6206 3.4H89.8606C90.9006 3.4 91.4206 4.16 91.4206 4.92C91.4206 5.64 90.9006 6.4 89.8606 6.4ZM72.0206 4.08C69.8206 6.88 63.7006 12.24 61.9406 12.24C61.0206 12.24 60.3006 11.48 60.3006 10.64C60.3006 10.08 60.6206 9.48 61.3806 9.04C64.5406 7.28 67.2206 5.12 69.4206 2C69.7806 1.48 70.2606 1.24 70.7406 1.24C71.6206 1.24 72.4606 2.04 72.4606 2.96C72.4606 3.32 72.3406 3.72 72.0206 4.08ZM132.901 23.6L124.261 23.52C123.861 25.32 123.261 26.88 122.381 28.28C126.181 29.24 129.381 30.6 131.581 32.16C132.141 32.56 132.341 33.04 132.341 33.56C132.341 34.48 131.581 35.4 130.621 35.4C130.301 35.4 129.941 35.28 129.581 35C127.181 33.16 124.061 31.64 120.461 30.64C117.141 33.8 111.821 35.4 103.901 35.4C103.341 35.4 102.781 35.36 102.181 35.36C101.141 35.36 100.581 34.56 100.581 33.8C100.581 33.04 101.101 32.32 102.101 32.32H102.181C103.021 32.36 103.861 32.36 104.621 32.36C109.901 32.36 113.981 31.64 116.781 29.8C115.021 29.48 113.181 29.28 111.301 29.16L111.221 29.28C110.781 29.96 110.101 30.24 109.461 30.24C108.621 30.24 107.861 29.76 107.861 29C107.861 28.76 107.981 28.48 108.181 28.16C109.181 26.68 109.981 25.12 110.701 23.52L101.421 23.6C100.501 23.6 100.021 22.88 100.021 22.16C100.021 21.44 100.501 20.72 101.421 20.72L111.821 20.76C112.221 19.72 112.581 18.68 112.901 17.64C113.141 16.96 113.781 16.64 114.461 16.64C115.301 16.64 116.101 17.12 116.101 17.84C116.101 17.92 116.101 18 115.141 20.8L132.901 20.72C133.861 20.72 134.301 21.44 134.301 22.16C134.301 22.88 133.861 23.6 132.901 23.6ZM132.061 10.32H120.621C124.821 12.92 129.181 14.28 133.741 15.4C134.581 15.6 134.941 16.12 134.941 16.72C134.941 17.56 134.101 18.52 132.981 18.52C132.581 18.52 125.701 16.84 118.661 11.88L118.701 15.76V15.8C118.701 16.64 117.901 17.08 117.101 17.08C116.301 17.08 115.501 16.64 115.501 15.8V15.76L115.541 11.96C109.541 16.76 102.221 19.48 101.261 19.48C100.261 19.48 99.5406 18.68 99.5406 17.92C99.5406 17.4 99.9006 16.88 100.741 16.6C105.621 15.12 109.541 13.28 113.461 10.32H102.261C101.341 10.32 100.861 9.64 100.861 8.96C100.861 8.28 101.341 7.6 102.261 7.6H115.581L115.541 4.88C111.981 5.08 108.541 5.2 106.061 5.2C104.781 5.2 103.541 5.2 103.541 3.76C103.541 3.12 104.021 2.44 105.021 2.44H105.061C105.941 2.48 106.901 2.48 107.861 2.48C113.381 2.48 120.341 2.08 126.541 0.879999C126.701 0.839999 126.861 0.839999 127.021 0.839999C128.021 0.839999 128.581 1.6 128.581 2.32C128.581 2.92 128.221 3.48 127.541 3.6C125.181 4.04 122.021 4.36 118.701 4.64L118.621 7.6H132.061C132.941 7.6 133.381 8.28 133.381 8.96C133.381 9.64 132.941 10.32 132.061 10.32ZM120.941 23.52H114.061C113.621 24.64 113.101 25.72 112.581 26.76C114.821 26.88 117.061 27.16 119.141 27.56C119.981 26.44 120.581 25.12 120.941 23.52ZM162.341 29.32L162.581 29.44C165.541 31.12 169.301 32.24 172.221 32.44C173.301 32.52 173.781 33.28 173.781 34.04C173.781 34.96 173.101 35.92 171.901 35.92C170.501 35.92 165.021 34.56 160.941 32.16C160.421 31.84 160.181 31.36 160.181 30.88C160.181 30.24 160.621 29.56 161.221 29.32H152.821C153.501 29.56 154.021 30.32 154.021 31.04C154.021 31.48 153.821 31.92 153.341 32.24C150.461 34.04 144.501 36.04 142.301 36.04C141.141 36.04 140.501 35.16 140.501 34.32C140.501 33.56 140.981 32.8 142.101 32.72C145.061 32.48 148.701 31.4 151.621 29.48L152.021 29.28C150.981 29.28 149.981 29.28 149.101 29.24C146.221 29.16 144.741 27.72 144.661 25.76C144.581 24.28 144.541 22.6 144.541 20.92C144.541 18.96 144.581 17.04 144.661 15.48C144.741 13.84 145.941 12.2 149.021 12.16C151.141 12.12 153.661 12.12 156.261 12.12C159.421 12.12 162.741 12.12 165.701 12.2C168.101 12.24 169.781 13.72 169.861 15.28C169.941 16.72 169.981 18.28 169.981 19.88C169.981 21.88 169.941 23.92 169.861 25.76C169.781 27.64 168.141 29.2 165.501 29.28C164.501 29.32 163.461 29.32 162.341 29.32ZM164.901 10.04C162.461 10.08 159.821 10.12 157.221 10.12C154.621 10.12 152.021 10.08 149.701 10.04C146.301 9.96 145.701 8.92 145.701 5.88C145.701 3.04 146.421 1.92 149.581 1.88C152.221 1.84 155.141 1.8 158.061 1.8C160.461 1.8 162.861 1.84 165.101 1.88C168.581 1.96 168.821 3.88 168.821 5.84C168.821 7.84 168.781 9.92 164.901 10.04ZM165.461 6.64C165.501 6.48 165.501 6.28 165.501 6.12C165.501 4.96 165.381 4.4 163.781 4.4C161.821 4.36 159.501 4.36 157.141 4.36C154.821 4.36 152.501 4.36 150.581 4.4C149.021 4.4 148.901 5.2 148.901 5.96C148.901 6.2 148.941 6.4 148.941 6.6C149.021 7.6 149.421 7.6 157.181 7.6C165.141 7.6 165.261 7.6 165.461 6.64ZM166.661 24.12H147.741L147.781 25C147.821 26.28 148.501 26.72 150.021 26.76C152.261 26.84 155.381 26.88 158.421 26.88C160.621 26.88 162.741 26.84 164.461 26.8C165.821 26.76 166.541 26.16 166.621 25.04C166.621 24.76 166.661 24.44 166.661 24.12ZM166.701 19.36H147.701V21.92H166.741C166.741 21.08 166.701 20.2 166.701 19.36ZM147.741 17.16H166.661C166.661 16.88 166.621 16.6 166.621 16.32C166.581 15.24 165.901 14.6 164.421 14.56C162.021 14.52 158.621 14.48 155.381 14.48C153.421 14.48 151.501 14.48 149.981 14.52C148.541 14.56 147.821 15.4 147.781 16.32C147.781 16.6 147.741 16.88 147.741 17.16ZM212.861 20.6H198.541C199.141 22.4 199.981 24 201.021 25.4C203.301 24.52 205.461 23.32 207.541 21.88C207.821 21.68 208.141 21.6 208.421 21.6C209.341 21.6 210.141 22.44 210.141 23.32C210.141 23.84 209.861 24.36 209.141 24.76C207.301 25.8 205.101 26.76 202.981 27.52C205.581 29.84 208.981 31.32 213.101 31.92C214.021 32.04 214.461 32.8 214.461 33.56C214.461 34.44 213.821 35.4 212.621 35.4C212.381 35.4 199.741 34.4 195.301 20.6H190.621V30.4C192.581 29.8 194.381 29.2 195.821 28.6C196.061 28.48 196.341 28.44 196.581 28.44C197.461 28.44 198.141 29.12 198.141 29.88C198.141 30.44 197.821 31 196.941 31.36C191.221 33.84 183.461 35.56 182.541 35.56C181.381 35.56 180.741 34.72 180.741 33.92C180.741 33.2 181.261 32.44 182.301 32.28C183.981 32.04 185.661 31.72 187.261 31.32V20.6H181.461C180.461 20.6 180.021 19.92 180.021 19.24C180.021 18.52 180.501 17.8 181.461 17.8H187.261C187.221 16.76 187.221 15.64 187.221 14.48C187.221 11.88 187.261 9.16 187.301 6.92C187.341 3.68 188.901 2.04 192.381 2C194.381 2 196.581 1.96 198.781 1.96C201.901 1.96 205.101 2 207.941 2.04C209.021 2.04 209.501 2.76 209.501 3.44C209.501 4.16 208.981 4.92 207.941 4.92H207.901C205.501 4.88 202.821 4.84 200.221 4.84C197.621 4.84 195.061 4.88 192.861 4.92C191.261 4.96 190.661 5.84 190.621 7.12V7.4H206.701C207.581 7.4 208.021 8.04 208.021 8.68C208.021 9.32 207.581 9.96 206.701 9.96H190.581C190.581 10.8 190.541 11.68 190.541 12.56H206.701C207.581 12.56 208.021 13.2 208.021 13.8C208.021 14.44 207.581 15.08 206.701 15.08H190.541C190.541 16 190.541 16.96 190.581 17.8H212.861C213.781 17.8 214.261 18.48 214.261 19.2C214.261 19.88 213.781 20.6 212.861 20.6ZM253.021 24.48H252.981L244.461 24.36C246.341 28.04 250.021 30.56 253.541 31.84C254.381 32.16 254.741 32.8 254.741 33.44C254.741 34.28 254.101 35.08 253.061 35.08C251.021 35.08 245.141 31.08 242.701 26.48C239.541 33.92 232.141 35.4 231.621 35.4C230.701 35.4 230.101 34.6 230.101 33.84C230.101 33.2 230.501 32.6 231.381 32.36C236.741 31.04 239.261 27.84 240.301 24.36L232.181 24.48H232.141C231.221 24.48 230.781 23.8 230.781 23.12C230.781 22.44 231.261 21.76 232.181 21.76H240.821C240.861 21.48 240.861 21.24 240.861 20.96C240.861 20.84 240.901 20.48 240.901 17.28H237.341C235.061 20.88 234.061 20.96 233.661 20.96C232.821 20.96 232.101 20.36 232.101 19.64C232.101 19.36 232.181 19.08 232.461 18.8C234.381 16.8 235.421 15.12 236.461 12.56C236.661 12.04 237.141 11.8 237.661 11.8C238.461 11.8 239.381 12.4 239.381 13.2C239.381 13.52 239.261 13.68 238.821 14.6H250.221C251.101 14.6 251.541 15.28 251.541 15.96C251.541 16.6 251.101 17.28 250.221 17.28H244.141C244.141 19.92 244.101 20.76 243.941 21.76H252.941C253.861 21.76 254.301 22.48 254.301 23.16C254.301 23.84 253.901 24.48 253.021 24.48ZM225.101 30.48V21.32C223.421 22.08 221.661 22.8 221.061 22.8C220.101 22.8 219.501 22 219.501 21.2C219.501 20.6 219.861 20 220.581 19.76C222.181 19.2 223.661 18.64 225.101 18.04V11.48H221.461C220.461 11.48 219.981 10.72 219.981 9.96C219.981 9.24 220.461 8.48 221.461 8.48H225.101L225.061 1.96C225.061 0.879999 225.901 0.319999 226.701 0.319999C227.501 0.319999 228.261 0.839999 228.261 1.92V8.48H230.301C231.301 8.48 231.821 9.24 231.821 9.96C231.821 10.72 231.301 11.48 230.301 11.48H228.261V16.64C229.061 16.24 229.781 15.84 230.541 15.4C230.741 15.28 230.941 15.24 231.141 15.24C231.861 15.24 232.461 15.92 232.461 16.68C232.461 17.48 232.461 17.72 228.221 19.84V25.44C228.221 26.08 228.301 29.48 228.341 30.88V31.04C228.341 33.44 226.861 35.24 223.541 35.24C220.941 35.24 220.101 34.72 220.101 33.36C220.101 32.56 220.581 31.76 221.421 31.76C221.501 31.76 221.621 31.8 221.701 31.8C222.221 31.88 222.741 31.96 223.261 31.96C224.261 31.96 225.101 31.64 225.101 30.48ZM249.021 9.56C241.461 11.2 233.981 11.56 233.501 11.56C232.741 11.56 232.341 10.84 232.341 10.12C232.341 9.4 232.741 8.68 233.461 8.68C234.341 8.68 235.221 8.64 236.101 8.6C237.061 7.04 238.581 4 239.221 2C239.421 1.32 240.021 1.04 240.621 1.04C241.461 1.04 242.421 1.64 242.421 2.48C242.421 3.24 240.661 6.56 239.381 8.44C242.101 8.24 244.701 7.88 247.181 7.48C246.781 7.04 246.341 6.64 245.941 6.28C245.581 5.96 245.421 5.6 245.421 5.28C245.421 4.6 246.101 4.04 246.901 4.04C248.461 4.04 252.061 8.12 252.701 9.12C252.941 9.48 253.061 9.88 253.061 10.24C253.061 11.2 252.261 11.96 251.461 11.96C251.021 11.96 250.581 11.72 250.221 11.2C249.861 10.68 249.461 10.12 249.021 9.56ZM265.141 30.48V22C262.301 23 261.581 23.12 261.301 23.12C260.221 23.12 259.621 22.28 259.621 21.48C259.621 20.84 259.981 20.2 260.821 19.96C262.341 19.56 263.781 19.16 265.141 18.72V11.72H261.381C260.381 11.72 259.901 10.96 259.901 10.24C259.901 9.48 260.381 8.76 261.381 8.76H265.141L265.101 1.96C265.101 0.879999 265.941 0.319999 266.741 0.319999C267.541 0.319999 268.301 0.839999 268.301 1.92V8.76H271.301C272.301 8.76 272.821 9.48 272.821 10.24C272.821 10.96 272.301 11.72 271.301 11.72H268.301V17.64C269.381 17.24 270.381 16.8 271.381 16.32C271.581 16.24 271.781 16.16 271.941 16.16C272.701 16.16 273.341 16.88 273.341 17.64C273.341 18.16 273.061 18.68 272.381 19C271.141 19.6 269.781 20.2 268.301 20.8V25.44C268.301 26.08 268.381 29.48 268.421 30.88V31.04C268.421 33.44 266.981 35.24 263.661 35.24C261.501 35.24 260.221 34.88 260.221 33.36C260.221 32.56 260.701 31.76 261.541 31.76C261.621 31.76 261.741 31.8 261.821 31.8C262.341 31.88 262.861 31.96 263.341 31.96C264.341 31.96 265.141 31.64 265.141 30.48ZM285.941 26.84C288.421 24.48 289.741 21.84 289.741 21.72C289.741 21.44 289.501 21.2 289.101 21.2C287.821 21.2 284.221 21.24 281.541 21.24C278.341 25.16 273.701 28.72 272.301 28.72C271.381 28.72 270.741 27.96 270.741 27.16C270.741 26.68 271.021 26.16 271.621 25.84C275.221 24 278.821 20.8 281.141 16.68C281.501 16.08 282.021 15.8 282.581 15.8C283.381 15.8 284.141 16.4 284.141 17.16C284.141 17.4 284.101 17.64 283.941 17.88L283.341 18.76C285.781 18.72 288.981 18.68 290.501 18.68C292.301 18.72 293.221 19.76 293.221 21.12C293.221 21.64 293.061 22.2 292.781 22.76C287.781 32.28 278.061 35.36 272.141 35.36C271.101 35.36 270.581 34.6 270.581 33.84C270.581 33.08 271.061 32.36 272.021 32.32C276.621 32.12 280.581 30.84 283.781 28.6C282.581 27.8 281.301 27.16 279.861 26.68C279.261 26.48 279.061 26.12 279.061 25.72C279.061 25 279.821 24.16 280.741 24.16C281.301 24.16 283.621 24.88 285.661 26.56C285.781 26.64 285.861 26.76 285.941 26.84ZM293.701 14.4C293.701 15.32 292.861 16 291.981 16C291.421 16 290.861 15.72 290.501 15C289.781 13.56 288.661 11.92 287.461 10.44C286.941 9.8 286.701 9.28 286.701 8.72C286.701 8.24 286.941 7.72 287.341 7.16C288.301 5.84 289.421 4.04 290.021 2.52C290.301 1.8 290.861 1.52 291.421 1.52C292.341 1.52 293.261 2.2 293.261 3.04C293.261 3.84 291.141 6.6 290.261 7.72C289.981 8.08 289.821 8.4 289.821 8.68C289.821 9 289.981 9.28 290.301 9.6C290.621 9.92 293.701 13 293.701 14.4ZM280.461 14.36C280.461 15.32 279.581 16 278.701 16C278.141 16 277.581 15.72 277.261 15C276.621 13.52 275.661 11.88 274.541 10.4C274.101 9.8 273.901 9.28 273.901 8.72C273.901 8.2 274.101 7.68 274.501 7.16C275.501 5.84 276.701 4.04 277.301 2.52C277.581 1.8 278.141 1.52 278.741 1.52C279.621 1.52 280.541 2.2 280.541 3.04C280.541 3.92 277.821 7.24 277.421 7.72C277.101 8.08 276.981 8.36 276.981 8.64C276.981 8.96 277.141 9.24 277.461 9.6C278.221 10.52 280.461 13.2 280.461 14.36ZM287.021 14.4C287.021 15.32 286.221 15.92 285.381 15.92C284.821 15.92 284.221 15.64 283.901 14.88C283.261 13.44 282.261 11.88 281.181 10.4C280.701 9.76 280.461 9.24 280.461 8.72C280.461 8.2 280.701 7.72 281.101 7.16C282.021 5.84 283.101 4.12 283.661 2.6C283.941 1.84 284.541 1.52 285.101 1.52C285.981 1.52 286.821 2.16 286.821 2.96C286.821 3.88 284.021 7.52 283.861 7.72C283.581 8.08 283.421 8.36 283.421 8.68C283.421 8.96 283.581 9.24 283.901 9.6C284.341 10.08 287.021 13.16 287.021 14.4ZM312.221 25.24H312.181C309.021 25.2 307.141 25.16 305.421 25.16C304.141 25.16 302.901 25.16 301.261 25.24C300.421 25.28 299.461 24.64 299.461 23.32C299.461 22.4 300.021 21.44 301.101 21.44H301.181C302.741 21.48 304.581 21.48 306.501 21.48C308.461 21.48 310.421 21.48 312.181 21.44H312.221C313.421 21.44 313.981 22.4 313.981 23.32C313.981 24.28 313.381 25.24 312.221 25.24Z" fill="#042F10"/>
</svg>
