<svg width="206" height="49" viewBox="0 0 206 49" fill="none" xmlns="http://www.w3.org/2000/svg">
<path d="M45.4224 7.82C44.9274 8.48 44.0474 9.525 43.6074 10.24C41.1874 14.255 35.9624 21.295 30.1324 25.365L25.4574 21.625C30.1874 18.82 34.9174 13.43 36.5124 10.35C32.9374 10.35 9.56243 10.35 6.53743 10.35C4.33743 10.35 2.41243 10.515 0.0474345 10.735V4.355C2.08243 4.685 4.33743 4.905 6.53743 4.905C9.56243 4.905 34.0374 4.905 37.1174 4.905C38.4374 4.905 40.9674 4.74 41.8474 4.465L45.4224 7.82ZM23.2024 15.135C23.2024 29.435 22.4324 40.05 7.91243 47.585L2.63243 43.295C4.28243 42.745 6.20743 41.865 8.02243 40.545C15.7774 35.54 16.9874 28.72 16.9874 19.645C16.9874 18.105 16.9324 16.785 16.7124 15.135H23.2024ZM94.4932 10.735C93.9982 11.615 93.3382 13.045 92.9532 14.2C91.4682 19.37 88.2232 26.74 83.2732 32.845C78.1582 39.06 71.5582 44.12 61.2182 48.08L55.9932 43.35C66.6632 40.16 73.1532 35.265 78.0482 29.655C82.0632 24.98 85.3082 18.105 86.2982 13.595H66.8832L69.0282 8.48C71.3932 8.48 83.9332 8.48 85.6382 8.48C87.2332 8.48 88.7732 8.26 89.8732 7.875L94.4932 10.735ZM76.3432 2.21C75.2432 3.915 74.0332 6.06 73.4282 7.215C69.9632 13.54 63.8032 21.405 55.4432 27.015L50.3832 23.275C59.9532 17.5 65.0682 9.965 67.6532 5.125C68.3132 3.97 69.3032 1.715 69.7432 0.0649983L76.3432 2.21ZM116.933 37.795C116.933 33.065 116.933 14.035 116.933 7.765C116.933 6.005 116.823 3.695 116.548 2.045H123.258C123.038 3.695 122.818 6.005 122.818 7.765C122.818 13.98 122.818 30.48 122.818 36.255C122.818 39.885 124.028 41.095 130.298 41.095C136.403 41.095 142.123 40.435 147.568 39.335L147.348 45.495C142.618 46.155 136.568 46.65 130.188 46.65C118.803 46.65 116.933 43.79 116.933 37.795ZM150.263 13.485C149.768 14.145 149.108 15.245 148.668 16.07C146.193 20.635 141.518 27.895 137.338 32.075L132.388 29.16C136.238 25.64 140.033 20.14 141.628 17.06C139.098 17.555 111.598 23 104.833 24.54L103.733 18.6C110.993 17.72 137.943 12.33 142.563 11.285C143.938 10.955 145.093 10.625 145.973 10.13L150.263 13.485ZM200.753 7.985C200.368 8.535 199.488 9.965 199.103 10.9C196.903 16.235 192.723 23.825 188.048 29.105C181.943 36.09 173.858 42.8 165.223 46.815L160.603 41.975C169.513 38.565 177.818 31.965 183.208 25.915C186.893 21.735 190.578 15.74 191.898 11.56C189.753 11.56 174.023 11.56 171.878 11.56C169.733 11.56 166.708 11.78 165.828 11.89V5.455C166.928 5.62 170.173 5.785 171.878 5.785C174.408 5.785 189.918 5.785 192.173 5.785C194.263 5.785 196.078 5.565 197.068 5.235L200.753 7.985ZM188.763 25.365C194.648 30.15 202.183 38.07 205.868 42.58L200.753 46.98C196.738 41.59 190.523 34.77 184.583 29.49L188.763 25.365Z" fill="#626262"/>
</svg>
