<svg width="207" height="49" viewBox="0 0 207 49" fill="none" xmlns="http://www.w3.org/2000/svg">
<path d="M46.2346 7.82C45.7396 8.48 44.8596 9.525 44.4196 10.24C41.9996 14.255 36.7746 21.295 30.9446 25.365L26.2696 21.625C30.9996 18.82 35.7296 13.43 37.3246 10.35C33.7496 10.35 10.3746 10.35 7.34963 10.35C5.14963 10.35 3.22463 10.515 0.859629 10.735V4.355C2.89463 4.685 5.14963 4.905 7.34963 4.905C10.3746 4.905 34.8496 4.905 37.9296 4.905C39.2496 4.905 41.7796 4.74 42.6596 4.465L46.2346 7.82ZM24.0146 15.135C24.0146 29.435 23.2446 40.05 8.72463 47.585L3.44463 43.295C5.09463 42.745 7.01963 41.865 8.83463 40.545C16.5896 35.54 17.7996 28.72 17.7996 19.645C17.7996 18.105 17.7446 16.785 17.5246 15.135H24.0146ZM95.3054 10.735C94.8104 11.615 94.1504 13.045 93.7654 14.2C92.2804 19.37 89.0354 26.74 84.0854 32.845C78.9704 39.06 72.3704 44.12 62.0304 48.08L56.8054 43.35C67.4754 40.16 73.9654 35.265 78.8604 29.655C82.8754 24.98 86.1204 18.105 87.1104 13.595H67.6954L69.8404 8.48C72.2054 8.48 84.7454 8.48 86.4504 8.48C88.0454 8.48 89.5854 8.26 90.6854 7.875L95.3054 10.735ZM77.1554 2.21C76.0554 3.915 74.8454 6.06 74.2404 7.215C70.7754 13.54 64.6154 21.405 56.2554 27.015L51.1954 23.275C60.7654 17.5 65.8804 9.965 68.4654 5.125C69.1254 3.97 70.1154 1.715 70.5554 0.0649983L77.1554 2.21ZM117.745 37.795C117.745 33.065 117.745 14.035 117.745 7.765C117.745 6.005 117.635 3.695 117.36 2.045H124.07C123.85 3.695 123.63 6.005 123.63 7.765C123.63 13.98 123.63 30.48 123.63 36.255C123.63 39.885 124.84 41.095 131.11 41.095C137.215 41.095 142.935 40.435 148.38 39.335L148.16 45.495C143.43 46.155 137.38 46.65 131 46.65C119.615 46.65 117.745 43.79 117.745 37.795ZM151.075 13.485C150.58 14.145 149.92 15.245 149.48 16.07C147.005 20.635 142.33 27.895 138.15 32.075L133.2 29.16C137.05 25.64 140.845 20.14 142.44 17.06C139.91 17.555 112.41 23 105.645 24.54L104.545 18.6C111.805 17.72 138.755 12.33 143.375 11.285C144.75 10.955 145.905 10.625 146.785 10.13L151.075 13.485ZM201.565 7.985C201.18 8.535 200.3 9.965 199.915 10.9C197.715 16.235 193.535 23.825 188.86 29.105C182.755 36.09 174.67 42.8 166.035 46.815L161.415 41.975C170.325 38.565 178.63 31.965 184.02 25.915C187.705 21.735 191.39 15.74 192.71 11.56C190.565 11.56 174.835 11.56 172.69 11.56C170.545 11.56 167.52 11.78 166.64 11.89V5.455C167.74 5.62 170.985 5.785 172.69 5.785C175.22 5.785 190.73 5.785 192.985 5.785C195.075 5.785 196.89 5.565 197.88 5.235L201.565 7.985ZM189.575 25.365C195.46 30.15 202.995 38.07 206.68 42.58L201.565 46.98C197.55 41.59 191.335 34.77 185.395 29.49L189.575 25.365Z" fill="#626262"/>
</svg>
