<svg width="263" height="47" viewBox="0 0 263 47" fill="none" xmlns="http://www.w3.org/2000/svg">
<path d="M1.02 4.61C2.945 4.83 5.585 4.995 7.4 4.995H34.79C36.275 4.995 38.255 4.885 39.245 4.83C39.19 6.095 39.135 8.075 39.135 9.505V37.995C39.135 39.92 39.245 42.615 39.355 43.88H32.865C32.92 42.67 32.975 40.635 32.975 38.655V10.715H7.455C5.255 10.715 2.45 10.825 1.02 10.935V4.61ZM0.305 34.75C1.955 34.86 4.375 35.025 6.795 35.025H36.385V40.91H6.96C4.76 40.91 1.955 41.075 0.305 41.185V34.75ZM59.87 1.97C63.72 4.555 70.815 10.275 73.95 13.465L69.385 18.085C66.58 15.115 59.705 9.175 55.69 6.425L59.87 1.97ZM54.04 38.71C63.115 37.39 70.265 34.31 75.545 31.065C84.51 25.62 91.44 17.37 94.74 10.275L98.26 16.49C94.245 23.64 87.425 31.175 78.79 36.455C73.29 39.865 66.25 43.11 57.835 44.595L54.04 38.71ZM113.385 1.585C115.09 1.805 117.015 1.915 118.83 1.915C122.185 1.915 137.915 1.915 141.05 1.915C142.755 1.915 144.845 1.805 146.55 1.585V7.415C144.79 7.305 142.755 7.25 141.05 7.25C137.915 7.25 122.185 7.25 118.885 7.25C117.015 7.25 114.98 7.305 113.385 7.415V1.585ZM106.95 15.5C108.49 15.665 110.25 15.83 111.955 15.83C115.255 15.83 144.845 15.83 147.98 15.83C149.135 15.83 151.225 15.72 152.655 15.5V21.385C151.335 21.33 149.41 21.275 147.98 21.275C144.845 21.275 115.255 21.275 111.955 21.275C110.305 21.275 108.435 21.33 106.95 21.44V15.5ZM133.955 18.58C133.955 25.62 132.91 31.23 130.49 35.85C128.565 39.59 124.33 43.715 119.545 46.135L114.265 42.285C118.335 40.635 122.295 37.5 124.44 34.145C127.19 29.855 127.795 24.575 127.795 18.58H133.955ZM169.87 1.97C173.72 4.555 180.815 10.275 183.95 13.465L179.385 18.085C176.58 15.115 169.705 9.175 165.69 6.425L169.87 1.97ZM164.04 38.71C173.115 37.39 180.265 34.31 185.545 31.065C194.51 25.62 201.44 17.37 204.74 10.275L208.26 16.49C204.245 23.64 197.425 31.175 188.79 36.455C183.29 39.865 176.25 43.11 167.835 44.595L164.04 38.71ZM237.52 0.924998C238.84 3.565 242.14 12.2 243.13 15.5L237.52 17.48C236.53 14.125 233.45 5.875 231.965 2.74L237.52 0.924998ZM262.325 4.885C261.83 6.04 261.39 7.525 261.115 8.57C259.465 15.005 256.44 23.255 251.93 29.25C246.21 36.785 238.125 42.395 230.315 45.255L225.365 40.25C233.01 37.995 241.425 32.88 246.98 25.84C251.215 20.45 254.625 11.32 255.615 2.96L262.325 4.885ZM222.23 4.28C223.77 7.525 227.235 15.83 228.5 19.515L222.725 21.605C221.625 18.14 217.94 8.955 216.51 6.26L222.23 4.28Z" fill="#626262"/>
</svg>
