<svg width="263" height="47" viewBox="0 0 263 47" fill="none" xmlns="http://www.w3.org/2000/svg">
<path d="M1.70097 4.61C3.62597 4.83 6.26597 4.995 8.08097 4.995H35.471C36.956 4.995 38.936 4.885 39.926 4.83C39.871 6.095 39.816 8.075 39.816 9.505V37.995C39.816 39.92 39.926 42.615 40.036 43.88H33.546C33.601 42.67 33.656 40.635 33.656 38.655V10.715H8.13597C5.93597 10.715 3.13097 10.825 1.70097 10.935V4.61ZM0.98597 34.75C2.63597 34.86 5.05597 35.025 7.47597 35.025H37.066V40.91H7.64097C5.44097 40.91 2.63597 41.075 0.98597 41.185V34.75ZM60.551 1.97C64.401 4.555 71.496 10.275 74.631 13.465L70.066 18.085C67.261 15.115 60.386 9.175 56.371 6.425L60.551 1.97ZM54.721 38.71C63.796 37.39 70.946 34.31 76.226 31.065C85.191 25.62 92.121 17.37 95.421 10.275L98.941 16.49C94.926 23.64 88.106 31.175 79.471 36.455C73.971 39.865 66.931 43.11 58.516 44.595L54.721 38.71ZM114.066 1.585C115.771 1.805 117.696 1.915 119.511 1.915C122.866 1.915 138.596 1.915 141.731 1.915C143.436 1.915 145.526 1.805 147.231 1.585V7.415C145.471 7.305 143.436 7.25 141.731 7.25C138.596 7.25 122.866 7.25 119.566 7.25C117.696 7.25 115.661 7.305 114.066 7.415V1.585ZM107.631 15.5C109.171 15.665 110.931 15.83 112.636 15.83C115.936 15.83 145.526 15.83 148.661 15.83C149.816 15.83 151.906 15.72 153.336 15.5V21.385C152.016 21.33 150.091 21.275 148.661 21.275C145.526 21.275 115.936 21.275 112.636 21.275C110.986 21.275 109.116 21.33 107.631 21.44V15.5ZM134.636 18.58C134.636 25.62 133.591 31.23 131.171 35.85C129.246 39.59 125.011 43.715 120.226 46.135L114.946 42.285C119.016 40.635 122.976 37.5 125.121 34.145C127.871 29.855 128.476 24.575 128.476 18.58H134.636ZM170.551 1.97C174.401 4.555 181.496 10.275 184.631 13.465L180.066 18.085C177.261 15.115 170.386 9.175 166.371 6.425L170.551 1.97ZM164.721 38.71C173.796 37.39 180.946 34.31 186.226 31.065C195.191 25.62 202.121 17.37 205.421 10.275L208.941 16.49C204.926 23.64 198.106 31.175 189.471 36.455C183.971 39.865 176.931 43.11 168.516 44.595L164.721 38.71ZM238.201 0.924998C239.521 3.565 242.821 12.2 243.811 15.5L238.201 17.48C237.211 14.125 234.131 5.875 232.646 2.74L238.201 0.924998ZM263.006 4.885C262.511 6.04 262.071 7.525 261.796 8.57C260.146 15.005 257.121 23.255 252.611 29.25C246.891 36.785 238.806 42.395 230.996 45.255L226.046 40.25C233.691 37.995 242.106 32.88 247.661 25.84C251.896 20.45 255.306 11.32 256.296 2.96L263.006 4.885ZM222.911 4.28C224.451 7.525 227.916 15.83 229.181 19.515L223.406 21.605C222.306 18.14 218.621 8.955 217.191 6.26L222.911 4.28Z" fill="#626262"/>
</svg>
