<svg width="180" height="46" viewBox="0 0 180 46" fill="none" xmlns="http://www.w3.org/2000/svg">
<path d="M0.225852 45L6.74574 1.36364H13.7131L10.8793 20.1989H32.2287L35.0412 1.36364H41.9872L35.4673 45H28.5213L31.3338 26.1009H10.0057L7.19318 45H0.225852ZM86.1776 23.5866C85.4815 28.1889 84.0469 32.1378 81.8736 35.4332C79.7003 38.7145 77.0227 41.2287 73.8409 42.9759C70.6733 44.723 67.2287 45.5966 63.5071 45.5966C59.6577 45.5966 56.348 44.6804 53.5781 42.848C50.8224 41.0156 48.8196 38.402 47.5696 35.0071C46.3338 31.598 46.0639 27.5355 46.7599 22.8196C47.456 18.2173 48.8835 14.2685 51.0426 10.973C53.2159 7.67756 55.9006 5.15625 59.0966 3.40909C62.2926 1.64773 65.7585 0.767044 69.4943 0.767044C73.3153 0.767044 76.6037 1.68324 79.3594 3.51562C82.1151 5.34801 84.1108 7.96875 85.3466 11.3778C86.5966 14.7869 86.8736 18.8565 86.1776 23.5866ZM79.3807 22.8196C79.892 19.3963 79.7784 16.5199 79.0398 14.1903C78.3153 11.8466 77.1009 10.0781 75.3963 8.88494C73.6918 7.67756 71.6392 7.07386 69.2386 7.07386C66.696 7.07386 64.331 7.71307 62.1435 8.99148C59.956 10.2699 58.1094 12.1378 56.6037 14.5952C55.098 17.0526 54.0824 20.0497 53.5568 23.5866C53.0313 27.0099 53.1378 29.8864 53.8764 32.2159C54.6293 34.5455 55.858 36.3068 57.5625 37.5C59.2812 38.6932 61.3338 39.2898 63.7202 39.2898C66.2628 39.2898 68.6207 38.6577 70.794 37.3935C72.9815 36.1151 74.8281 34.2543 76.3338 31.8111C77.8395 29.3537 78.8551 26.3565 79.3807 22.8196ZM97.4489 1.36364H105.908L114.601 34.6662H115.112L133.692 1.36364H142.151L135.631 45H128.983L133.67 13.8494H133.266L115.964 44.9148H110.638L102.669 13.8068H102.264L97.5767 45H90.929L97.4489 1.36364ZM144.894 45L151.414 1.36364H179.049L178.175 7.28693H157.486L155.547 20.1989H174.809L173.914 26.1009H154.674L152.735 39.0767H173.658L172.763 45H144.894Z" fill="#626262"/>
</svg>
