<svg width="171" height="51" viewBox="0 0 171 51" fill="none" xmlns="http://www.w3.org/2000/svg">
<path d="M30.5892 0.479997C30.4692 1.32 30.1092 3.84 30.1092 5.22C30.1092 8.64 30.1092 13.68 30.1092 16.86C30.1092 21.72 30.1092 40.44 30.1092 45.06C30.1092 48.42 28.3692 50.28 24.4092 50.28C21.5292 50.28 17.9892 50.16 15.2892 49.8L14.6892 43.68C17.2692 44.16 19.9692 44.4 21.4692 44.4C23.0892 44.4 23.6892 43.74 23.7492 42.18C23.7492 39.42 23.7492 19.68 23.7492 16.86C23.7492 14.82 23.7492 8.64 23.7492 5.22C23.7492 3.78 23.5092 1.44 23.3292 0.479997H30.5892ZM2.38917 10.32C4.12917 10.5 5.92917 10.68 7.84917 10.68C11.4492 10.68 41.0892 10.68 45.0492 10.68C46.6092 10.68 48.8892 10.56 50.4492 10.32V16.8C48.7092 16.68 46.6092 16.62 45.1092 16.62C41.1492 16.62 11.6292 16.62 7.84917 16.62C6.04917 16.62 4.00917 16.68 2.38917 16.86V10.32ZM16.9692 25.5C14.2692 30.72 8.68917 38.52 5.38917 42.12L0.0491723 38.46C4.00917 34.74 8.98917 27.84 11.3892 22.86L16.9692 25.5ZM42.3492 22.8C45.5292 26.64 50.2692 34.2 52.6692 38.52L46.9092 41.7C44.4492 36.78 40.0692 29.4 37.0092 25.68L42.3492 22.8ZM61.8492 21.12C63.8892 21.3 67.6692 21.48 70.9092 21.48C76.6692 21.48 98.5092 21.48 103.429 21.48C106.309 21.48 108.709 21.24 110.209 21.12V28.8C108.889 28.74 106.069 28.56 103.489 28.56C98.5092 28.56 76.6692 28.56 70.9092 28.56C67.5492 28.56 63.9492 28.68 61.8492 28.8V21.12ZM146.553 3.06C145.893 4.68 145.113 6.54 144.273 9.18C142.173 15.66 135.633 36.06 133.053 42.18L125.853 42.42C129.033 35.1 135.573 14.46 137.493 7.8C138.273 4.86 138.573 3.24 138.753 1.44L146.553 3.06ZM157.653 22.74C161.913 29.1 168.213 40.98 170.853 47.46L164.253 50.4C161.733 43.5 155.913 31.02 151.593 25.32L157.653 22.74ZM124.413 40.32C132.873 39.96 153.453 37.68 161.493 36.48L163.053 42.72C154.413 43.8 133.113 46.14 124.773 46.92C123.273 47.1 121.293 47.4 119.493 47.64L118.293 40.44C120.213 40.44 122.553 40.44 124.413 40.32Z" fill="#626262"/>
</svg>
