<svg width="217" height="52" viewBox="0 0 217 52" fill="none" xmlns="http://www.w3.org/2000/svg">
<path d="M28.095 21.37H46.63V26.43H28.095V21.37ZM25.84 21.37H31.23V43.37C31.23 45.625 31.78 46.065 34.64 46.065C35.96 46.065 42.065 46.065 43.715 46.065C46.465 46.065 46.905 44.69 47.235 37.43C48.445 38.31 50.755 39.245 52.24 39.575C51.58 48.595 49.985 51.18 44.1 51.18C42.67 51.18 35.355 51.18 34.035 51.18C27.765 51.18 25.84 49.585 25.84 43.37V21.37ZM25.455 3.495H49.325V29.345H43.88V8.61H25.455V3.495ZM3.51 17.3H20.945V21.48H3.51V17.3ZM3.785 2.395H21.165V6.52H3.785V2.395ZM3.51 24.725H20.945V28.905H3.51V24.725ZM0.87 9.71H23.09V14.055H0.87V9.71ZM5.985 32.26H20.78V48.705H5.985V44.36H16.05V36.605H5.985V32.26ZM3.4 32.26H8.13V51.015H3.4V32.26ZM78.53 0.524998H84.03V46.23C84.03 49.145 83.26 50.3 81.335 51.07C79.41 51.785 76.495 51.84 71.82 51.84C71.545 50.575 70.665 48.65 70.005 47.495C72.92 47.605 76.275 47.605 77.21 47.55C78.2 47.495 78.53 47.22 78.53 46.23V0.524998ZM57.465 4.54H105.59V8.83H57.465V4.54ZM68.355 15.155V18.4H94.59V15.155H68.355ZM63.185 11.635H100.09V21.975H63.185V11.635ZM61.7 25.11H100.97V45.9H95.525V28.905H61.7V25.11ZM56.365 31.985H106.745V36.165H56.365V31.985ZM61.26 39.465H98.44V43.48H61.26V39.465ZM111.255 22.635H161.91V28.52H111.255V22.635ZM179.4 31.71V33.965H203.325V31.71H179.4ZM179.4 36.825V39.135H203.325V36.825H179.4ZM179.4 26.65V28.85H203.325V26.65H179.4ZM174.285 23.625H208.66V42.105H174.285V23.625ZM194.305 40.51H199.585V45.46C199.585 46.725 200.025 46.89 202.39 46.89C203.435 46.89 208.44 46.89 209.87 46.89C211.795 46.89 212.125 46.285 212.345 42.05C213.39 42.765 215.48 43.48 216.91 43.81C216.36 49.695 214.93 51.125 210.42 51.125C209.155 51.125 202.94 51.125 201.73 51.125C195.79 51.125 194.305 49.86 194.305 45.46V40.51ZM182.315 40.84H187.595C186.11 47.33 181.985 50.355 168.4 51.785C168.07 50.575 166.915 48.65 166.035 47.66C177.915 46.835 181.105 45.02 182.315 40.84ZM196.725 16.09H215.04V20.27H196.725V16.09ZM197.22 6.025H216.47V10.26H197.22V6.025ZM197.495 0.524998L202.39 1.625C200.74 7.18 197.88 12.79 194.855 16.365C193.975 15.595 191.885 14.22 190.73 13.56C193.7 10.37 196.175 5.42 197.495 0.524998ZM178.41 3.99H182.81V9.16H178.41V3.99ZM178.41 14.33H182.81V19.61H178.41V14.33ZM171.425 7.84H190.4V16.255H171.425V13.23H185.67V10.865H171.425V7.84ZM191.39 2.45V5.585H173.625V18.785H192.16V21.92H168.785V2.45H191.39Z" fill="#626262"/>
</svg>
