<svg width="217" height="52" viewBox="0 0 217 52" fill="none" xmlns="http://www.w3.org/2000/svg">
<path d="M27.276 21.37H45.811V26.43H27.276V21.37ZM25.021 21.37H30.411V43.37C30.411 45.625 30.961 46.065 33.821 46.065C35.141 46.065 41.246 46.065 42.896 46.065C45.646 46.065 46.086 44.69 46.416 37.43C47.626 38.31 49.936 39.245 51.421 39.575C50.761 48.595 49.166 51.18 43.281 51.18C41.851 51.18 34.536 51.18 33.216 51.18C26.946 51.18 25.021 49.585 25.021 43.37V21.37ZM24.636 3.495H48.506V29.345H43.061V8.61H24.636V3.495ZM2.69097 17.3H20.126V21.48H2.69097V17.3ZM2.96597 2.395H20.346V6.52H2.96597V2.395ZM2.69097 24.725H20.126V28.905H2.69097V24.725ZM0.0509693 9.71H22.271V14.055H0.0509693V9.71ZM5.16597 32.26H19.961V48.705H5.16597V44.36H15.231V36.605H5.16597V32.26ZM2.58097 32.26H7.31097V51.015H2.58097V32.26ZM77.711 0.524998H83.211V46.23C83.211 49.145 82.441 50.3 80.516 51.07C78.591 51.785 75.676 51.84 71.001 51.84C70.726 50.575 69.846 48.65 69.186 47.495C72.101 47.605 75.456 47.605 76.391 47.55C77.381 47.495 77.711 47.22 77.711 46.23V0.524998ZM56.646 4.54H104.771V8.83H56.646V4.54ZM67.536 15.155V18.4H93.771V15.155H67.536ZM62.366 11.635H99.271V21.975H62.366V11.635ZM60.881 25.11H100.151V45.9H94.706V28.905H60.881V25.11ZM55.546 31.985H105.926V36.165H55.546V31.985ZM60.441 39.465H97.621V43.48H60.441V39.465ZM110.436 22.635H161.091V28.52H110.436V22.635ZM178.581 31.71V33.965H202.506V31.71H178.581ZM178.581 36.825V39.135H202.506V36.825H178.581ZM178.581 26.65V28.85H202.506V26.65H178.581ZM173.466 23.625H207.841V42.105H173.466V23.625ZM193.486 40.51H198.766V45.46C198.766 46.725 199.206 46.89 201.571 46.89C202.616 46.89 207.621 46.89 209.051 46.89C210.976 46.89 211.306 46.285 211.526 42.05C212.571 42.765 214.661 43.48 216.091 43.81C215.541 49.695 214.111 51.125 209.601 51.125C208.336 51.125 202.121 51.125 200.911 51.125C194.971 51.125 193.486 49.86 193.486 45.46V40.51ZM181.496 40.84H186.776C185.291 47.33 181.166 50.355 167.581 51.785C167.251 50.575 166.096 48.65 165.216 47.66C177.096 46.835 180.286 45.02 181.496 40.84ZM195.906 16.09H214.221V20.27H195.906V16.09ZM196.401 6.025H215.651V10.26H196.401V6.025ZM196.676 0.524998L201.571 1.625C199.921 7.18 197.061 12.79 194.036 16.365C193.156 15.595 191.066 14.22 189.911 13.56C192.881 10.37 195.356 5.42 196.676 0.524998ZM177.591 3.99H181.991V9.16H177.591V3.99ZM177.591 14.33H181.991V19.61H177.591V14.33ZM170.606 7.84H189.581V16.255H170.606V13.23H184.851V10.865H170.606V7.84ZM190.571 2.45V5.585H172.806V18.785H191.341V21.92H167.966V2.45H190.571Z" fill="#626262"/>
</svg>
