<svg width="163" height="52" viewBox="0 0 163 52" fill="none" xmlns="http://www.w3.org/2000/svg">
<path d="M1.97 25.77H30.13V30.665H1.97V25.77ZM14.125 20.435H19.35V51.565H14.125V20.435ZM14.07 27.805L18.195 30.28C15.005 36.715 8.9 44.03 3.4 48.1C2.74 46.67 1.31 44.58 0.21 43.37C5.38 40.125 11.21 33.635 14.07 27.805ZM27.435 1.13L30.735 5.64C23.035 7.675 11.87 8.995 2.63 9.6C2.465 8.335 1.75 6.355 1.2 5.145C10.33 4.375 21 3 27.435 1.13ZM2.52 13.12L6.535 11.36C8.625 13.945 10.66 17.41 11.485 19.83L7.25 21.92C6.535 19.445 4.5 15.76 2.52 13.12ZM12.365 11.14L16.545 9.875C18.195 12.405 19.735 15.87 20.34 18.18L15.83 19.72C15.39 17.355 13.905 13.78 12.365 11.14ZM25.455 9.765L30.735 11.14C28.92 14.88 26.72 19.06 25.015 21.755L20.945 20.435C22.485 17.52 24.465 13.01 25.455 9.765ZM44.705 1.46L50.095 3.66C46.19 8.72 40.415 13.505 35.08 16.64C34.145 15.375 32.495 13.67 31.065 12.625C35.905 10.095 41.68 5.75 44.705 1.46ZM46.08 16.585L51.305 18.785C47.18 24.01 41.02 28.905 35.41 32.095C34.475 30.885 32.88 29.125 31.45 28.08C36.565 25.495 42.78 20.985 46.08 16.585ZM47.29 31.93L52.68 34.075C48.005 41.72 40.525 47.825 32.22 51.675C31.34 50.245 29.8 48.32 28.315 47.055C36.015 44.03 43.44 38.475 47.29 31.93ZM16.82 32.975L20.175 29.895C24.08 32.755 28.095 36.825 30.02 39.685L26.39 43.26C24.52 40.345 20.505 35.945 16.82 32.975ZM62.69 43.205H100.805V48.21H62.69V43.205ZM59.225 15.98H103.94V51.345H98.495V20.985H64.45V51.455H59.225V15.98ZM84.305 18.125H89.475V28.905C89.475 30.225 89.64 30.335 90.905 30.335C91.4 30.335 93.82 30.335 94.48 30.335C95.525 30.335 95.745 29.895 95.91 26.87C96.9 27.585 99.045 28.41 100.42 28.74C99.87 33.8 98.495 35.12 95.085 35.12C94.095 35.12 91.015 35.12 90.08 35.12C85.295 35.12 84.305 33.69 84.305 28.905V18.125ZM56.97 3.825H105.865V9.05H56.97V3.825ZM72.205 7.675H77.54V18.84H72.205V7.675ZM84.305 7.675H89.75V18.84H84.305V7.675ZM72.48 17.19H77.54V22.58C77.54 27.915 75.78 34.185 67.97 38.145C67.255 37.155 65.22 35.34 64.12 34.68C71.325 31.16 72.48 26.485 72.48 22.47V17.19ZM122.365 0.579998L127.48 1.515C124.51 7.345 120.055 13.285 113.29 18.015C112.575 16.86 110.98 15.21 109.88 14.495C115.985 10.535 120.165 5.145 122.365 0.579998ZM122.145 4.045H133.2V7.785H119.89L122.145 4.045ZM131.935 4.045H132.87L133.75 3.825L136.995 5.2C133.255 18.62 124.07 26.87 113.235 30.995C112.63 29.73 111.365 27.805 110.375 26.76C120.22 23.57 128.91 15.76 131.935 4.925V4.045ZM118.955 10.59L121.375 8.115C124.18 9.545 127.81 11.745 129.68 13.23L127.205 15.98C125.39 14.495 121.815 12.13 118.955 10.59ZM145.08 40.18L149.48 37.595C153.385 40.565 158.335 44.965 160.7 48.045L155.97 51.07C153.825 48.045 149.04 43.425 145.08 40.18ZM114.225 15.705L117.14 13.34C119.78 15.1 123.245 17.575 125.005 19.225L121.98 21.865C120.33 20.16 116.975 17.52 114.225 15.705ZM143.87 3.99H156.63V8.445H143.87V3.99ZM126.435 20.71H147.555V25.55H126.435V20.71ZM115.655 30.775H157.84V35.67H115.655V30.775ZM155.31 3.99H156.52L157.565 3.66L161.085 6.025C158.335 11.25 153.99 17.025 149.81 20.6C149.04 19.61 147.5 18.015 146.51 17.3C150.03 14.165 153.715 8.83 155.31 5.035V3.99ZM140.955 1.185C144.2 13.175 151.24 21.975 162.955 25.715C161.855 26.76 160.315 28.795 159.6 30.225C147.17 25.66 140.13 16.035 136.335 2.175L140.955 1.185ZM133.86 33.195H139.305V46.285C139.305 48.925 138.755 50.3 136.665 51.015C134.63 51.73 131.66 51.785 127.48 51.73C127.205 50.3 126.435 48.32 125.72 46.945C128.745 47.055 131.88 47.055 132.76 47C133.64 47 133.86 46.78 133.86 46.12V33.195ZM121.485 37.485L126.82 39.08C124.235 43.645 119.835 47.99 115.82 50.74C114.83 49.75 112.685 48.045 111.42 47.22C115.435 44.855 119.34 41.28 121.485 37.485Z" fill="#626262"/>
</svg>
