<svg width="164" height="52" viewBox="0 0 164 52" fill="none" xmlns="http://www.w3.org/2000/svg">
<path d="M2.65097 25.77H30.811V30.665H2.65097V25.77ZM14.806 20.435H20.031V51.565H14.806V20.435ZM14.751 27.805L18.876 30.28C15.686 36.715 9.58097 44.03 4.08097 48.1C3.42097 46.67 1.99097 44.58 0.890969 43.37C6.06097 40.125 11.891 33.635 14.751 27.805ZM28.116 1.13L31.416 5.64C23.716 7.675 12.551 8.995 3.31097 9.6C3.14597 8.335 2.43097 6.355 1.88097 5.145C11.011 4.375 21.681 3 28.116 1.13ZM3.20097 13.12L7.21597 11.36C9.30597 13.945 11.341 17.41 12.166 19.83L7.93097 21.92C7.21597 19.445 5.18097 15.76 3.20097 13.12ZM13.046 11.14L17.226 9.875C18.876 12.405 20.416 15.87 21.021 18.18L16.511 19.72C16.071 17.355 14.586 13.78 13.046 11.14ZM26.136 9.765L31.416 11.14C29.601 14.88 27.401 19.06 25.696 21.755L21.626 20.435C23.166 17.52 25.146 13.01 26.136 9.765ZM45.386 1.46L50.776 3.66C46.871 8.72 41.096 13.505 35.761 16.64C34.826 15.375 33.176 13.67 31.746 12.625C36.586 10.095 42.361 5.75 45.386 1.46ZM46.761 16.585L51.986 18.785C47.861 24.01 41.701 28.905 36.091 32.095C35.156 30.885 33.561 29.125 32.131 28.08C37.246 25.495 43.461 20.985 46.761 16.585ZM47.971 31.93L53.361 34.075C48.686 41.72 41.206 47.825 32.901 51.675C32.021 50.245 30.481 48.32 28.996 47.055C36.696 44.03 44.121 38.475 47.971 31.93ZM17.501 32.975L20.856 29.895C24.761 32.755 28.776 36.825 30.701 39.685L27.071 43.26C25.201 40.345 21.186 35.945 17.501 32.975ZM63.371 43.205H101.486V48.21H63.371V43.205ZM59.906 15.98H104.621V51.345H99.176V20.985H65.131V51.455H59.906V15.98ZM84.986 18.125H90.156V28.905C90.156 30.225 90.321 30.335 91.586 30.335C92.081 30.335 94.501 30.335 95.161 30.335C96.206 30.335 96.426 29.895 96.591 26.87C97.581 27.585 99.726 28.41 101.101 28.74C100.551 33.8 99.176 35.12 95.766 35.12C94.776 35.12 91.696 35.12 90.761 35.12C85.976 35.12 84.986 33.69 84.986 28.905V18.125ZM57.651 3.825H106.546V9.05H57.651V3.825ZM72.886 7.675H78.221V18.84H72.886V7.675ZM84.986 7.675H90.431V18.84H84.986V7.675ZM73.161 17.19H78.221V22.58C78.221 27.915 76.461 34.185 68.651 38.145C67.936 37.155 65.901 35.34 64.801 34.68C72.006 31.16 73.161 26.485 73.161 22.47V17.19ZM123.046 0.579998L128.161 1.515C125.191 7.345 120.736 13.285 113.971 18.015C113.256 16.86 111.661 15.21 110.561 14.495C116.666 10.535 120.846 5.145 123.046 0.579998ZM122.826 4.045H133.881V7.785H120.571L122.826 4.045ZM132.616 4.045H133.551L134.431 3.825L137.676 5.2C133.936 18.62 124.751 26.87 113.916 30.995C113.311 29.73 112.046 27.805 111.056 26.76C120.901 23.57 129.591 15.76 132.616 4.925V4.045ZM119.636 10.59L122.056 8.115C124.861 9.545 128.491 11.745 130.361 13.23L127.886 15.98C126.071 14.495 122.496 12.13 119.636 10.59ZM145.761 40.18L150.161 37.595C154.066 40.565 159.016 44.965 161.381 48.045L156.651 51.07C154.506 48.045 149.721 43.425 145.761 40.18ZM114.906 15.705L117.821 13.34C120.461 15.1 123.926 17.575 125.686 19.225L122.661 21.865C121.011 20.16 117.656 17.52 114.906 15.705ZM144.551 3.99H157.311V8.445H144.551V3.99ZM127.116 20.71H148.236V25.55H127.116V20.71ZM116.336 30.775H158.521V35.67H116.336V30.775ZM155.991 3.99H157.201L158.246 3.66L161.766 6.025C159.016 11.25 154.671 17.025 150.491 20.6C149.721 19.61 148.181 18.015 147.191 17.3C150.711 14.165 154.396 8.83 155.991 5.035V3.99ZM141.636 1.185C144.881 13.175 151.921 21.975 163.636 25.715C162.536 26.76 160.996 28.795 160.281 30.225C147.851 25.66 140.811 16.035 137.016 2.175L141.636 1.185ZM134.541 33.195H139.986V46.285C139.986 48.925 139.436 50.3 137.346 51.015C135.311 51.73 132.341 51.785 128.161 51.73C127.886 50.3 127.116 48.32 126.401 46.945C129.426 47.055 132.561 47.055 133.441 47C134.321 47 134.541 46.78 134.541 46.12V33.195ZM122.166 37.485L127.501 39.08C124.916 43.645 120.516 47.99 116.501 50.74C115.511 49.75 113.366 48.045 112.101 47.22C116.116 44.855 120.021 41.28 122.166 37.485Z" fill="#626262"/>
</svg>
