<svg width="158" height="46" viewBox="0 0 158 46" fill="none" xmlns="http://www.w3.org/2000/svg">
<path d="M7.385 0.584999C9.09 0.804999 11.015 0.914998 12.83 0.914998C16.185 0.914998 31.915 0.914998 35.05 0.914998C36.755 0.914998 38.845 0.804999 40.55 0.584999V6.415C38.79 6.305 36.755 6.25 35.05 6.25C31.915 6.25 16.185 6.25 12.885 6.25C11.015 6.25 8.98 6.305 7.385 6.415V0.584999ZM0.95 14.5C2.49 14.665 4.25 14.83 5.955 14.83C9.255 14.83 38.845 14.83 41.98 14.83C43.135 14.83 45.225 14.72 46.655 14.5V20.385C45.335 20.33 43.41 20.275 41.98 20.275C38.845 20.275 9.255 20.275 5.955 20.275C4.305 20.275 2.435 20.33 0.95 20.44V14.5ZM27.955 17.58C27.955 24.62 26.91 30.23 24.49 34.85C22.565 38.59 18.33 42.715 13.545 45.135L8.265 41.285C12.335 39.635 16.295 36.5 18.44 33.145C21.19 28.855 21.795 23.575 21.795 17.58H27.955ZM56.28 17.36C58.15 17.525 61.615 17.69 64.585 17.69C69.865 17.69 89.885 17.69 94.395 17.69C97.035 17.69 99.235 17.47 100.61 17.36V24.4C99.4 24.345 96.815 24.18 94.45 24.18C89.885 24.18 69.865 24.18 64.585 24.18C61.505 24.18 58.205 24.29 56.28 24.4V17.36ZM157.7 7.24C157.095 8.01 156.49 8.67 156.105 9.275C151.87 16.205 144.005 25.995 134.875 32.65L130.42 28.525C138.45 22.97 144.995 14.83 147.91 9.66C143.07 9.66 120.96 9.66 117.275 9.66C115.075 9.66 112.38 9.88 111.28 9.99V3.665C112.765 3.885 115.35 4.105 117.275 4.105C120.41 4.105 143.18 4.105 148.845 4.105C150.715 4.105 152.255 3.94 153.245 3.61L157.7 7.24ZM130.255 33.475C126.955 30.23 121.015 25.005 117.935 22.805L122.61 19.01C125.36 21.045 131.245 25.885 135.37 29.79C138.89 33.255 143.18 37.82 145.71 40.9L140.43 45.08C138.285 42.11 133.775 37.105 130.255 33.475Z" fill="#626262"/>
</svg>
