<svg width="158" height="46" viewBox="0 0 158 46" fill="none" xmlns="http://www.w3.org/2000/svg">
<path d="M7.06597 0.584999C8.77097 0.804999 10.696 0.914998 12.511 0.914998C15.866 0.914998 31.596 0.914998 34.731 0.914998C36.436 0.914998 38.526 0.804999 40.231 0.584999V6.415C38.471 6.305 36.436 6.25 34.731 6.25C31.596 6.25 15.866 6.25 12.566 6.25C10.696 6.25 8.66097 6.305 7.06597 6.415V0.584999ZM0.630969 14.5C2.17097 14.665 3.93097 14.83 5.63597 14.83C8.93597 14.83 38.526 14.83 41.661 14.83C42.816 14.83 44.906 14.72 46.336 14.5V20.385C45.016 20.33 43.091 20.275 41.661 20.275C38.526 20.275 8.93597 20.275 5.63597 20.275C3.98597 20.275 2.11597 20.33 0.630969 20.44V14.5ZM27.636 17.58C27.636 24.62 26.591 30.23 24.171 34.85C22.246 38.59 18.011 42.715 13.226 45.135L7.94597 41.285C12.016 39.635 15.976 36.5 18.121 33.145C20.871 28.855 21.476 23.575 21.476 17.58H27.636ZM55.961 17.36C57.831 17.525 61.296 17.69 64.266 17.69C69.546 17.69 89.566 17.69 94.076 17.69C96.716 17.69 98.916 17.47 100.291 17.36V24.4C99.081 24.345 96.496 24.18 94.131 24.18C89.566 24.18 69.546 24.18 64.266 24.18C61.186 24.18 57.886 24.29 55.961 24.4V17.36ZM157.381 7.24C156.776 8.01 156.171 8.67 155.786 9.275C151.551 16.205 143.686 25.995 134.556 32.65L130.101 28.525C138.131 22.97 144.676 14.83 147.591 9.66C142.751 9.66 120.641 9.66 116.956 9.66C114.756 9.66 112.061 9.88 110.961 9.99V3.665C112.446 3.885 115.031 4.105 116.956 4.105C120.091 4.105 142.861 4.105 148.526 4.105C150.396 4.105 151.936 3.94 152.926 3.61L157.381 7.24ZM129.936 33.475C126.636 30.23 120.696 25.005 117.616 22.805L122.291 19.01C125.041 21.045 130.926 25.885 135.051 29.79C138.571 33.255 142.861 37.82 145.391 40.9L140.111 45.08C137.966 42.11 133.456 37.105 129.936 33.475Z" fill="#626262"/>
</svg>
