<svg width="158" height="46" viewBox="0 0 158 46" fill="none" xmlns="http://www.w3.org/2000/svg">
<path d="M6.885 0.584999C8.59 0.804999 10.515 0.914998 12.33 0.914998C15.685 0.914998 31.415 0.914998 34.55 0.914998C36.255 0.914998 38.345 0.804999 40.05 0.584999V6.415C38.29 6.305 36.255 6.25 34.55 6.25C31.415 6.25 15.685 6.25 12.385 6.25C10.515 6.25 8.48 6.305 6.885 6.415V0.584999ZM0.45 14.5C1.99 14.665 3.75 14.83 5.455 14.83C8.755 14.83 38.345 14.83 41.48 14.83C42.635 14.83 44.725 14.72 46.155 14.5V20.385C44.835 20.33 42.91 20.275 41.48 20.275C38.345 20.275 8.755 20.275 5.455 20.275C3.805 20.275 1.935 20.33 0.45 20.44V14.5ZM27.455 17.58C27.455 24.62 26.41 30.23 23.99 34.85C22.065 38.59 17.83 42.715 13.045 45.135L7.765 41.285C11.835 39.635 15.795 36.5 17.94 33.145C20.69 28.855 21.295 23.575 21.295 17.58H27.455ZM55.78 17.36C57.65 17.525 61.115 17.69 64.085 17.69C69.365 17.69 89.385 17.69 93.895 17.69C96.535 17.69 98.735 17.47 100.11 17.36V24.4C98.9 24.345 96.315 24.18 93.95 24.18C89.385 24.18 69.365 24.18 64.085 24.18C61.005 24.18 57.705 24.29 55.78 24.4V17.36ZM157.2 7.24C156.595 8.01 155.99 8.67 155.605 9.275C151.37 16.205 143.505 25.995 134.375 32.65L129.92 28.525C137.95 22.97 144.495 14.83 147.41 9.66C142.57 9.66 120.46 9.66 116.775 9.66C114.575 9.66 111.88 9.88 110.78 9.99V3.665C112.265 3.885 114.85 4.105 116.775 4.105C119.91 4.105 142.68 4.105 148.345 4.105C150.215 4.105 151.755 3.94 152.745 3.61L157.2 7.24ZM129.755 33.475C126.455 30.23 120.515 25.005 117.435 22.805L122.11 19.01C124.86 21.045 130.745 25.885 134.87 29.79C138.39 33.255 142.68 37.82 145.21 40.9L139.93 45.08C137.785 42.11 133.275 37.105 129.755 33.475Z" fill="#626262"/>
</svg>
