<svg width="247" height="75" viewBox="0 0 247 75" fill="none" xmlns="http://www.w3.org/2000/svg">
<path d="M31.24 41.76V61.52H23.96V35.08H38.72V41.76H31.24ZM25.52 36.6V60H29.72V40.2H37.2V36.6H25.52ZM51.8928 69L56.2393 39.9091H60.8842L57.12 65.0511H70.2024L69.6058 69H51.8928ZM93.892 39.9091L89.5455 69H84.9006L89.2472 39.9091H93.892ZM113.409 39.9091L117.884 63.3892H118.196L129.645 39.9091H134.659L119.901 69H114.446L108.395 39.9091H113.409ZM144.822 69L149.169 39.9091H167.592L167.01 43.858H153.217L151.925 52.4659H164.766L164.169 56.4006H151.342L150.05 65.0511H163.999L163.402 69H144.822ZM186.689 65.88V46.12H193.969V72.56H179.209V65.88H186.689ZM192.409 71.04V47.64H188.209V67.44H180.729V71.04H192.409Z" fill="url(#paint0_linear_1262_3)"/>
<path d="M1.404 14.964H14.716V17.278H1.404V14.964ZM7.15 12.442H9.62V27.158H7.15V12.442ZM7.124 15.926L9.074 17.096C7.566 20.138 4.68 23.596 2.08 25.52C1.768 24.844 1.092 23.856 0.572 23.284C3.016 21.75 5.772 18.682 7.124 15.926ZM13.442 3.316L15.002 5.448C11.362 6.41 6.084 7.034 1.716 7.32C1.638 6.722 1.3 5.786 1.04 5.214C5.356 4.85 10.4 4.2 13.442 3.316ZM1.664 8.984L3.562 8.152C4.55 9.374 5.512 11.012 5.902 12.156L3.9 13.144C3.562 11.974 2.6 10.232 1.664 8.984ZM6.318 8.048L8.294 7.45C9.074 8.646 9.802 10.284 10.088 11.376L7.956 12.104C7.748 10.986 7.046 9.296 6.318 8.048ZM12.506 7.398L15.002 8.048C14.144 9.816 13.104 11.792 12.298 13.066L10.374 12.442C11.102 11.064 12.038 8.932 12.506 7.398ZM21.606 3.472L24.154 4.512C22.308 6.904 19.578 9.166 17.056 10.648C16.614 10.05 15.834 9.244 15.158 8.75C17.446 7.554 20.176 5.5 21.606 3.472ZM22.256 10.622L24.726 11.662C22.776 14.132 19.864 16.446 17.212 17.954C16.77 17.382 16.016 16.55 15.34 16.056C17.758 14.834 20.696 12.702 22.256 10.622ZM22.828 17.876L25.376 18.89C23.166 22.504 19.63 25.39 15.704 27.21C15.288 26.534 14.56 25.624 13.858 25.026C17.498 23.596 21.008 20.97 22.828 17.876ZM8.424 18.37L10.01 16.914C11.856 18.266 13.754 20.19 14.664 21.542L12.948 23.232C12.064 21.854 10.166 19.774 8.424 18.37ZM30.108 23.206H48.126V25.572H30.108V23.206ZM28.47 10.336H49.608V27.054H47.034V12.702H30.94V27.106H28.47V10.336ZM40.326 11.35H42.77V16.446C42.77 17.07 42.848 17.122 43.446 17.122C43.68 17.122 44.824 17.122 45.136 17.122C45.63 17.122 45.734 16.914 45.812 15.484C46.28 15.822 47.294 16.212 47.944 16.368C47.684 18.76 47.034 19.384 45.422 19.384C44.954 19.384 43.498 19.384 43.056 19.384C40.794 19.384 40.326 18.708 40.326 16.446V11.35ZM27.404 4.59H50.518V7.06H27.404V4.59ZM34.606 6.41H37.128V11.688H34.606V6.41ZM40.326 6.41H42.9V11.688H40.326V6.41ZM34.736 10.908H37.128V13.456C37.128 15.978 36.296 18.942 32.604 20.814C32.266 20.346 31.304 19.488 30.784 19.176C34.19 17.512 34.736 15.302 34.736 13.404V10.908ZM58.318 3.056L60.736 3.498C59.332 6.254 57.226 9.062 54.028 11.298C53.69 10.752 52.936 9.972 52.416 9.634C55.302 7.762 57.278 5.214 58.318 3.056ZM58.214 4.694H63.44V6.462H57.148L58.214 4.694ZM62.842 4.694H63.284L63.7 4.59L65.234 5.24C63.466 11.584 59.124 15.484 54.002 17.434C53.716 16.836 53.118 15.926 52.65 15.432C57.304 13.924 61.412 10.232 62.842 5.11V4.694ZM56.706 7.788L57.85 6.618C59.176 7.294 60.892 8.334 61.776 9.036L60.606 10.336C59.748 9.634 58.058 8.516 56.706 7.788ZM69.056 21.776L71.136 20.554C72.982 21.958 75.322 24.038 76.44 25.494L74.204 26.924C73.19 25.494 70.928 23.31 69.056 21.776ZM54.47 10.206L55.848 9.088C57.096 9.92 58.734 11.09 59.566 11.87L58.136 13.118C57.356 12.312 55.77 11.064 54.47 10.206ZM68.484 4.668H74.516V6.774H68.484V4.668ZM60.242 12.572H70.226V14.86H60.242V12.572ZM55.146 17.33H75.088V19.644H55.146V17.33ZM73.892 4.668H74.464L74.958 4.512L76.622 5.63C75.322 8.1 73.268 10.83 71.292 12.52C70.928 12.052 70.2 11.298 69.732 10.96C71.396 9.478 73.138 6.956 73.892 5.162V4.668ZM67.106 3.342C68.64 9.01 71.968 13.17 77.506 14.938C76.986 15.432 76.258 16.394 75.92 17.07C70.044 14.912 66.716 10.362 64.922 3.81L67.106 3.342ZM63.752 18.474H66.326V24.662C66.326 25.91 66.066 26.56 65.078 26.898C64.116 27.236 62.712 27.262 60.736 27.236C60.606 26.56 60.242 25.624 59.904 24.974C61.334 25.026 62.816 25.026 63.232 25C63.648 25 63.752 24.896 63.752 24.584V18.474ZM57.902 20.502L60.424 21.256C59.202 23.414 57.122 25.468 55.224 26.768C54.756 26.3 53.742 25.494 53.144 25.104C55.042 23.986 56.888 22.296 57.902 20.502ZM84.0753 6.09091L83.826 7.89134C83.746 8.42069 83.5613 8.97467 83.272 9.55327C82.9889 10.1319 82.6288 10.6858 82.1918 11.2152C81.7609 11.7384 81.2869 12.1908 80.7699 12.5724L79.4865 11.5845C79.9174 11.0613 80.3082 10.5012 80.6591 9.90412C81.0099 9.30705 81.2408 8.64536 81.3516 7.91903L81.6378 6.09091H84.0753ZM83.9922 25L84.3338 22.821L91.7479 16.2472C92.5173 15.5516 93.1605 14.9392 93.6776 14.4098C94.2008 13.8743 94.607 13.3665 94.8963 12.8864C95.1918 12.4001 95.3826 11.883 95.4688 11.3352C95.5611 10.7197 95.4964 10.1873 95.2749 9.73793C95.0594 9.28243 94.724 8.93466 94.2685 8.6946C93.813 8.44839 93.2682 8.32528 92.6342 8.32528C91.9756 8.32528 91.3755 8.4607 90.8338 8.73153C90.2921 9.00237 89.8459 9.38707 89.495 9.88565C89.1442 10.3781 88.9164 10.9567 88.8118 11.6214H85.9496C86.1281 10.4581 86.5528 9.44247 87.2237 8.57457C87.8946 7.70668 88.7348 7.03267 89.7443 6.55256C90.7599 6.07244 91.8648 5.83239 93.0589 5.83239C94.2715 5.83239 95.2995 6.06936 96.1428 6.54332C96.9922 7.01113 97.6108 7.65436 97.9986 8.47301C98.3864 9.28551 98.5033 10.2027 98.3494 11.2244C98.2386 11.9323 97.9986 12.6248 97.6293 13.3018C97.2661 13.9728 96.6937 14.7206 95.9119 15.5455C95.1364 16.3703 94.0746 17.3674 92.7266 18.5369L88.5533 22.304L88.5256 22.4425H96.9645L96.5859 25H83.9922ZM99.7667 21.353L100.118 18.9339L110.163 6.09091H112.102L111.576 9.6179H110.366L103.275 18.6847V18.8324H114.475L114.096 21.353H99.7667ZM108.187 25L108.843 20.6051L109.037 19.5341L111.04 6.09091H113.884L111.059 25H108.187Z" fill="url(#paint1_linear_1262_3)"/>
<defs>
<linearGradient id="paint0_linear_1262_3" x1="123.5" y1="30" x2="123.5" y2="75" gradientUnits="userSpaceOnUse">
<stop stop-color="#2D6639"/>
<stop offset="0.0001" stop-color="#2D6639"/>
<stop offset="0.0002" stop-color="#2D6639"/>
<stop offset="1" stop-color="#52759F" stop-opacity="0"/>
</linearGradient>
<linearGradient id="paint1_linear_1262_3" x1="89" y1="0" x2="89" y2="60" gradientUnits="userSpaceOnUse">
<stop stop-color="#2D6639"/>
<stop offset="0.0001" stop-color="#2D6639"/>
<stop offset="0.0002" stop-color="#2D6639"/>
<stop offset="1" stop-color="#52759F" stop-opacity="0"/>
</linearGradient>
</defs>
</svg>
