<svg width="977" height="94" viewBox="0 0 977 94" fill="none" xmlns="http://www.w3.org/2000/svg">
<path d="M3.4 46.4H54.6V55.3H3.4V46.4ZM25.5 36.7H35V93.3H25.5V36.7ZM25.4 50.1L32.9 54.6C27.1 66.3 16 79.6 6 87C4.8 84.4 2.2 80.6 0.2 78.4C9.6 72.5 20.2 60.7 25.4 50.1ZM49.7 1.59999L55.7 9.8C41.7 13.5 21.4 15.9 4.6 17C4.3 14.7 3 11.1 2 8.9C18.6 7.5 38 5 49.7 1.59999ZM4.4 23.4L11.7 20.2C15.5 24.9 19.2 31.2 20.7 35.6L13 39.4C11.7 34.9 8 28.2 4.4 23.4ZM22.3 19.8L29.9 17.5C32.9 22.1 35.7 28.4 36.8 32.6L28.6 35.4C27.8 31.1 25.1 24.6 22.3 19.8ZM46.1 17.3L55.7 19.8C52.4 26.6 48.4 34.2 45.3 39.1L37.9 36.7C40.7 31.4 44.3 23.2 46.1 17.3ZM81.1 2.19999L90.9 6.2C83.8 15.4 73.3 24.1 63.6 29.8C61.9 27.5 58.9 24.4 56.3 22.5C65.1 17.9 75.6 9.99999 81.1 2.19999ZM83.6 29.7L93.1 33.7C85.6 43.2 74.4 52.1 64.2 57.9C62.5 55.7 59.6 52.5 57 50.6C66.3 45.9 77.6 37.7 83.6 29.7ZM85.8 57.6L95.6 61.5C87.1 75.4 73.5 86.5 58.4 93.5C56.8 90.9 54 87.4 51.3 85.1C65.3 79.6 78.8 69.5 85.8 57.6ZM30.4 59.5L36.5 53.9C43.6 59.1 50.9 66.5 54.4 71.7L47.8 78.2C44.4 72.9 37.1 64.9 30.4 59.5ZM113.8 78.1H183.1V87.2H113.8V78.1ZM107.5 28.6H188.8V92.9H178.9V37.7H117V93.1H107.5V28.6ZM153.1 32.5H162.5V52.1C162.5 54.5 162.8 54.7 165.1 54.7C166 54.7 170.4 54.7 171.6 54.7C173.5 54.7 173.9 53.9 174.2 48.4C176 49.7 179.9 51.2 182.4 51.8C181.4 61 178.9 63.4 172.7 63.4C170.9 63.4 165.3 63.4 163.6 63.4C154.9 63.4 153.1 60.8 153.1 52.1V32.5ZM103.4 6.5H192.3V16H103.4V6.5ZM131.1 13.5H140.8V33.8H131.1V13.5ZM153.1 13.5H163V33.8H153.1V13.5ZM131.6 30.8H140.8V40.6C140.8 50.3 137.6 61.7 123.4 68.9C122.1 67.1 118.4 63.8 116.4 62.6C129.5 56.2 131.6 47.7 131.6 40.4V30.8ZM222.3 0.599996L231.6 2.3C226.2 12.9 218.1 23.7 205.8 32.3C204.5 30.2 201.6 27.2 199.6 25.9C210.7 18.7 218.3 8.9 222.3 0.599996ZM221.9 6.9H242V13.7H217.8L221.9 6.9ZM239.7 6.9H241.4L243 6.5L248.9 8.99999C242.1 33.4 225.4 48.4 205.7 55.9C204.6 53.6 202.3 50.1 200.5 48.2C218.4 42.4 234.2 28.2 239.7 8.5V6.9ZM216.1 18.8L220.5 14.3C225.6 16.9 232.2 20.9 235.6 23.6L231.1 28.6C227.8 25.9 221.3 21.6 216.1 18.8ZM263.6 72.6L271.6 67.9C278.7 73.3 287.7 81.3 292 86.9L283.4 92.4C279.5 86.9 270.8 78.5 263.6 72.6ZM207.5 28.1L212.8 23.8C217.6 27 223.9 31.5 227.1 34.5L221.6 39.3C218.6 36.2 212.5 31.4 207.5 28.1ZM261.4 6.79999H284.6V14.9H261.4V6.79999ZM229.7 37.2H268.1V46H229.7V37.2ZM210.1 55.5H286.8V64.4H210.1V55.5ZM282.2 6.79999H284.4L286.3 6.2L292.7 10.5C287.7 20 279.8 30.5 272.2 37C270.8 35.2 268 32.3 266.2 31C272.6 25.3 279.3 15.6 282.2 8.7V6.79999ZM256.1 1.69999C262 23.5 274.8 39.5 296.1 46.3C294.1 48.2 291.3 51.9 290 54.5C267.4 46.2 254.6 28.7 247.7 3.49999L256.1 1.69999ZM243.2 59.9H253.1V83.7C253.1 88.5 252.1 91 248.3 92.3C244.6 93.6 239.2 93.7 231.6 93.6C231.1 91 229.7 87.4 228.4 84.9C233.9 85.1 239.6 85.1 241.2 85C242.8 85 243.2 84.6 243.2 83.4V59.9ZM220.7 67.7L230.4 70.6C225.7 78.9 217.7 86.8 210.4 91.8C208.6 90 204.7 86.9 202.4 85.4C209.7 81.1 216.8 74.6 220.7 67.7ZM321.366 12.2727L320.408 19.1974C320.1 21.2334 319.39 23.3641 318.277 25.5895C317.188 27.8149 315.803 29.9455 314.122 31.9815C312.465 33.9938 310.642 35.7339 308.653 37.2017L303.717 33.402C305.375 31.3897 306.878 29.2353 308.227 26.9389C309.577 24.6425 310.464 22.0975 310.891 19.304L311.991 12.2727H321.366ZM321.047 85L322.361 76.6193L350.876 51.3352C353.836 48.66 356.31 46.3044 358.298 44.2685C360.311 42.2088 361.873 40.2557 362.986 38.4091C364.122 36.5388 364.856 34.5502 365.188 32.4432C365.543 30.0758 365.294 28.0279 364.442 26.2997C363.613 24.5478 362.323 23.2102 360.571 22.2869C358.819 21.34 356.724 20.8665 354.286 20.8665C351.752 20.8665 349.444 21.3873 347.361 22.429C345.277 23.4706 343.561 24.9503 342.212 26.8679C340.862 28.7618 339.986 30.9872 339.584 33.544H328.575C329.262 29.0696 330.895 25.1634 333.476 21.8253C336.056 18.4872 339.288 15.8949 343.17 14.0483C347.077 12.2017 351.326 11.2784 355.919 11.2784C360.583 11.2784 364.536 12.1899 367.78 14.0128C371.047 15.812 373.426 18.286 374.918 21.4347C376.409 24.5597 376.859 28.0871 376.267 32.017C375.841 34.7396 374.918 37.4029 373.497 40.0071C372.1 42.5876 369.899 45.464 366.892 48.6364C363.909 51.8087 359.825 55.6439 354.641 60.142L338.589 74.6307L338.483 75.1634H370.94L369.484 85H321.047ZM381.718 70.973L383.067 61.669L421.704 12.2727H429.161L427.137 25.8381H422.485L395.212 60.7102V61.2784H438.288L436.832 70.973H381.718ZM414.104 85L416.626 68.0966L417.371 63.9773L425.077 12.2727H436.015L425.148 85H414.104ZM648.17 16.9V66.3H629.97V0.199995H666.87V16.9H648.17ZM633.87 3.99999V62.5H644.37V13H663.07V3.99999H633.87ZM699.802 85L710.669 12.2727H722.281L712.87 75.1278H745.576L744.085 85H699.802ZM778.726 12.2727L767.86 85H756.248L767.114 12.2727H778.726ZM801.445 12.2727L812.631 70.973H813.412L842.034 12.2727H854.57L817.673 85H804.037L788.909 12.2727H801.445ZM853.904 85L864.77 12.2727H910.828L909.373 22.1449H874.891L871.659 43.6648H903.762L902.27 53.5014H870.203L866.972 75.1278H901.844L900.353 85H853.904ZM958.57 77.2V27.8H976.77V93.9H939.87V77.2H958.57ZM972.87 90.1V31.6H962.37V81.1H943.67V90.1H972.87Z" fill="url(#paint0_linear_59_54)"/>
<defs>
<linearGradient id="paint0_linear_59_54" x1="917.682" y1="-50" x2="917.682" y2="204.836" gradientUnits="userSpaceOnUse">
<stop stop-color="#2D6639"/>
<stop offset="1" stop-color="#52759F" stop-opacity="0"/>
</linearGradient>
</defs>
</svg>
